<svg width="535" height="336" viewBox="0 0 535 336" fill="none" xmlns="http://www.w3.org/2000/svg">
<path fill-rule="evenodd" clip-rule="evenodd" d="M96.0312 71.7051H26.9688C26.2643 71.7051 25.5886 71.985 25.0905 72.4831C24.5924 72.9813 24.3125 73.6569 24.3125 74.3614V122.174C24.3125 122.879 24.5924 123.554 25.0905 124.052C25.5886 124.55 26.2643 124.83 26.9688 124.83H96.0312C96.7357 124.83 97.4114 124.55 97.9095 124.052C98.4076 123.554 98.6875 122.879 98.6875 122.174V74.3614C98.6875 73.6569 98.4076 72.9813 97.9095 72.4831C97.4114 71.985 96.7357 71.7051 96.0312 71.7051ZM26.9688 66.3926C24.8553 66.3926 22.8284 67.2322 21.334 68.7266C19.8396 70.2211 19 72.2479 19 74.3614V122.174C19 124.288 19.8396 126.314 21.334 127.809C22.8284 129.303 24.8553 130.143 26.9688 130.143H96.0312C98.1447 130.143 100.172 129.303 101.666 127.809C103.16 126.314 104 124.288 104 122.174V74.3614C104 72.2479 103.16 70.2211 101.666 68.7266C100.172 67.2322 98.1447 66.3926 96.0312 66.3926H26.9688Z" fill="#E9ECEF"/>
<path d="M75.5676 96.3867C75.9622 95.9932 76.4705 95.7338 77.0206 95.6451C77.5707 95.5565 78.1347 95.643 78.6329 95.8926L98.6982 106.236V124.83H24.3232V119.518L38.3801 107.012C38.8143 106.579 39.3848 106.31 39.9948 106.25C40.6048 106.19 41.2168 106.343 41.727 106.683L55.8582 116.102L75.5676 96.3921V96.3867Z" fill="#E9ECEF"/>
<path fill-rule="evenodd" clip-rule="evenodd" d="M42.917 92.9551C43.9635 92.9551 44.9997 92.749 45.9665 92.3485C46.9333 91.9481 47.8118 91.3611 48.5518 90.6211C49.2917 89.8812 49.8787 89.0027 50.2792 88.0359C50.6796 87.0691 50.8857 86.0328 50.8857 84.9864C50.8857 83.9399 50.6796 82.9037 50.2792 81.9369C49.8787 80.9701 49.2917 80.0916 48.5518 79.3516C47.8118 78.6117 46.9333 78.0247 45.9665 77.6242C44.9997 77.2237 43.9635 77.0176 42.917 77.0176C40.8035 77.0176 38.7767 77.8572 37.2822 79.3516C35.7878 80.8461 34.9482 82.8729 34.9482 84.9864C34.9482 87.0998 35.7878 89.1267 37.2822 90.6211C38.7767 92.1156 40.8035 92.9551 42.917 92.9551Z" fill="#E9ECEF"/>
<path d="M504 67.7676H143C136.373 67.7676 131 73.1402 131 79.7676C131 86.395 136.373 91.7676 143 91.7676H504C510.627 91.7676 516 86.395 516 79.7676C516 73.1402 510.627 67.7676 504 67.7676Z" fill="#E9ECEF"/>
<path d="M504 104.768H143C136.373 104.768 131 110.14 131 116.768C131 123.395 136.373 128.768 143 128.768H504C510.627 128.768 516 123.395 516 116.768C516 110.14 510.627 104.768 504 104.768Z" fill="#E9ECEF"/>
<path fill-rule="evenodd" clip-rule="evenodd" d="M96.0312 161.705H26.9688C26.2643 161.705 25.5886 161.985 25.0905 162.483C24.5924 162.981 24.3125 163.657 24.3125 164.362V212.174C24.3125 212.879 24.5924 213.554 25.0905 214.052C25.5886 214.55 26.2643 214.83 26.9688 214.83H96.0312C96.7357 214.83 97.4114 214.55 97.9095 214.052C98.4076 213.554 98.6875 212.879 98.6875 212.174V164.362C98.6875 163.657 98.4076 162.981 97.9095 162.483C97.4114 161.985 96.7357 161.705 96.0312 161.705ZM26.9688 156.393C24.8553 156.393 22.8284 157.232 21.334 158.727C19.8396 160.221 19 162.248 19 164.362V212.174C19 214.288 19.8396 216.314 21.334 217.809C22.8284 219.303 24.8553 220.143 26.9688 220.143H96.0312C98.1447 220.143 100.172 219.303 101.666 217.809C103.16 216.314 104 214.288 104 212.174V164.362C104 162.248 103.16 160.221 101.666 158.727C100.172 157.232 98.1447 156.393 96.0312 156.393H26.9688Z" fill="#E9ECEF"/>
<path d="M75.5676 186.387C75.9622 185.994 76.4705 185.734 77.0206 185.645C77.5707 185.557 78.1347 185.643 78.6329 185.893L98.6982 196.236V214.83H24.3232V209.518L38.3801 197.012C38.8143 196.579 39.3848 196.31 39.9948 196.25C40.6048 196.19 41.2168 196.343 41.727 196.683L55.8582 206.102L75.5676 186.392V186.387Z" fill="#E9ECEF"/>
<path fill-rule="evenodd" clip-rule="evenodd" d="M42.917 182.955C43.9635 182.955 44.9997 182.749 45.9665 182.349C46.9333 181.948 47.8118 181.361 48.5518 180.621C49.2917 179.881 49.8787 179.003 50.2792 178.036C50.6796 177.069 50.8857 176.033 50.8857 174.987C50.8857 173.94 50.6796 172.904 50.2792 171.937C49.8787 170.97 49.2917 170.092 48.5518 169.352C47.8118 168.612 46.9333 168.025 45.9665 167.624C44.9997 167.224 43.9635 167.018 42.917 167.018C40.8035 167.018 38.7767 167.857 37.2822 169.352C35.7878 170.846 34.9482 172.873 34.9482 174.987C34.9482 177.1 35.7878 179.127 37.2822 180.621C38.7767 182.116 40.8035 182.955 42.917 182.955Z" fill="#E9ECEF"/>
<path d="M504 157.768H143C136.373 157.768 131 163.14 131 169.768C131 176.395 136.373 181.768 143 181.768H504C510.627 181.768 516 176.395 516 169.768C516 163.14 510.627 157.768 504 157.768Z" fill="#E9ECEF"/>
<path d="M504 194.768H143C136.373 194.768 131 200.14 131 206.768C131 213.395 136.373 218.768 143 218.768H504C510.627 218.768 516 213.395 516 206.768C516 200.14 510.627 194.768 504 194.768Z" fill="#E9ECEF"/>
<path d="M516 249.768H19V253.768H516V249.768Z" fill="#E9ECEF"/>
</svg>
