<svg width="12" height="10" viewBox="0 0 12 10" fill="none" xmlns="http://www.w3.org/2000/svg">
<g clip-path="url(#clip0_44_21)">
<path d="M6.0018 0C3.49684 0 2.76424 0.00215403 2.62184 0.012001C2.10778 0.0476194 1.7879 0.115087 1.43941 0.259714C1.17084 0.370878 0.959035 0.499735 0.749996 0.680365C0.369297 1.00978 0.138571 1.41504 0.0550477 1.89678C0.0144398 2.13064 0.00262663 2.17834 0.000227075 3.3729C-0.000695831 3.77109 0.000227075 4.29513 0.000227075 4.99804C0.000227075 7.08437 0.0029958 7.69442 0.0149936 7.81289C0.0565244 8.22985 0.134971 8.49218 0.301095 8.77913C0.618575 9.3284 1.22492 9.74075 1.93925 9.89461C2.18659 9.94769 2.45977 9.97692 2.81048 9.99077C2.95907 9.99615 4.47356 10 5.98897 10C7.50438 10 9.01979 9.99846 9.16469 9.99231C9.57077 9.97638 9.80657 9.94999 10.0673 9.89384C10.4215 9.81812 10.7516 9.67887 11.0345 9.48581C11.3175 9.29274 11.5464 9.05052 11.7055 8.77605C11.8683 8.49603 11.9509 8.2237 11.9883 7.82851C11.9964 7.74235 11.9999 6.36862 11.9999 4.99673C11.9999 3.62461 11.9962 2.25342 11.988 2.16726C11.9502 1.76569 11.8676 1.49567 11.6995 1.21026C11.5615 0.976621 11.4083 0.802145 11.1859 0.623745C10.789 0.307718 10.3036 0.115394 9.72499 0.04585C9.4447 0.0120779 9.38886 0.0020771 7.95467 0H6.0018Z" fill="url(#paint0_radial_44_21)"/>
<path d="M9.47918 0C5.52292 0 4.36587 0.00340201 4.14096 0.0189541C3.32907 0.0752088 2.82386 0.181765 2.27347 0.410186C1.8493 0.585754 1.51478 0.789267 1.18463 1.07455C0.583364 1.59482 0.218961 2.23488 0.087047 2.99572C0.022912 3.36508 0.00425452 3.44041 0.000464723 5.32707C-0.000992891 5.95595 0.000464723 6.78362 0.000464723 7.89377C0.000464723 11.1889 0.00483756 12.1524 0.0237865 12.3395C0.0893791 12.998 0.213276 13.4123 0.475647 13.8655C0.977066 14.733 1.93472 15.3843 3.06291 15.6273C3.45355 15.7111 3.885 15.7573 4.4389 15.7791C4.67357 15.7877 7.06552 15.7937 9.45892 15.7937C11.8523 15.7937 14.2457 15.7913 14.4746 15.7816C15.1159 15.7564 15.4883 15.7148 15.9001 15.6261C16.4595 15.5065 16.9809 15.2865 17.4277 14.9816C17.8746 14.6767 18.2362 14.2941 18.4874 13.8607C18.7446 13.4184 18.8751 12.9883 18.9341 12.3641C18.947 12.2281 18.9524 10.0584 18.9524 7.8917C18.9524 5.72462 18.9465 3.55899 18.9337 3.42291C18.8739 2.78868 18.7435 2.36221 18.4779 1.91145C18.26 1.54245 18.018 1.26689 17.6667 0.985126C17.04 0.486002 16.2733 0.182251 15.3595 0.0724143C14.9168 0.0190756 14.8286 0.00328051 12.5635 0H9.47918Z" fill="url(#paint1_radial_44_21)"/>
<path d="M5.99917 1.30762C4.79607 1.30762 4.64508 1.312 4.17255 1.32993C3.70095 1.34793 3.37904 1.41016 3.09736 1.50148C2.806 1.5958 2.55885 1.72196 2.31262 1.92729C2.0662 2.13253 1.91484 2.33855 1.80133 2.58134C1.6915 2.81621 1.61675 3.08461 1.59552 3.47757C1.57448 3.87145 1.56894 3.99738 1.56894 5.00024C1.56894 6.00309 1.57429 6.12856 1.5957 6.52244C1.61739 6.91555 1.69205 7.18388 1.80151 7.41867C1.91475 7.66154 2.06611 7.86756 2.31243 8.07281C2.55857 8.27821 2.80573 8.40468 3.0969 8.499C3.37876 8.59031 3.70076 8.65255 4.17227 8.67055C4.6448 8.68847 4.7957 8.69286 5.99871 8.69286C7.2019 8.69286 7.35243 8.68847 7.82495 8.67055C8.29656 8.65255 8.61884 8.59031 8.90069 8.499C9.19196 8.40468 9.43875 8.27821 9.68489 8.07281C9.9313 7.86756 10.0827 7.66154 10.1962 7.41875C10.3051 7.18388 10.3798 6.91548 10.402 6.52252C10.4232 6.12864 10.4287 6.00309 10.4287 5.00024C10.4287 3.99738 10.4232 3.87153 10.402 3.47765C10.3798 3.08454 10.3051 2.81621 10.1962 2.58142C10.0827 2.33855 9.9313 2.13253 9.68489 1.92729C9.43847 1.72188 9.19206 1.59572 8.90042 1.50148C8.61801 1.41016 8.29591 1.34793 7.82431 1.32993C7.35178 1.312 7.20135 1.30762 5.99788 1.30762H5.99917ZM5.60176 1.97306C5.71971 1.9729 5.85132 1.97306 5.99917 1.97306C7.18196 1.97306 7.32215 1.9766 7.78924 1.99429C8.22116 2.01075 8.45558 2.07091 8.61173 2.12146C8.81846 2.18838 8.96585 2.26839 9.12081 2.39763C9.27586 2.52687 9.37184 2.64996 9.45231 2.82228C9.51295 2.9523 9.58521 3.1477 9.60487 3.50773C9.6261 3.89699 9.63071 4.01392 9.63071 4.99939C9.63071 5.98486 9.6261 6.10179 9.60487 6.49106C9.58512 6.85109 9.51295 7.04649 9.45231 7.1765C9.37202 7.34882 9.27586 7.47152 9.12081 7.60069C8.96576 7.72993 8.81855 7.80994 8.61173 7.87687C8.45576 7.92764 8.22116 7.98764 7.78924 8.00411C7.32225 8.0218 7.18196 8.02565 5.99917 8.02565C4.81628 8.02565 4.67609 8.0218 4.2091 8.00411C3.77718 7.98749 3.54276 7.92733 3.38651 7.87679C3.17978 7.80986 3.03212 7.72985 2.87707 7.60061C2.72202 7.47137 2.62604 7.34859 2.54556 7.17619C2.48492 7.04618 2.41266 6.85078 2.393 6.49075C2.37178 6.10149 2.36753 5.98455 2.36753 4.99847C2.36753 4.01238 2.37178 3.89607 2.393 3.5068C2.41275 3.14677 2.48492 2.95137 2.54556 2.82121C2.62585 2.64888 2.72202 2.5258 2.87707 2.39656C3.03212 2.26731 3.17978 2.18731 3.38651 2.12022C3.54267 2.06945 3.77718 2.00945 4.2091 1.99291C4.61776 1.97752 4.77613 1.9729 5.60176 1.97214V1.97306ZM8.36384 2.58619C8.25869 2.58619 8.15591 2.61218 8.06848 2.66088C7.98106 2.70957 7.91292 2.77879 7.87269 2.85976C7.83246 2.94074 7.82195 3.02985 7.84247 3.11581C7.863 3.20177 7.91365 3.28072 7.98801 3.34269C8.06237 3.40465 8.15711 3.44684 8.26024 3.46392C8.36337 3.481 8.47027 3.4722 8.5674 3.43864C8.66453 3.40508 8.74754 3.34826 8.80593 3.27537C8.86432 3.20248 8.89547 3.11679 8.89543 3.02915C8.89543 2.78451 8.65732 2.58603 8.36384 2.58603V2.58619ZM5.99917 3.10392C4.74281 3.10392 3.7242 3.953 3.7242 5.00024C3.7242 6.04748 4.74281 6.89617 5.99917 6.89617C7.25552 6.89617 8.27386 6.04748 8.27386 5.00024C8.27386 3.953 7.25543 3.10392 5.99908 3.10392H5.99917ZM5.99917 3.76936C6.81465 3.76936 7.47582 4.32041 7.47582 5.00024C7.47582 5.67999 6.81465 6.23111 5.99917 6.23111C5.18359 6.23111 4.52252 5.67999 4.52252 5.00024C4.52252 4.32041 5.18359 3.76936 5.99917 3.76936V3.76936Z" fill="white"/>
</g>
<defs>
<radialGradient id="paint0_radial_44_21" cx="0" cy="0" r="1" gradientUnits="userSpaceOnUse" gradientTransform="translate(3.18734 10.7702) rotate(-90) scale(9.91074 11.0614)">
<stop stop-color="#FFDD55"/>
<stop offset="0.1" stop-color="#FFDD55"/>
<stop offset="0.5" stop-color="#FF543E"/>
<stop offset="1" stop-color="#C837AB"/>
</radialGradient>
<radialGradient id="paint1_radial_44_21" cx="0" cy="0" r="1" gradientUnits="userSpaceOnUse" gradientTransform="translate(-3.17483 1.13775) rotate(76.4931) scale(7.0559 34.32)">
<stop stop-color="#3771C8"/>
<stop offset="0.128" stop-color="#3771C8"/>
<stop offset="1" stop-color="#6600FF" stop-opacity="0"/>
</radialGradient>
<clipPath id="clip0_44_21">
<rect width="12" height="10" fill="white"/>
</clipPath>
</defs>
</svg>
