<svg width="12" height="10" viewBox="0 0 12 10" fill="none" xmlns="http://www.w3.org/2000/svg">
<g clip-path="url(#clip0_44_14)">
<path d="M2.72728 9.95123V4.82636L1.28939 3.37232L0 2.56543V9.04683C0 9.54724 0.366797 9.95123 0.818203 9.95123H2.72728V9.95123Z" fill="#4285F4"/>
<path d="M9.27271 9.95118H11.1818C11.6345 9.95118 12 9.54569 12 9.04678V2.56543L10.5395 3.48963L9.27271 4.82631V9.95118V9.95118Z" fill="#34A853"/>
<path d="M2.72727 4.82619L2.53162 2.82375L2.72727 0.907227L5.99999 3.62039L9.27271 0.907227L9.49157 2.72028L9.27271 4.82619L5.99999 7.53935L2.72727 4.82619Z" fill="#EA4335"/>
<path d="M9.27271 0.906927V4.82589L12 2.56496V1.3591C12 0.240709 10.845 -0.396855 10.0364 0.27387L9.27271 0.906927Z" fill="#FBBC04"/>
<path d="M0 2.56498L1.25433 3.60488L2.72728 4.82591V0.906951L1.96359 0.273894C1.15359 -0.396883 0 0.240733 0 1.35907V2.56493V2.56498Z" fill="#C5221F"/>
</g>
<defs>
<clipPath id="clip0_44_14">
<rect width="12" height="10" fill="white"/>
</clipPath>
</defs>
</svg>
