<svg width="12" height="10" viewBox="0 0 12 10" fill="none" xmlns="http://www.w3.org/2000/svg">
<path d="M3.77377 9.9527C8.30208 9.9527 10.7789 6.12322 10.7789 2.80236C10.7789 2.69356 10.7789 2.58528 10.7717 2.477C11.2535 2.12141 11.6694 1.68111 12 1.17671C11.5507 1.37995 11.074 1.51324 10.5859 1.57212C11.0999 1.25806 11.4845 0.764104 11.6683 0.182169C11.185 0.474881 10.6563 0.681166 10.1049 0.792121C9.73373 0.389237 9.24279 0.12246 8.70808 0.0330734C8.17337 -0.0563134 7.6247 0.0366728 7.14699 0.297643C6.66927 0.558613 6.28913 0.973018 6.06539 1.47673C5.84165 1.98045 5.78679 2.54539 5.9093 3.08413C4.93046 3.03404 3.97287 2.77439 3.09872 2.32203C2.22457 1.86968 1.45338 1.23475 0.835219 0.458437C0.520383 1.01166 0.423949 1.66658 0.565553 2.28983C0.707156 2.91308 1.07615 3.45782 1.59741 3.81313C1.20561 3.80127 0.822364 3.69338 0.48 3.49858V3.5304C0.480149 4.11061 0.676919 4.67292 1.03693 5.12193C1.39695 5.57094 1.89804 5.87901 2.45522 5.99389C2.09275 6.09479 1.71245 6.10954 1.34353 6.037C1.50085 6.53635 1.80714 6.97302 2.21956 7.28593C2.63198 7.59885 3.1299 7.77237 3.64369 7.78222C2.77188 8.48159 1.69491 8.86125 0.586078 8.86011C0.390192 8.85972 0.194497 8.84761 0 8.82384C1.12591 9.56136 2.43596 9.95256 3.77377 9.95073" fill="#1DA1F2"/>
</svg>
