<svg width="3" height="3" viewBox="0 0 3 3" fill="none" xmlns="http://www.w3.org/2000/svg">
<path d="M2.20759 1.83664C1.95714 2.09418 1.65457 2.15925 1.47962 1.9931L0.955022 1.49514C0.902815 1.44554 0.924236 1.32556 0.999004 1.24868C1.05374 1.19248 1.11971 1.17831 1.15791 1.21456L1.53826 1.57577C1.66964 1.70054 1.89695 1.65176 2.08518 1.4584C2.33554 1.20111 2.41324 0.796571 2.19611 0.698428C2.05162 0.633108 1.89149 0.597108 1.7238 0.598167C1.11352 0.60281 0.63551 1.09467 0.655383 1.6959C0.675256 2.29706 1.18544 2.78248 1.79572 2.77686C2.40591 2.77132 2.88352 2.28061 2.86389 1.67913C2.85175 1.42444 2.59478 1.43853 2.38946 1.64964L2.20759 1.83664Z" fill="#E2E2E2"/>
</svg>
