<svg width="173" height="14" viewBox="0 0 173 14" fill="none" xmlns="http://www.w3.org/2000/svg">
<path d="M0.968689 10.3655V1.06267H2.4893V10.3655H0.968689ZM10.7227 10.3655L9.79423 7.782H6.23746L5.3269 10.3655H3.72402L7.20424 1.02439H8.85842L12.3394 10.3655H10.7227ZM9.39351 6.47152L8.52123 3.93855C8.4577 3.76914 8.36892 3.50199 8.25408 3.13711C8.14413 2.77223 8.06756 2.50508 8.02521 2.33567C7.91037 2.85692 7.7434 3.42787 7.52268 4.04687L6.68217 6.47152H9.39351ZM15.0752 10.3655H13.5676V1.06267H18.8169V2.3479H15.0752V5.25634H18.5815V6.54728H15.0752V10.3655ZM27.9096 10.3655L25.2112 2.5963H25.1607C25.2324 3.7504 25.2691 4.83201 25.2691 5.84114V10.3655H23.8877V1.06267H26.0322L28.6157 8.46289H28.654L31.314 1.06267H33.4642V10.3655H32.0006V5.76538C32.0006 5.30276 32.0112 4.70006 32.0324 3.95808C32.0584 3.21529 32.0796 2.7657 32.0967 2.60933H32.0454L29.2518 10.3655H27.9096ZM35.9141 10.3655V1.06267H37.4347V9.06072H41.3735V10.3655H35.9141ZM48.7484 10.3655L47.8191 7.782H44.2624L43.3526 10.3655H41.7489L45.23 1.02439H46.8841L50.3644 10.3655H48.7484ZM47.4184 6.47152L46.5469 3.93855C46.4834 3.76914 46.3938 3.50199 46.2798 3.13711C46.169 2.77223 46.0925 2.50508 46.0501 2.33567C45.9361 2.85692 45.7683 3.42787 45.5476 4.04687L44.7079 6.47152H47.4184ZM60.7488 10.3655L59.8203 7.782H56.2627L55.3529 10.3655H53.7493L57.2303 1.02439H58.8845L62.3655 10.3655H60.7488ZM59.4188 6.47152L58.5473 3.93855C58.4837 3.76914 58.395 3.50199 58.2801 3.13711C58.1702 2.77223 58.0936 2.50508 58.0513 2.33567C57.9364 2.85692 57.7686 3.42787 57.5487 4.04687L56.7082 6.47152H59.4188ZM66.2725 10.4925C65.2071 10.4925 64.3968 10.183 63.8413 9.56404C63.2899 8.94016 63.0146 8.04751 63.0146 6.88527C63.0146 5.70103 63.3029 4.79128 63.8796 4.15519C64.4611 3.51909 65.2984 3.20064 66.393 3.20064C67.135 3.20064 67.8037 3.33828 68.3974 3.61438L67.9454 4.81734C67.3134 4.57056 66.7921 4.44759 66.38 4.44759C65.1632 4.44759 64.554 5.25634 64.554 6.87224C64.554 7.66146 64.7046 8.25521 65.006 8.65348C65.3114 9.0485 65.7569 9.24559 66.3417 9.24559C67.0079 9.24559 67.6383 9.08025 68.2321 8.74958V10.0535C67.9649 10.2107 67.6782 10.3231 67.3728 10.3907C67.0715 10.4591 66.7049 10.4925 66.2725 10.4925ZM72.7239 10.4925C71.6593 10.4925 70.8489 10.183 70.2935 9.56404C69.7421 8.94016 69.466 8.04751 69.466 6.88527C69.466 5.70103 69.7551 4.79128 70.3318 4.15519C70.9125 3.51909 71.7506 3.20064 72.8452 3.20064C73.5872 3.20064 74.2558 3.33828 74.8496 3.61438L74.3976 4.81734C73.7655 4.57056 73.2435 4.44759 72.8322 4.44759C71.6145 4.44759 71.0061 5.25634 71.0061 6.87224C71.0061 7.66146 71.1568 8.25521 71.4582 8.65348C71.7636 9.0485 72.2091 9.24559 72.7939 9.24559C73.4601 9.24559 74.0897 9.08025 74.6843 8.74958V10.0535C74.4171 10.2107 74.1304 10.3231 73.825 10.3907C73.5236 10.4591 73.1571 10.4925 72.7239 10.4925ZM79.9082 3.20064C80.2088 3.20064 80.4572 3.22182 80.6527 3.26417L80.5061 4.65772C80.2943 4.60722 80.0736 4.58116 79.8447 4.58116C79.2461 4.58116 78.7607 4.77663 78.3868 5.16676C78.0179 5.55689 77.8338 6.0643 77.8338 6.68737V10.3655H76.3384V3.3277H77.5088L77.7067 4.56893H77.7825C78.0162 4.14867 78.3192 3.81556 78.693 3.56959C79.0701 3.32362 79.4749 3.20064 79.9082 3.20064ZM85.0369 10.4925C83.9423 10.4925 83.0855 10.1749 82.4657 9.53799C81.8507 8.89782 81.5437 8.01738 81.5437 6.89749C81.5437 5.74828 81.8296 4.84423 82.4021 4.18695C82.9747 3.52968 83.7615 3.20064 84.7633 3.20064C85.6917 3.20064 86.4256 3.48244 86.9648 4.04687C87.5031 4.61129 87.7727 5.38746 87.7727 6.37622V7.18418H83.083C83.1042 7.8667 83.2891 8.39285 83.6369 8.76181C83.9846 9.12669 84.4741 9.30912 85.1062 9.30912C85.5224 9.30912 85.9084 9.27085 86.2643 9.19429C86.6251 9.11447 87.0112 8.98252 87.4225 8.80008V10.0153C87.0576 10.1896 86.6887 10.3125 86.3156 10.3842C85.9426 10.4567 85.5158 10.4925 85.0369 10.4925ZM84.7633 4.33355C84.2876 4.33355 83.9065 4.48424 83.6173 4.78478C83.3331 5.08613 83.1637 5.52511 83.1083 6.10257H86.3026C86.2945 5.52104 86.1544 5.08206 85.8831 4.78478C85.6111 4.48424 85.2381 4.33355 84.7633 4.33355ZM91.845 10.4925C90.967 10.4925 90.2821 10.1749 89.7893 9.53799C89.2974 8.9019 89.0514 8.00924 89.0514 6.85922C89.0514 5.70593 89.2998 4.80838 89.7958 4.16821C90.2967 3.52316 90.9882 3.20064 91.8703 3.20064C92.7955 3.20064 93.4992 3.54189 93.983 4.22523H94.0596C93.9871 3.72026 93.9512 3.32199 93.9512 3.02879V0.464844H95.4531V10.3655H94.2819L94.0213 9.4427H93.9512C93.4715 10.1431 92.7694 10.4925 91.845 10.4925ZM92.2458 9.28387C92.8607 9.28387 93.3086 9.11202 93.5888 8.76832C93.8682 8.42054 94.0123 7.85855 94.0213 7.08237V6.87224C94.0213 5.98529 93.8771 5.3557 93.5888 4.98268C93.2997 4.60884 92.8485 4.42233 92.2327 4.42233C91.7074 4.42233 91.3018 4.63654 91.0175 5.06495C90.7333 5.48928 90.5916 6.09605 90.5916 6.88527C90.5916 7.66552 90.7292 8.26172 91.0053 8.67302C91.2806 9.08025 91.6944 9.28387 92.2458 9.28387ZM99.0864 10.3655H97.5911V3.3277H99.0864V10.3655ZM97.5015 1.46339C97.5015 1.19624 97.574 0.991002 97.7181 0.846028C97.8664 0.701867 98.0765 0.630182 98.3477 0.630182C98.6108 0.630182 98.8144 0.701867 98.9586 0.846028C99.1076 0.991002 99.1817 1.19624 99.1817 1.46339C99.1817 1.71832 99.1076 1.91949 98.9586 2.06772C98.8144 2.2127 98.6108 2.28437 98.3477 2.28437C98.0765 2.28437 97.8664 2.2127 97.7181 2.06772C97.574 1.91949 97.5015 1.71832 97.5015 1.46339ZM103.852 9.28387C104.217 9.28387 104.582 9.22686 104.947 9.11202V10.2384C104.781 10.3101 104.567 10.3696 104.304 10.416C104.045 10.4673 103.775 10.4925 103.496 10.4925C102.079 10.4925 101.37 9.74649 101.37 8.25276V4.46061H100.41V3.79926L101.44 3.25194L101.949 1.7631H102.872V3.3277H104.876V4.46061H102.872V8.22751C102.872 8.58832 102.961 8.85547 103.139 9.02895C103.322 9.19918 103.559 9.28387 103.852 9.28387ZM110.762 10.3655L110.463 9.38568H110.412C110.073 9.81409 109.731 10.1065 109.388 10.2637C109.044 10.416 108.603 10.4925 108.064 10.4925C107.373 10.4925 106.832 10.306 106.442 9.933C106.056 9.55916 105.863 9.0314 105.863 8.34806C105.863 7.62319 106.132 7.07585 106.671 6.7069C107.21 6.33795 108.03 6.13596 109.133 6.10257L110.349 6.06429V5.68882C110.349 5.23924 110.242 4.90369 110.03 4.68297C109.823 4.45818 109.498 4.34578 109.057 4.34578C108.696 4.34578 108.351 4.39871 108.019 4.5054C107.689 4.61128 107.37 4.73671 107.065 4.88087L106.582 3.81149C106.963 3.61194 107.381 3.46127 107.835 3.35946C108.289 3.25358 108.717 3.20064 109.121 3.20064C110.016 3.20064 110.69 3.3961 111.144 3.78623C111.602 4.17636 111.831 4.78965 111.831 5.62529V10.3655H110.762ZM108.535 9.3474C109.078 9.3474 109.513 9.19673 109.84 8.89538C110.17 8.58995 110.336 8.16398 110.336 7.61666V7.00581L109.433 7.04409C108.728 7.06934 108.215 7.18826 107.892 7.40002C107.574 7.60853 107.415 7.9286 107.415 8.36108C107.415 8.67465 107.509 8.91898 107.695 9.09328C107.882 9.26269 108.162 9.3474 108.535 9.3474ZM116.54 9.28387C116.904 9.28387 117.269 9.22686 117.634 9.11202V10.2384C117.469 10.3101 117.255 10.3696 116.992 10.416C116.733 10.4673 116.463 10.4925 116.184 10.4925C114.767 10.4925 114.058 9.74649 114.058 8.25276V4.46061H113.098V3.79926L114.128 3.25194L114.637 1.7631H115.56V3.3277H117.564V4.46061H115.56V8.22751C115.56 8.58832 115.649 8.85547 115.827 9.02895C116.009 9.19918 116.247 9.28387 116.54 9.28387ZM120.542 10.3655H119.047V3.3277H120.542V10.3655ZM118.958 1.46339C118.958 1.19624 119.03 0.991002 119.174 0.846028C119.323 0.701867 119.533 0.630182 119.804 0.630182C120.067 0.630182 120.271 0.701867 120.415 0.846028C120.563 0.991002 120.638 1.19624 120.638 1.46339C120.638 1.71832 120.563 1.91949 120.415 2.06772C120.271 2.2127 120.067 2.28437 119.804 2.28437C119.533 2.28437 119.323 2.2127 119.174 2.06772C119.03 1.91949 118.958 1.71832 118.958 1.46339ZM128.928 6.83396C128.928 7.98399 128.634 8.88071 128.044 9.52576C127.454 10.17 126.633 10.4925 125.582 10.4925C124.925 10.4925 124.343 10.3443 123.838 10.047C123.333 9.75057 122.945 9.32378 122.674 8.76832C122.402 8.21285 122.267 7.5678 122.267 6.83396C122.267 5.6929 122.559 4.80187 123.145 4.1617C123.73 3.52072 124.555 3.20064 125.62 3.20064C126.638 3.20064 127.444 3.52968 128.037 4.18695C128.632 4.84015 128.928 5.72222 128.928 6.83396ZM123.806 6.83396C123.806 8.45882 124.407 9.27085 125.607 9.27085C126.795 9.27085 127.389 8.45882 127.389 6.83396C127.389 5.22621 126.79 4.42233 125.594 4.42233C124.967 4.42233 124.511 4.63002 124.227 5.04621C123.946 5.46158 123.806 6.05778 123.806 6.83396ZM136.844 10.3655H135.342V6.03904C135.342 5.49579 135.232 5.0902 135.012 4.82306C134.795 4.55591 134.45 4.42233 133.974 4.42233C133.342 4.42233 132.88 4.60884 132.587 4.98268C132.295 5.3557 132.148 5.98122 132.148 6.85922V10.3655H130.653V3.3277H131.824L132.034 4.25048H132.11C132.322 3.91574 132.624 3.65674 133.014 3.4743C133.404 3.29186 133.836 3.20064 134.312 3.20064C136 3.20064 136.844 4.0599 136.844 5.77761V10.3655ZM142.469 1.06267H145.231C146.512 1.06267 147.436 1.24917 148.005 1.62301C148.577 1.99603 148.864 2.58571 148.864 3.39203C148.864 3.93446 148.724 4.38649 148.444 4.7473C148.164 5.10729 147.761 5.33452 147.235 5.42819V5.49172C147.888 5.6147 148.367 5.85823 148.673 6.22312C148.983 6.58392 149.138 7.07341 149.138 7.69322C149.138 8.52886 148.845 9.18369 148.26 9.65934C147.678 10.1301 146.868 10.3655 145.829 10.3655H142.469V1.06267ZM143.99 4.90612H145.453C146.09 4.90612 146.554 4.80594 146.847 4.60721C147.14 4.40359 147.286 4.0599 147.286 3.5761C147.286 3.13955 147.127 2.82354 146.808 2.62807C146.495 2.4326 145.994 2.33567 145.307 2.33567H143.99V4.90612ZM143.99 6.14005V9.08677H145.606C146.242 9.08677 146.722 8.96542 147.044 8.72353C147.37 8.47756 147.534 8.09151 147.534 7.56536C147.534 7.08238 147.369 6.72401 147.038 6.49026C146.707 6.25732 146.204 6.14005 145.53 6.14005H143.99ZM157.155 6.83396C157.155 7.98399 156.86 8.88071 156.271 9.52576C155.681 10.17 154.86 10.4925 153.808 10.4925C153.151 10.4925 152.569 10.3443 152.064 10.047C151.56 9.75057 151.171 9.32378 150.9 8.76832C150.628 8.21285 150.493 7.5678 150.493 6.83396C150.493 5.6929 150.785 4.80187 151.371 4.1617C151.957 3.52072 152.782 3.20064 153.846 3.20064C154.864 3.20064 155.671 3.52968 156.264 4.18695C156.858 4.84015 157.155 5.72222 157.155 6.83396ZM152.032 6.83396C152.032 8.45882 152.633 9.27085 153.833 9.27085C155.021 9.27085 155.615 8.45882 155.615 6.83396C155.615 5.22621 155.017 4.42233 153.821 4.42233C153.193 4.42233 152.737 4.63002 152.453 5.04621C152.172 5.46158 152.032 6.05778 152.032 6.83396ZM161.253 10.4925C160.375 10.4925 159.689 10.1749 159.197 9.53799C158.705 8.9019 158.459 8.00924 158.459 6.85922C158.459 5.70593 158.708 4.80838 159.204 4.16821C159.705 3.52316 160.396 3.20064 161.278 3.20064C162.203 3.20064 162.907 3.54189 163.391 4.22523H163.467C163.395 3.72026 163.359 3.32199 163.359 3.02879V0.464844H164.86V10.3655H163.69L163.429 9.4427H163.359C162.879 10.1431 162.177 10.4925 161.253 10.4925ZM161.654 9.28387C162.269 9.28387 162.716 9.11202 162.996 8.76832C163.276 8.42054 163.42 7.85855 163.429 7.08237V6.87224C163.429 5.98529 163.284 5.3557 162.996 4.98268C162.708 4.60884 162.256 4.42233 161.641 4.42233C161.114 4.42233 160.71 4.63654 160.425 5.06495C160.141 5.48928 159.999 6.09605 159.999 6.88527C159.999 7.66552 160.137 8.26172 160.412 8.67302C160.688 9.08025 161.102 9.28387 161.654 9.28387ZM165.93 3.3277H167.558L168.99 7.31775C169.206 7.88625 169.35 8.42053 169.423 8.92143H169.473C169.512 8.68768 169.582 8.40587 169.683 8.0752C169.785 7.73964 170.324 6.15715 171.3 3.3277H172.916L169.907 11.3005C169.359 12.7641 168.447 13.4963 167.17 13.4963C166.839 13.4963 166.517 13.4596 166.203 13.388V12.2045C166.428 12.255 166.685 12.2811 166.973 12.2811C167.695 12.2811 168.201 11.8633 168.493 11.0268L168.755 10.3655L165.93 3.3277Z" fill="#5C5C5C"/>
</svg>
