<svg width="25" height="118" viewBox="0 0 25 118" fill="none" xmlns="http://www.w3.org/2000/svg">
<path d="M11.995 116.338C12.3126 116.656 12.829 116.656 13.1466 116.338L18.3299 111.154C18.6483 110.837 18.6483 110.32 18.3299 110.003C18.0122 109.684 17.4959 109.684 17.1782 110.003L12.5708 114.61L7.96335 110.003C7.64571 109.684 7.12934 109.684 6.8117 110.003C6.49325 110.32 6.49325 110.837 6.8117 111.154L11.995 116.338ZM11.7563 0.10791V2.51709H13.3853V0.10791H11.7563ZM11.7563 7.33628V12.1555H13.3853V7.33628H11.7563ZM11.7563 16.9738V21.793H13.3853V16.9738H11.7563ZM11.7563 26.6122V31.4306H13.3853V26.6122H11.7563ZM11.7563 36.2498V41.069H13.3853V36.2498H11.7563ZM11.7563 45.8873V50.7065H13.3853V45.8873H11.7563ZM11.7563 55.5257V60.3441H13.3853V55.5257H11.7563ZM11.7563 65.1633V69.9825H13.3853V65.1633H11.7563ZM11.7563 74.8008V79.62H13.3853V74.8008H11.7563ZM11.7563 84.4392V89.2576H13.3853V84.4392H11.7563ZM11.7563 94.0768V98.896H13.3853V94.0768H11.7563ZM11.7563 103.714V108.534H13.3853V103.714H11.7563ZM11.7563 113.353V115.762H13.3853V113.353H11.7563ZM11.4191 116.914C12.0552 117.55 13.0864 117.55 13.7224 116.914L24.089 106.547C24.725 105.911 24.725 104.88 24.089 104.244C23.4529 103.608 22.4217 103.608 21.7856 104.244L12.5708 113.459L3.35594 104.244C2.71985 103.608 1.68873 103.608 1.05263 104.244C0.416537 104.88 0.416537 105.911 1.05263 106.547L11.4191 116.914ZM10.9419 0.10791V2.51709H14.1997V0.10791H10.9419ZM10.9419 7.33628V12.1555H14.1997V7.33628H10.9419ZM10.9419 16.9738V21.793H14.1997V16.9738H10.9419ZM10.9419 26.6122V31.4306H14.1997V26.6122H10.9419ZM10.9419 36.2498V41.069H14.1997V36.2498H10.9419ZM10.9419 45.8873V50.7065H14.1997V45.8873H10.9419ZM10.9419 55.5257V60.3441H14.1997V55.5257H10.9419ZM10.9419 65.1633V69.9825H14.1997V65.1633H10.9419ZM10.9419 74.8008V79.62H14.1997V74.8008H10.9419ZM10.9419 84.4392V89.2576H14.1997V84.4392H10.9419ZM10.9419 94.0768V98.896H14.1997V94.0768H10.9419ZM10.9419 103.714V108.534H14.1997V103.714H10.9419ZM10.9419 113.353V115.762H14.1997V113.353H10.9419Z" fill="#9B9B9B"/>
</svg>
