<svg width="81" height="33" viewBox="0 0 81 33" fill="none" xmlns="http://www.w3.org/2000/svg">
<path d="M4.86217 2.36074C4.11987 2.36074 3.54502 2.64067 3.13779 3.20062C2.73056 3.75633 2.52694 4.53267 2.52694 5.52949C2.52694 7.60385 3.30541 8.641 4.86217 8.641C5.51546 8.641 6.30663 8.4777 7.23561 8.1511V9.80543C6.47205 10.1236 5.61938 10.2826 4.6777 10.2826C3.32447 10.2826 2.28945 9.87328 1.57255 9.05458C0.855662 8.23165 0.497215 7.05239 0.497215 5.51679C0.497215 4.54962 0.673222 3.7033 1.02532 2.97794C1.37741 2.24834 1.88221 1.69052 2.53973 1.30446C3.20148 0.914168 3.97563 0.719106 4.86217 0.719106C5.76574 0.719106 6.67355 0.937548 7.58558 1.37451L6.94924 2.97794C6.60138 2.81252 6.25149 2.66828 5.8994 2.54521C5.5473 2.42223 5.20156 2.36074 4.86217 2.36074ZM12.0142 4.28874C11.6028 4.28874 11.2803 4.42019 11.0471 4.68318C10.8137 4.94202 10.6801 5.31106 10.6462 5.79037H13.3695C13.361 5.31106 13.2359 4.94202 12.9941 4.68318C12.7523 4.42019 12.4257 4.28874 12.0142 4.28874ZM12.2878 10.2826C11.1425 10.2826 10.2474 9.96662 9.6026 9.3346C8.95787 8.70249 8.63543 7.80747 8.63543 6.64938C8.63543 5.45741 8.93238 4.53691 9.52629 3.88786C10.1244 3.23458 10.9495 2.90798 12.0015 2.90798C13.0068 2.90798 13.7895 3.19426 14.3495 3.76691C14.9094 4.33964 15.1893 5.13073 15.1893 6.14034V7.08211H10.6016C10.6228 7.6335 10.7862 8.06411 11.0916 8.37377C11.397 8.68343 11.8254 8.83826 12.3769 8.83826C12.8053 8.83826 13.2104 8.79371 13.5923 8.70469C13.974 8.61559 14.3728 8.47346 14.7885 8.27831V9.78003C14.4492 9.94968 14.0864 10.0748 13.7004 10.1554C13.3144 10.2403 12.8435 10.2826 12.2878 10.2826ZM20.7379 2.90798C21.0009 2.90798 21.2194 2.92704 21.3933 2.96523L21.2469 4.78499C21.09 4.74264 20.8991 4.72139 20.6743 4.72139C20.055 4.72139 19.5713 4.88045 19.2235 5.19866C18.8799 5.51679 18.7081 5.96222 18.7081 6.53487V10.1554H16.7674V3.04155H18.2372L18.5236 4.23784H18.6191C18.8396 3.83907 19.1366 3.51883 19.5098 3.27702C19.8873 3.03097 20.2967 2.90798 20.7379 2.90798ZM25.6819 8.73645C26.0213 8.73645 26.4285 8.66225 26.9036 8.51378V9.95815C26.4201 10.1745 25.8262 10.2826 25.122 10.2826C24.3457 10.2826 23.7794 10.0876 23.4231 9.69728C23.071 9.30275 22.895 8.71316 22.895 7.92834V4.49871H21.9659V3.67789L23.0349 3.02885L23.5949 1.52713H24.8357V3.04155H26.8273V4.49871H24.8357V7.92834C24.8357 8.20412 24.912 8.40774 25.0647 8.53919C25.2217 8.67073 25.4274 8.73645 25.6819 8.73645ZM28.2653 1.20265C28.2653 0.570627 28.6174 0.254619 29.3216 0.254619C30.0258 0.254619 30.3778 0.570627 30.3778 1.20265C30.3778 1.50384 30.2888 1.7393 30.1106 1.90896C29.9367 2.07437 29.6737 2.15713 29.3216 2.15713C28.6174 2.15713 28.2653 1.83899 28.2653 1.20265ZM30.2888 10.1554H28.3481V3.04155H30.2888V10.1554ZM36.2636 4.49871H34.5838V10.1554H32.6431V4.49871H31.5741V3.5633L32.6431 3.04155V2.51981C32.6431 1.70958 32.8425 1.11778 33.2412 0.744515C33.64 0.371246 34.2784 0.18457 35.1564 0.18457C35.8267 0.18457 36.4227 0.284263 36.9445 0.483644L36.4482 1.90896C36.0579 1.78597 35.6973 1.7244 35.3664 1.7244C35.0907 1.7244 34.8913 1.80715 34.7683 1.97257C34.6453 2.13375 34.5838 2.3416 34.5838 2.59621V3.04155H36.2636V4.49871ZM37.2944 1.20265C37.2944 0.570627 37.6465 0.254619 38.3507 0.254619C39.0549 0.254619 39.407 0.570627 39.407 1.20265C39.407 1.50384 39.3179 1.7393 39.1397 1.90896C38.9658 2.07437 38.7028 2.15713 38.3507 2.15713C37.6465 2.15713 37.2944 1.83899 37.2944 1.20265ZM39.3179 10.1554H37.3772V3.04155H39.3179V10.1554ZM44.2428 10.2826C42.0285 10.2826 40.9214 9.06737 40.9214 6.63668C40.9214 5.42769 41.2226 4.50506 41.8249 3.86872C42.4272 3.22822 43.2905 2.90798 44.4146 2.90798C45.2376 2.90798 45.9757 3.06916 46.629 3.39153L46.0562 4.89324C45.7508 4.77017 45.4667 4.67048 45.2037 4.59416C44.9407 4.51353 44.6776 4.47322 44.4146 4.47322C43.405 4.47322 42.9002 5.19011 42.9002 6.62398C42.9002 8.01533 43.405 8.71104 44.4146 8.71104C44.788 8.71104 45.1336 8.66225 45.4518 8.56468C45.77 8.46287 46.0881 8.30593 46.4062 8.09384V9.75453C46.0923 9.95391 45.7742 10.0918 45.4518 10.1681C45.1336 10.2445 44.7306 10.2826 44.2428 10.2826ZM52.5784 10.1554L52.2029 9.18824H52.152C51.8254 9.5997 51.4882 9.88607 51.1403 10.0473C50.7968 10.2042 50.3471 10.2826 49.7914 10.2826C49.1084 10.2826 48.5697 10.0876 48.1752 9.69728C47.7849 9.30698 47.5898 8.75128 47.5898 8.03015C47.5898 7.27506 47.8528 6.71935 48.3788 6.3631C48.9091 6.00246 49.7065 5.80307 50.7713 5.76496L52.0057 5.72676V5.41499C52.0057 4.69386 51.6366 4.33329 50.8986 4.33329C50.3301 4.33329 49.662 4.50506 48.8942 4.84868L48.2516 3.53789C49.0703 3.10948 49.9781 2.89519 50.9749 2.89519C51.9294 2.89519 52.6611 3.10304 53.1701 3.51883C53.6792 3.93453 53.9337 4.56656 53.9337 5.41499V10.1554H52.5784ZM52.0057 6.85936L51.2549 6.88485C50.6907 6.90179 50.2707 7.00359 49.995 7.19027C49.7192 7.37686 49.5814 7.66111 49.5814 8.04285C49.5814 8.59009 49.8953 8.86375 50.5231 8.86375C50.9728 8.86375 51.3312 8.73433 51.5984 8.47558C51.87 8.21682 52.0057 7.8732 52.0057 7.44479V6.85936ZM58.9352 8.73645C59.274 8.73645 59.6813 8.66225 60.1569 8.51378V9.95815C59.6731 10.1745 59.0794 10.2826 58.375 10.2826C57.5988 10.2826 57.0325 10.0876 56.6761 9.69728C56.324 9.30275 56.148 8.71316 56.148 7.92834V4.49871H55.219V3.67789L56.288 3.02885L56.8479 1.52713H58.0888V3.04155H60.0804V4.49871H58.0888V7.92834C58.0888 8.20412 58.1651 8.40774 58.3178 8.53919C58.475 8.67073 58.6803 8.73645 58.9352 8.73645ZM61.5187 1.20265C61.5187 0.570627 61.8706 0.254619 62.5742 0.254619C63.2788 0.254619 63.6306 0.570627 63.6306 1.20265C63.6306 1.50384 63.5418 1.7393 63.3635 1.90896C63.19 2.07437 62.9269 2.15713 62.5742 2.15713C61.8706 2.15713 61.5187 1.83899 61.5187 1.20265ZM63.5418 10.1554H61.601V3.04155H63.5418V10.1554ZM67.1304 6.58578C67.1304 7.28996 67.2452 7.8223 67.4741 8.18286C67.7078 8.54343 68.0849 8.72375 68.607 8.72375C69.1242 8.72375 69.4956 8.54554 69.7204 8.18921C69.9492 7.82865 70.0641 7.2942 70.0641 6.58578C70.0641 5.88159 69.9492 5.35349 69.7204 5.0014C69.4915 4.6493 69.116 4.47322 68.594 4.47322C68.0768 4.47322 67.7029 4.6493 67.4741 5.0014C67.2452 5.34925 67.1304 5.87736 67.1304 6.58578ZM72.0489 6.58578C72.0489 7.74387 71.7435 8.64947 71.1326 9.30275C70.5218 9.95603 69.6715 10.2826 68.5817 10.2826C67.8984 10.2826 67.2957 10.1342 66.7744 9.83728C66.2524 9.53609 65.8516 9.10549 65.5715 8.54554C65.2913 7.9856 65.152 7.3324 65.152 6.58578C65.152 5.42346 65.455 4.51989 66.0618 3.87516C66.6686 3.23035 67.5205 2.90798 68.6192 2.90798C69.3025 2.90798 69.9044 3.05646 70.4265 3.35333C70.9486 3.65028 71.3493 4.07666 71.6295 4.63237C71.9088 5.18799 72.0489 5.83916 72.0489 6.58578ZM80.2196 10.1554H78.2788V6.00034C78.2788 5.48706 78.1875 5.1032 78.0051 4.84868C77.8227 4.58993 77.5319 4.46051 77.1336 4.46051C76.5904 4.46051 76.1978 4.64295 75.9559 5.00775C75.714 5.36832 75.5935 5.96858 75.5935 6.80845V10.1554H73.6526V3.04155H75.1349L75.3964 3.95147H75.5047C75.7205 3.60785 76.0178 3.3491 76.3949 3.17521C76.7769 2.997 77.2094 2.90798 77.6932 2.90798C78.5207 2.90798 79.1478 3.13277 79.577 3.58244C80.0054 4.02787 80.2196 4.6726 80.2196 5.51679V10.1554ZM27.0882 19.5854H29.9834C31.3026 19.5854 32.2591 19.7742 32.853 20.1517C33.4512 20.525 33.7503 21.1214 33.7503 21.9399C33.7503 22.4954 33.6187 22.9515 33.3557 23.3074C33.097 23.6641 32.7512 23.8783 32.3186 23.9508V24.0143C32.9082 24.1455 33.3324 24.3914 33.5912 24.7522C33.8542 25.1131 33.9856 25.592 33.9856 26.1906C33.9856 27.0385 33.6781 27.7006 33.063 28.1754C32.4522 28.6503 31.6208 28.8881 30.5687 28.8881H27.0882V19.5854ZM29.0607 23.2699H30.206C30.7406 23.2699 31.1265 23.1868 31.3641 23.0215C31.6059 22.8562 31.7268 22.5825 31.7268 22.2005C31.7268 21.8446 31.5953 21.5897 31.3323 21.4374C31.0735 21.2802 30.6621 21.2012 30.0979 21.2012H29.0607V23.2699ZM29.0607 24.8345V27.2592H30.346C30.889 27.2592 31.2898 27.1549 31.5487 26.9472C31.8074 26.7395 31.9368 26.4211 31.9368 25.9927C31.9368 25.2206 31.3853 24.8345 30.2824 24.8345H29.0607ZM37.2371 25.3183C37.2371 26.0228 37.3517 26.5547 37.5808 26.9155C37.8141 27.2763 38.1916 27.4563 38.7134 27.4563C39.2309 27.4563 39.6021 27.2779 39.8269 26.922C40.056 26.5612 40.1705 26.0269 40.1705 25.3183C40.1705 24.6146 40.056 24.086 39.8269 23.7342C39.5979 23.3823 39.2224 23.2056 38.7007 23.2056C38.1831 23.2056 37.8098 23.3823 37.5808 23.7342C37.3517 24.0819 37.2371 24.6097 37.2371 25.3183ZM42.1558 25.3183C42.1558 26.4765 41.8504 27.3822 41.2395 28.0354C40.6287 28.6886 39.7781 29.0152 38.688 29.0152C38.0049 29.0152 37.4026 28.8669 36.8808 28.5696C36.3591 28.2691 35.9582 27.8383 35.6783 27.2779C35.3982 26.7184 35.2582 26.0652 35.2582 25.3183C35.2582 24.1561 35.5616 23.2528 36.1682 22.6078C36.7748 21.9627 37.6274 21.641 38.7261 21.641C39.4091 21.641 40.0115 21.7892 40.5332 22.0857C41.055 22.383 41.4558 22.8089 41.7358 23.3652C42.0158 23.9207 42.1558 24.5722 42.1558 25.3183ZM46.0118 29.0152C45.1761 29.0152 44.5185 28.691 44.0392 28.0419C43.5642 27.3927 43.3266 26.4936 43.3266 25.3436C43.3266 24.1772 43.5684 23.2699 44.0519 22.6208C44.5398 21.9676 45.21 21.641 46.0627 21.641C46.9577 21.641 47.6407 21.9888 48.1116 22.6843H48.1752C48.0776 22.1541 48.0288 21.6809 48.0288 21.2655V18.9873H49.9759V28.8881H48.4869L48.1116 27.9653H48.0288C47.5877 28.6657 46.9153 29.0152 46.0118 29.0152ZM46.6926 27.4693C47.1889 27.4693 47.5516 27.3251 47.7806 27.0368C48.014 26.7477 48.1412 26.2582 48.1625 25.5667V25.3566C48.1625 24.5934 48.0437 24.0461 47.8061 23.7146C47.5728 23.3839 47.191 23.2186 46.6607 23.2186C46.2281 23.2186 45.8908 23.4035 45.649 23.7724C45.4115 24.1373 45.2928 24.6692 45.2928 25.3696C45.2928 26.0692 45.4136 26.5954 45.6555 26.9472C45.8972 27.295 46.2429 27.4693 46.6926 27.4693ZM50.9876 21.7746H53.1129L54.4555 25.7768C54.57 26.1246 54.6484 26.5359 54.6909 27.0108H54.7291C54.7758 26.5742 54.867 26.1629 55.0027 25.7768L56.3198 21.7746H58.4005L55.3908 29.7979C55.1151 30.5406 54.7206 31.0961 54.2073 31.4651C53.6983 31.834 53.1023 32.0189 52.4193 32.0189C52.0842 32.0189 51.7554 31.9823 51.433 31.9106V30.3704C51.6664 30.4258 51.9209 30.4535 52.1966 30.4535C52.5402 30.4535 52.8393 30.3476 53.0938 30.135C53.3525 29.9274 53.554 29.6113 53.6983 29.187L53.8128 28.8376L50.9876 21.7746Z" fill="#5C5C5C"/>
</svg>
