<svg width="5" height="5" viewBox="0 0 5 5" fill="none" xmlns="http://www.w3.org/2000/svg">
<path d="M3.59476 2.91123C3.17368 3.34388 2.66544 3.45318 2.37142 3.17414L1.49017 2.33752C1.40221 2.25421 1.43805 2.05254 1.56429 1.92345C1.65551 1.82905 1.76709 1.80519 1.83061 1.86611L2.46997 2.47297C2.69069 2.68261 3.07269 2.60068 3.38871 2.27579C3.80897 1.84355 3.9401 1.16388 3.57522 0.999032C3.33251 0.889323 3.06292 0.828891 2.78193 0.830602C1.75652 0.838421 0.953452 1.66478 0.986845 2.67471C1.02024 3.68473 1.87705 4.50017 2.90246 4.49081C3.92787 4.48152 4.73012 3.65712 4.69673 2.64661C4.67636 2.21877 4.2447 2.24239 3.90018 2.59709L3.59476 2.91123Z" fill="#CEE7FD"/>
</svg>
