<svg width="5" height="5" viewBox="0 0 5 5" fill="none" xmlns="http://www.w3.org/2000/svg">
<path d="M2.94687 2.91123C2.52604 3.34388 2.01773 3.45318 1.72387 3.17414L0.842536 2.33752C0.754819 2.25421 0.790823 2.05254 0.916413 1.92345C1.00828 1.82905 1.11921 1.80519 1.18339 1.86611L1.82234 2.47297C2.04314 2.68261 2.42488 2.60068 2.74114 2.27579C3.16172 1.84355 3.29229 1.16388 2.92749 0.999032C2.68478 0.889323 2.41576 0.828891 2.13403 0.830602C1.10887 0.838421 0.305808 1.66478 0.339119 2.67471C0.372431 3.68473 1.22965 4.50017 2.25482 4.49081C3.27999 4.48152 4.08231 3.65712 4.04941 2.64661C4.02897 2.21877 3.59738 2.24239 3.25238 2.59709L2.94687 2.91123Z" fill="#CEE7FD"/>
</svg>
