<svg width="92" height="114" viewBox="0 0 92 114" fill="none" xmlns="http://www.w3.org/2000/svg">
<path d="M75.6682 13.126C75.6682 14.478 74.6477 15.5555 73.391 15.5457L46.8207 15.347C46.161 15.29 45.612 15.0375 45.2178 14.6083C44.8236 14.1799 44.5956 13.5869 44.5508 12.8767C44.5508 11.5247 45.5648 10.4333 46.8207 10.4602L73.391 10.6646C74.0548 10.7151 74.6078 10.9644 75.0044 11.3911C75.4011 11.8187 75.6299 12.4117 75.6739 13.1227L75.6682 13.126ZM59.8464 3.20657C59.8041 2.49555 59.576 1.90262 59.1802 1.47584C58.7852 1.04906 58.233 0.800658 57.57 0.750976L46.863 0.664628C45.6071 0.65404 44.5866 1.73729 44.5931 3.06405C44.6322 3.78078 44.8611 4.37942 45.2585 4.80945C45.6568 5.23949 46.2131 5.4879 46.8818 5.53596L57.57 5.62636C58.8202 5.64509 59.8464 4.56429 59.8464 3.20657ZM91.5258 23.0266C91.5258 24.3729 90.5053 25.4561 89.2551 25.4374L46.8818 25.0888C46.2164 25.0342 45.6625 24.7834 45.2626 24.3558C44.8635 23.9274 44.6298 23.3345 44.5809 22.6226C44.5809 21.282 45.6071 20.1955 46.8753 20.2053L89.2429 20.5677C89.9099 20.6141 90.4646 20.8609 90.8612 21.2885C91.2587 21.7161 91.4859 22.3123 91.5258 23.0266ZM75.6682 42.4353C75.6682 43.793 74.6477 44.8762 73.391 44.8664L46.8573 44.6368C46.1895 44.5903 45.634 44.3427 45.2357 43.9151C44.8383 43.4876 44.6094 42.8914 44.5687 42.1763C44.5687 40.8243 45.5892 39.741 46.863 39.7524L73.391 39.9797C74.0531 40.031 74.6037 40.2802 74.9995 40.707C75.3945 41.1338 75.6242 41.7259 75.6682 42.4353ZM59.8342 32.5281C59.7902 31.8179 59.5605 31.225 59.1655 30.7974C58.7697 30.3698 58.2191 30.1197 57.5578 30.066L46.863 29.974C45.5892 29.9675 44.5744 31.0588 44.5744 32.3937C44.6151 33.108 44.8415 33.705 45.2349 34.1367C45.6283 34.5684 46.1773 34.8225 46.8394 34.8787L57.5521 34.956C58.8137 34.9577 59.8285 33.8891 59.8342 32.5281ZM91.5136 57.2284C91.5136 58.5861 90.4931 59.6693 89.2307 59.6628L3.04646 58.9331C2.3786 58.8858 1.82232 58.6366 1.42568 58.2058C1.02822 57.7757 0.801802 57.1763 0.764337 56.4579C0.764337 55.1116 1.77833 54.043 3.04646 54.0463L89.2372 54.7671C89.8969 54.8225 90.4467 55.0741 90.8417 55.5009C91.2367 55.9285 91.4672 56.5198 91.5136 57.2284ZM75.6682 76.6428C75.6682 77.9891 74.6534 79.0854 73.3975 79.0756L3.05869 78.4794C2.39082 78.4314 1.83453 78.1821 1.43708 77.7521C1.0388 77.3221 0.809938 76.7242 0.770029 76.0075C0.770029 74.6612 1.78486 73.5812 3.05869 73.5869L73.3975 74.1831C74.0588 74.2344 74.6094 74.4844 75.0036 74.9112C75.3986 75.3388 75.6259 75.9318 75.6682 76.6428ZM59.8342 66.7291C59.7878 66.0222 59.5581 65.4317 59.1639 65.0049C58.7697 64.5781 58.2224 64.3264 57.5643 64.2702L3.04646 63.8256C1.78485 63.8133 0.764337 64.9072 0.764337 66.2429C0.807504 66.9563 1.0388 67.5509 1.43708 67.9777C1.83616 68.4045 2.39164 68.6521 3.05869 68.7001L57.5643 69.1628C58.8202 69.1668 59.8342 68.0868 59.8342 66.7291ZM91.5193 91.4327C91.5193 92.7904 90.4931 93.8769 89.2372 93.872L3.05869 93.1284C2.39001 93.0836 1.83372 92.8368 1.43545 92.4084C1.03717 91.9808 0.809123 91.3838 0.770029 90.6679C0.770029 89.3264 1.78486 88.2465 3.05869 88.2473L89.2307 88.9884C89.8937 89.0381 90.4467 89.2849 90.8441 89.7092C91.2416 90.1336 91.4729 90.7241 91.5193 91.4327ZM75.6682 110.849C75.6682 112.207 74.6412 113.288 73.391 113.286L3.04646 112.676C2.3786 112.632 1.82313 112.385 1.42486 111.958C1.02659 111.531 0.797721 110.936 0.757812 110.221C0.757812 108.88 1.77834 107.797 3.05298 107.798L73.391 108.394C74.0507 108.448 74.5996 108.699 74.9946 109.126C75.3905 109.552 75.621 110.143 75.6682 110.849ZM59.8285 100.951C59.7853 100.24 59.5573 99.6465 59.1623 99.2173C58.7681 98.7881 58.2191 98.5356 57.5578 98.4802L3.05298 98.0241C1.77834 98.0176 0.764328 99.0976 0.757812 100.447C0.801794 101.161 1.03148 101.756 1.42894 102.184C1.82639 102.614 2.38104 102.863 3.04646 102.914L57.5578 103.378C58.8137 103.383 59.8342 102.3 59.8285 100.951Z" fill="#CEE7FD"/>
</svg>
