<svg width="89" height="33" viewBox="0 0 89 33" fill="none" xmlns="http://www.w3.org/2000/svg">
<path d="M7.8412 10.1552L7.16683 7.94082H3.7754L3.10102 10.1552H0.976074L4.25919 0.814252H6.67081L9.96695 10.1552H7.8412ZM6.69607 6.28648C6.073 4.28005 5.72034 3.14525 5.63971 2.88226C5.56315 2.61927 5.50858 2.41142 5.47437 2.25871C5.33428 2.80171 4.93357 4.14428 4.27222 6.28648H6.69607ZM13.8796 10.2824C11.6659 10.2824 10.5583 9.06715 10.5583 6.63646C10.5583 5.42747 10.8596 4.50484 11.4623 3.86849C12.0642 3.228 12.9275 2.90776 14.0515 2.90776C14.8749 2.90776 15.6128 3.06894 16.266 3.3913L15.6935 4.89301C15.388 4.76995 15.1038 4.67025 14.8407 4.59394C14.5776 4.51331 14.3146 4.47299 14.0515 4.47299C13.0424 4.47299 12.5374 5.18989 12.5374 6.62375C12.5374 8.0151 13.0424 8.71082 14.0515 8.71082C14.4253 8.71082 14.7707 8.66203 15.0891 8.56445C15.4068 8.46265 15.7252 8.3057 16.0437 8.09362V9.75431C15.7293 9.95369 15.4116 10.0916 15.0891 10.1679C14.7707 10.2443 14.3675 10.2824 13.8796 10.2824ZM20.5868 10.2824C18.3722 10.2824 17.2654 9.06715 17.2654 6.63646C17.2654 5.42747 17.5659 4.50484 18.1686 3.86849C18.7713 3.228 19.6346 2.90776 20.7586 2.90776C21.5812 2.90776 22.3191 3.06894 22.9731 3.3913L22.3998 4.89301C22.0943 4.76995 21.8101 4.67025 21.5478 4.59394C21.2847 4.51331 21.0217 4.47299 20.7586 4.47299C19.7487 4.47299 19.2437 5.18989 19.2437 6.62375C19.2437 8.0151 19.7487 8.71082 20.7586 8.71082C21.1316 8.71082 21.4778 8.66203 21.7954 8.56445C22.1139 8.46265 22.4315 8.3057 22.75 8.09362V9.75431C22.4364 9.95369 22.118 10.0916 21.7954 10.1679C21.4778 10.2443 21.0746 10.2824 20.5868 10.2824ZM28.3747 2.90776C28.6378 2.90776 28.856 2.92681 29.0303 2.96501L28.8837 4.78477C28.7273 4.74242 28.5359 4.72116 28.3111 4.72116C27.6922 4.72116 27.2084 4.88023 26.8606 5.19844C26.5169 5.51657 26.345 5.962 26.345 6.53465V10.1552H24.4042V3.04133H25.8743L26.1609 4.23761H26.2562C26.477 3.83885 26.7734 3.51861 27.1465 3.27679C27.5244 3.03074 27.9341 2.90776 28.3747 2.90776ZM33.268 4.28852C32.8567 4.28852 32.5341 4.41997 32.3012 4.68296C32.0674 4.9418 31.9339 5.31083 31.8997 5.79015H34.6232C34.6151 5.31083 34.4897 4.9418 34.2478 4.68296C34.0059 4.41997 33.6793 4.28852 33.268 4.28852ZM33.5416 10.2824C32.3965 10.2824 31.5014 9.9664 30.8563 9.33437C30.2121 8.70227 29.8896 7.80725 29.8896 6.64916C29.8896 5.45719 30.1861 4.53669 30.7798 3.88764C31.3784 3.23436 32.2035 2.90776 33.255 2.90776C34.2608 2.90776 35.0435 3.19404 35.6031 3.76669C36.1634 4.33942 36.4436 5.13051 36.4436 6.14012V7.08189H31.8557C31.8769 7.63328 32.0398 8.06389 32.3452 8.37355C32.6506 8.68321 33.079 8.83803 33.6304 8.83803C34.0588 8.83803 34.4644 8.79349 34.8464 8.70447C35.2276 8.61536 35.6267 8.47323 36.0421 8.27809V9.7798C35.7032 9.94945 35.34 10.0746 34.9539 10.1552C34.5679 10.2401 34.0971 10.2824 33.5416 10.2824ZM40.274 10.2824C39.4384 10.2824 38.7803 9.95792 38.3014 9.30888C37.8257 8.65991 37.5887 7.76058 37.5887 6.61096C37.5887 5.4444 37.8306 4.53669 38.3136 3.88764C38.8015 3.23436 39.4718 2.90776 40.3245 2.90776C41.2196 2.90776 41.9029 3.25553 42.3737 3.95124H42.4372C42.3395 3.42103 42.2906 2.94799 42.2906 2.53229V0.254395H44.238V10.1552H42.7492L42.3737 9.23256H42.2906C41.85 9.93251 41.1772 10.2824 40.274 10.2824ZM40.9549 8.73622C41.4509 8.73622 41.8133 8.59199 42.043 8.30358C42.2759 8.0151 42.403 7.52512 42.4242 6.83372V6.62375C42.4242 5.86019 42.3053 5.31295 42.0683 4.98203C41.8345 4.6512 41.4533 4.48578 40.9231 4.48578C40.4898 4.48578 40.1527 4.67026 39.9108 5.03937C39.6737 5.40417 39.5548 5.93651 39.5548 6.63646C39.5548 7.33641 39.6754 7.86239 39.9173 8.21448C40.1592 8.56234 40.5053 8.73622 40.9549 8.73622ZM46.1854 1.20243C46.1854 0.570402 46.5372 0.254395 47.2409 0.254395C47.9455 0.254395 48.2973 0.570402 48.2973 1.20243C48.2973 1.50362 48.2085 1.73908 48.0302 1.90873C47.8567 2.07415 47.5936 2.1569 47.2409 2.1569C46.5372 2.1569 46.1854 1.83877 46.1854 1.20243ZM48.2085 10.1552H46.2676V3.04133H48.2085V10.1552ZM53.2476 8.73622C53.5872 8.73622 53.9945 8.66203 54.4693 8.51355V9.95792C53.9863 10.1742 53.3918 10.2824 52.6881 10.2824C51.9119 10.2824 51.345 10.0873 50.9891 9.69705C50.6372 9.30252 50.4613 8.71294 50.4613 7.92812V4.49849H49.532V3.67767L50.6006 3.02862L51.1609 1.52691H52.4014V3.04133H54.3936V4.49849H52.4014V7.92812C52.4014 8.20389 52.4779 8.40751 52.6311 8.53897C52.7874 8.6705 52.9935 8.73622 53.2476 8.73622ZM60.432 10.1552L60.0565 9.18801H60.0052C59.6786 9.59948 59.3414 9.88585 58.9937 10.047C58.65 10.204 58.2004 10.2824 57.6449 10.2824C56.9616 10.2824 56.4232 10.0873 56.0282 9.69705C55.6381 9.30676 55.4434 8.75105 55.4434 8.02992C55.4434 7.27483 55.7065 6.71913 56.2318 6.36288C56.762 6.00223 57.5602 5.80285 58.6247 5.76473L59.8594 5.72654V5.41476C59.8594 4.69363 59.4897 4.33307 58.7518 4.33307C58.1833 4.33307 57.5154 4.50484 56.7474 4.84846L56.1048 3.53766C56.9233 3.10925 57.8314 2.89497 58.8283 2.89497C59.7829 2.89497 60.5143 3.10282 61.0233 3.5186C61.5323 3.93431 61.7873 4.56633 61.7873 5.41476V10.1552H60.432ZM59.8594 6.85913L59.1085 6.88462C58.5441 6.90156 58.1238 7.00337 57.8485 7.19005C57.5724 7.37664 57.4348 7.66089 57.4348 8.04263C57.4348 8.58986 57.7483 8.86353 58.3763 8.86353C58.8259 8.86353 59.1842 8.73411 59.4522 8.47535C59.7234 8.2166 59.8594 7.87297 59.8594 7.44457V6.85913ZM66.7881 8.73622C67.1277 8.73622 67.535 8.66203 68.0098 8.51355V9.95792C67.5268 10.1742 66.9322 10.2824 66.2285 10.2824C65.4524 10.2824 64.8855 10.0873 64.5296 9.69705C64.1777 9.30252 64.001 8.71294 64.001 7.92812V4.49849H63.0725V3.67767L64.1411 3.02862L64.7014 1.52691H65.9419V3.04133H67.934V4.49849H65.9419V7.92812C65.9419 8.20389 66.0184 8.40751 66.1715 8.53897C66.3279 8.6705 66.534 8.73622 66.7881 8.73622ZM69.3716 1.20243C69.3716 0.570402 69.7242 0.254395 70.4279 0.254395C71.1324 0.254395 71.4843 0.570402 71.4843 1.20243C71.4843 1.50362 71.3955 1.73908 71.2171 1.90873C71.0428 2.07415 70.7798 2.1569 70.4279 2.1569C69.7242 2.1569 69.3716 1.83877 69.3716 1.20243ZM71.3955 10.1552H69.4546V3.04133H71.3955V10.1552ZM74.984 6.58555C74.984 7.28974 75.0989 7.82207 75.3277 8.18264C75.5607 8.5432 75.9386 8.72352 76.4599 8.72352C76.9779 8.72352 77.3492 8.54532 77.574 8.18899C77.8029 7.82842 77.9169 7.29398 77.9169 6.58555C77.9169 5.88137 77.8029 5.35326 77.574 5.00117C77.3444 4.64908 76.9689 4.47299 76.4476 4.47299C75.9296 4.47299 75.5566 4.64908 75.3277 5.00117C75.0989 5.34903 74.984 5.87713 74.984 6.58555ZM79.9026 6.58555C79.9026 7.74364 79.5972 8.64924 78.9863 9.30253C78.3755 9.95581 77.5252 10.2824 76.4346 10.2824C75.7521 10.2824 75.1494 10.134 74.6273 9.83706C74.1061 9.53587 73.7053 9.10526 73.4252 8.54532C73.145 7.98537 73.0049 7.33217 73.0049 6.58555C73.0049 5.42323 73.3087 4.51966 73.9147 3.87493C74.5214 3.23012 75.3742 2.90776 76.4729 2.90776C77.1562 2.90776 77.7581 3.05623 78.2802 3.3531C78.8014 3.65006 79.203 4.07643 79.4823 4.63214C79.7625 5.18777 79.9026 5.83893 79.9026 6.58555ZM88.0725 10.1552H86.1316V6.00011C86.1316 5.48684 86.0404 5.10298 85.858 4.84846C85.6755 4.5897 85.3856 4.46029 84.9865 4.46029C84.4432 4.46029 84.0515 4.64273 83.8096 5.00753C83.5677 5.36809 83.4471 5.96835 83.4471 6.80823V10.1552H81.5063V3.04133H82.9886L83.2492 3.95124H83.3576C83.5742 3.60762 83.8707 3.34887 84.2486 3.17498C84.6306 2.99678 85.063 2.90776 85.5468 2.90776C86.3735 2.90776 87.0015 3.13255 87.4299 3.58222C87.8583 4.02765 88.0725 4.67238 88.0725 5.51657V10.1552ZM31.6325 19.5851H34.528C35.8474 19.5851 36.8036 19.7739 37.3973 20.1514C37.996 20.5248 38.2949 21.1211 38.2949 21.9397C38.2949 22.4951 38.1637 22.9512 37.9006 23.3072C37.6416 23.6639 37.2955 23.8781 36.863 23.9506V24.0141C37.4527 24.1452 37.877 24.3912 38.136 24.752C38.3991 25.1128 38.5302 25.5917 38.5302 26.1904C38.5302 27.0382 38.2224 27.7004 37.6074 28.1752C36.9966 28.6501 36.165 28.8879 35.1135 28.8879H31.6325V19.5851ZM33.6052 23.2697H34.7503C35.2854 23.2697 35.6715 23.1866 35.9085 23.0213C36.1504 22.8559 36.2717 22.5823 36.2717 22.2003C36.2717 21.8444 36.1398 21.5895 35.8767 21.4372C35.6185 21.28 35.2064 21.201 34.6428 21.201H33.6052V23.2697ZM33.6052 24.8343V27.2589H34.8904C35.4336 27.2589 35.8344 27.1547 36.0934 26.947C36.3524 26.7393 36.481 26.4209 36.481 25.9925C36.481 25.2203 35.9297 24.8343 34.8269 24.8343H33.6052ZM41.7816 25.3181C41.7816 26.0226 41.8964 26.5544 42.1253 26.9152C42.359 27.2761 42.7361 27.456 43.2582 27.456C43.7754 27.456 44.1468 27.2777 44.3716 26.9218C44.6004 26.5609 44.7153 26.0267 44.7153 25.3181C44.7153 24.6144 44.6004 24.0858 44.3716 23.7339C44.1427 23.3821 43.7672 23.2054 43.2452 23.2054C42.728 23.2054 42.3541 23.3821 42.1253 23.7339C41.8964 24.0817 41.7816 24.6095 41.7816 25.3181ZM46.7001 25.3181C46.7001 26.4762 46.3947 27.3819 45.7839 28.0351C45.173 28.6883 44.3227 29.0149 43.2321 29.0149C42.5496 29.0149 41.9469 28.8667 41.4256 28.5694C40.9036 28.2689 40.5029 27.838 40.2227 27.2777C39.9425 26.7181 39.8032 26.0649 39.8032 25.3181C39.8032 24.1558 40.1062 23.2526 40.713 22.6075C41.3198 21.9625 42.1717 21.6408 43.2704 21.6408C43.9538 21.6408 44.5565 21.789 45.0777 22.0855C45.5998 22.3827 46.0005 22.8087 46.2807 23.365C46.56 23.9205 46.7001 24.572 46.7001 25.3181ZM50.5566 29.0149C49.721 29.0149 49.0629 28.6908 48.584 28.0416C48.1083 27.3925 47.8713 26.4934 47.8713 25.3433C47.8713 24.177 48.1132 23.2697 48.5962 22.6206C49.0841 21.9674 49.7544 21.6408 50.6071 21.6408C51.5022 21.6408 52.1855 21.9885 52.6563 22.6841H52.7198C52.6221 22.1539 52.5732 21.6807 52.5732 21.2653V18.9871H54.5206V28.8879H53.0318L52.6563 27.9651H52.5732C52.1326 28.6655 51.4599 29.0149 50.5566 29.0149ZM51.2375 27.4691C51.7335 27.4691 52.0959 27.3249 52.3256 27.0366C52.5586 26.7475 52.6856 26.258 52.7068 25.5665V25.3564C52.7068 24.5932 52.5879 24.0459 52.3509 23.7144C52.1171 23.3837 51.736 23.2184 51.2057 23.2184C50.7724 23.2184 50.4353 23.4033 50.1934 23.7722C49.9564 24.1371 49.8374 24.6689 49.8374 25.3694C49.8374 26.069 49.958 26.5952 50.1999 26.947C50.4418 27.2948 50.7879 27.4691 51.2375 27.4691ZM55.5322 21.7743H57.6571L59.0002 25.7766C59.1142 26.1244 59.1932 26.5357 59.2356 27.0105H59.2738C59.3203 26.574 59.4115 26.1627 59.5475 25.7766L60.8645 21.7743H62.9454L59.9352 29.7976C59.6599 30.5404 59.2649 31.0959 58.7518 31.4648C58.2427 31.8338 57.6465 32.0187 56.964 32.0187C56.6284 32.0187 56.3002 31.982 55.9777 31.9104V30.3702C56.2106 30.4256 56.4656 30.4533 56.7409 30.4533C57.0846 30.4533 57.3843 30.3474 57.6384 30.1348C57.8974 29.9271 58.0986 29.6111 58.2427 29.1868L58.3576 28.8374L55.5322 21.7743Z" fill="#5C5C5C"/>
</svg>
