<svg width="112" height="11" viewBox="0 0 112 11" fill="none" xmlns="http://www.w3.org/2000/svg">
<path d="M7.26922 0.761129H8.84685L5.58899 10.0639H3.98531L0.740479 0.761129H2.30588L4.24674 6.54545C4.34855 6.82074 4.45607 7.17748 4.57091 7.61404C4.68575 8.04652 4.75985 8.36903 4.79406 8.58161C4.84863 8.25908 4.93334 7.88606 5.04818 7.46172C5.16302 7.03738 5.25587 6.72302 5.32835 6.5194L7.26922 0.761129ZM14.3192 10.0639L14.0203 9.08414H13.969C13.6302 9.51255 13.2881 9.80494 12.9444 9.96213C12.6007 10.1144 12.1601 10.191 11.6209 10.191C10.9294 10.191 10.3886 10.0045 9.9985 9.63146C9.61245 9.25762 9.41942 8.72986 9.41942 8.04652C9.41942 7.32165 9.68901 6.77432 10.2274 6.40536C10.7665 6.03641 11.5875 5.83442 12.6903 5.80103L13.9055 5.76275V5.38728C13.9055 4.9377 13.7996 4.60215 13.587 4.38143C13.3793 4.15664 13.0552 4.04424 12.6137 4.04424C12.2529 4.04424 11.9076 4.09717 11.5769 4.20386C11.2454 4.30974 10.9278 4.43517 10.6224 4.57933L10.1386 3.50995C10.5206 3.3104 10.9384 3.15973 11.3921 3.05792C11.8457 2.95204 12.2741 2.8991 12.6773 2.8991C13.5724 2.8991 14.2467 3.09457 14.7012 3.48469C15.1589 3.87482 15.3878 4.48811 15.3878 5.32375V10.0639H14.3192ZM12.0925 9.04586C12.6349 9.04586 13.0698 8.89519 13.3964 8.59384C13.7271 8.28841 13.8925 7.86244 13.8925 7.31512V6.70427L12.9892 6.74255C12.2847 6.7678 11.7716 6.88672 11.4491 7.09848C11.1314 7.30699 10.9718 7.62706 10.9718 8.05955C10.9718 8.37311 11.0655 8.61744 11.252 8.79174C11.4385 8.96115 11.7186 9.04586 12.0925 9.04586ZM18.9706 10.0639H17.4753V0.163304H18.9706V10.0639ZM22.6105 10.0639H21.1151V3.02616H22.6105V10.0639ZM21.0255 1.16185C21.0255 0.894704 21.098 0.689463 21.2422 0.544488C21.3904 0.400328 21.6006 0.328643 21.8718 0.328643C22.1348 0.328643 22.3385 0.400328 22.4826 0.544488C22.6317 0.689463 22.7058 0.894704 22.7058 1.16185C22.7058 1.41678 22.6317 1.61795 22.4826 1.76619C22.3385 1.91116 22.1348 1.98283 21.8718 1.98283C21.6006 1.98283 21.3904 1.91116 21.2422 1.76619C21.098 1.61795 21.0255 1.41678 21.0255 1.16185ZM27.1275 10.191C26.2495 10.191 25.5645 9.87336 25.0726 9.23645C24.5807 8.60036 24.3347 7.7077 24.3347 6.55768C24.3347 5.4044 24.5823 4.50684 25.0791 3.86667C25.5792 3.22162 26.2707 2.8991 27.1536 2.8991C28.078 2.8991 28.7825 3.24036 29.2655 3.92369H29.342C29.2704 3.41872 29.2337 3.02045 29.2337 2.72725V0.163304H30.7356V10.0639H29.5652L29.3038 9.14116H29.2337C28.7548 9.8416 28.0527 10.191 27.1275 10.191ZM27.529 8.98233C28.144 8.98233 28.5911 8.81048 28.8713 8.46678C29.1515 8.119 29.2956 7.55701 29.3038 6.78083V6.5707C29.3038 5.68375 29.1596 5.05416 28.8713 4.68114C28.583 4.3073 28.1309 4.1208 27.516 4.1208C26.9899 4.1208 26.5851 4.335 26.3008 4.76341C26.0166 5.18775 25.8741 5.79451 25.8741 6.58373C25.8741 7.36398 26.0125 7.96018 26.2878 8.37148C26.5639 8.77871 26.9776 8.98233 27.529 8.98233ZM40.3756 1.93232C39.5017 1.93232 38.8143 2.24183 38.3142 2.86082C37.8133 3.48063 37.5632 4.33499 37.5632 5.42556C37.5632 6.56662 37.8027 7.42997 38.2824 8.01476C38.7662 8.60036 39.4634 8.89275 40.3756 8.89275C40.7698 8.89275 41.1518 8.85527 41.5207 8.77871C41.8897 8.69808 42.2741 8.59627 42.6724 8.47329V9.77726C41.9434 10.0534 41.1159 10.191 40.1915 10.191C38.8297 10.191 37.784 9.77969 37.0542 8.95708C36.3244 8.12958 35.9596 6.9478 35.9596 5.41253C35.9596 4.44577 36.1355 3.59872 36.4881 2.87385C36.8441 2.14816 37.3572 1.59269 38.0275 1.20664C38.6978 0.820582 39.4846 0.627555 40.3886 0.627555C41.3383 0.627555 42.2163 0.827106 43.0226 1.22538L42.4753 2.49187C42.1617 2.34363 41.8286 2.21412 41.4767 2.10417C41.129 1.98933 40.7616 1.93232 40.3756 1.93232ZM47.5909 10.191C46.4971 10.191 45.6403 9.87336 45.0205 9.23645C44.4056 8.59628 44.0977 7.71584 44.0977 6.59595C44.0977 5.44674 44.3844 4.54269 44.957 3.88541C45.5295 3.22814 46.3163 2.8991 47.3181 2.8991C48.2466 2.8991 48.9804 3.1809 49.5196 3.74533C50.0579 4.30975 50.3275 5.08593 50.3275 6.07469V6.88264H45.6378C45.659 7.56516 45.8439 8.09131 46.1917 8.46027C46.5395 8.82515 47.029 9.00758 47.661 9.00758C48.0772 9.00758 48.4632 8.96931 48.8191 8.89275C49.18 8.81293 49.566 8.68098 49.9773 8.49854V9.71373C49.6124 9.88802 49.2435 10.011 48.8705 10.0827C48.4966 10.1552 48.0707 10.191 47.5909 10.191ZM47.3181 4.03201C46.8424 4.03201 46.4605 4.1827 46.1721 4.48324C45.8879 4.78459 45.7185 5.22357 45.6631 5.80103H48.8574C48.8493 5.2195 48.7092 4.78052 48.4372 4.48324C48.166 4.1827 47.7929 4.03201 47.3181 4.03201ZM55.5963 2.8991C55.8968 2.8991 56.1452 2.92028 56.3407 2.96263L56.1941 4.35618C55.9824 4.30568 55.7616 4.27962 55.532 4.27962C54.9342 4.27962 54.4487 4.47509 54.0749 4.86522C53.7059 5.25535 53.5219 5.76276 53.5219 6.38583V10.0639H52.0265V3.02616H53.1969L53.394 4.26739H53.4706C53.7043 3.84713 54.0073 3.51402 54.3803 3.26805C54.7582 3.02208 55.163 2.8991 55.5963 2.8991ZM60.273 8.98233C60.6378 8.98233 61.0027 8.92532 61.3676 8.81048V9.93688C61.2014 10.0086 60.9873 10.068 60.7242 10.1144C60.466 10.1658 60.1964 10.191 59.9162 10.191C58.4999 10.191 57.7913 9.44495 57.7913 7.95122V4.15907H56.8302V3.49772L57.8613 2.9504L58.3704 1.46156H59.2932V3.02616H61.2975V4.15907H59.2932V7.92597C59.2932 8.28678 59.3819 8.55393 59.5603 8.72741C59.7427 8.89764 59.9797 8.98233 60.273 8.98233ZM64.2752 10.0639H62.7799V3.02616H64.2752V10.0639ZM62.6903 1.16185C62.6903 0.894704 62.7628 0.689463 62.9069 0.544488C63.0552 0.400328 63.2653 0.328643 63.5373 0.328643C63.7996 0.328643 64.0032 0.400328 64.1482 0.544488C64.2964 0.689463 64.3705 0.894704 64.3705 1.16185C64.3705 1.41678 64.2964 1.61795 64.1482 1.76619C64.0032 1.91116 63.7996 1.98283 63.5373 1.98283C63.2653 1.98283 63.0552 1.91116 62.9069 1.76619C62.7628 1.61795 62.6903 1.41678 62.6903 1.16185ZM69.9512 4.15907H68.2327V10.0639H66.7309V4.15907H65.5735V3.45944L66.7309 3.00091V2.54317C66.7309 1.7116 66.9263 1.09669 67.3165 0.697598C67.7066 0.294438 68.3028 0.0932617 69.105 0.0932617C69.6303 0.0932617 70.1483 0.180415 70.6574 0.353896L70.2624 1.48681C69.8934 1.3679 69.5416 1.30845 69.206 1.30845C68.8672 1.30845 68.6188 1.41432 68.4616 1.6269C68.3093 1.83458 68.2327 2.14816 68.2327 2.56842V3.02616H69.9512V4.15907ZM72.6422 10.0639H71.1469V3.02616H72.6422V10.0639ZM71.0581 1.16185C71.0581 0.894704 71.1298 0.689463 71.2747 0.544488C71.423 0.400328 71.6331 0.328643 71.9043 0.328643C72.1674 0.328643 72.371 0.400328 72.5152 0.544488C72.6634 0.689463 72.7375 0.894704 72.7375 1.16185C72.7375 1.41678 72.6634 1.61795 72.5152 1.76619C72.371 1.91116 72.1674 1.98283 71.9043 1.98283C71.6331 1.98283 71.423 1.91116 71.2747 1.76619C71.1298 1.61795 71.0581 1.41678 71.0581 1.16185ZM77.6308 10.191C76.5663 10.191 75.7559 9.88149 75.2005 9.2625C74.6491 8.63862 74.373 7.74597 74.373 6.58373C74.373 5.39949 74.6613 4.48975 75.2387 3.85365C75.8195 3.21755 76.6575 2.8991 77.7522 2.8991C78.4942 2.8991 79.162 3.03674 79.7566 3.31284L79.3046 4.5158C78.6725 4.26902 78.1505 4.14605 77.7392 4.14605C76.5215 4.14605 75.9131 4.9548 75.9131 6.5707C75.9131 7.35992 76.0638 7.95367 76.3651 8.35194C76.6706 8.74696 77.1153 8.94405 77.7009 8.94405C78.3671 8.94405 78.9967 8.77871 79.5904 8.44804V9.752C79.3233 9.9092 79.0374 10.0216 78.732 10.0892C78.4306 10.1576 78.0641 10.191 77.6308 10.191ZM85.6484 10.0639L85.3495 9.08414H85.2982C84.9594 9.51255 84.6173 9.80494 84.2736 9.96213C83.9307 10.1144 83.4893 10.191 82.9509 10.191C82.2594 10.191 81.7178 10.0045 81.3277 9.63146C80.9416 9.25762 80.7486 8.72986 80.7486 8.04652C80.7486 7.32165 81.0182 6.77432 81.5574 6.40536C82.0957 6.03641 82.9167 5.83442 84.0195 5.80103L85.2347 5.76275V5.38728C85.2347 4.9377 85.1288 4.60215 84.917 4.38143C84.7085 4.15664 84.3844 4.04424 83.9429 4.04424C83.5829 4.04424 83.2368 4.09717 82.9061 4.20386C82.5754 4.30974 82.257 4.43517 81.9516 4.57933L81.4678 3.50995C81.8498 3.3104 82.2676 3.15973 82.7212 3.05792C83.1757 2.95204 83.6041 2.8991 84.0065 2.8991C84.9016 2.8991 85.5759 3.09457 86.0304 3.48469C86.4881 3.87482 86.717 4.48811 86.717 5.32375V10.0639H85.6484ZM83.4217 9.04586C83.9641 9.04586 84.399 8.89519 84.7256 8.59384C85.0563 8.28841 85.2224 7.86244 85.2224 7.31512V6.70427L84.3184 6.74255C83.6147 6.7678 83.1008 6.88672 82.7791 7.09848C82.4606 7.30699 82.3018 7.62706 82.3018 8.05955C82.3018 8.37311 82.3946 8.61744 82.5812 8.79174C82.7685 8.96115 83.0478 9.04586 83.4217 9.04586ZM91.4262 8.98233C91.7911 8.98233 92.156 8.92532 92.5209 8.81048V9.93688C92.3547 10.0086 92.1405 10.068 91.8775 10.1144C91.6193 10.1658 91.3497 10.191 91.0695 10.191C89.6531 10.191 88.9446 9.44495 88.9446 7.95122V4.15907H87.9835V3.49772L89.0146 2.9504L89.5236 1.46156H90.4464V3.02616H92.4508V4.15907H90.4464V7.92597C90.4464 8.28678 90.5352 8.55393 90.7136 8.72741C90.896 8.89764 91.133 8.98233 91.4262 8.98233ZM95.4285 10.0639H93.9332V3.02616H95.4285V10.0639ZM93.8436 1.16185C93.8436 0.894704 93.9161 0.689463 94.0602 0.544488C94.2084 0.400328 94.4186 0.328643 94.6906 0.328643C94.9529 0.328643 95.1565 0.400328 95.3014 0.544488C95.4497 0.689463 95.5238 0.894704 95.5238 1.16185C95.5238 1.41678 95.4497 1.61795 95.3014 1.76619C95.1565 1.91116 94.9529 1.98283 94.6906 1.98283C94.4186 1.98283 94.2084 1.91116 94.0602 1.76619C93.9161 1.61795 93.8436 1.41678 93.8436 1.16185ZM103.815 6.53242C103.815 7.68245 103.52 8.57917 102.931 9.22422C102.341 9.86847 101.52 10.191 100.468 10.191C99.8103 10.191 99.2288 10.0428 98.7246 9.74549C98.2197 9.44903 97.8312 9.02224 97.56 8.46678C97.2888 7.91131 97.1527 7.26626 97.1527 6.53242C97.1527 5.39136 97.4451 4.50033 98.0307 3.86016C98.6163 3.21918 99.4414 2.8991 100.506 2.8991C101.524 2.8991 102.33 3.22814 102.924 3.88541C103.518 4.53861 103.815 5.42068 103.815 6.53242ZM98.6929 6.53242C98.6929 8.15728 99.2931 8.96931 100.494 8.96931C101.681 8.96931 102.275 8.15728 102.275 6.53242C102.275 4.92467 101.677 4.1208 100.481 4.1208C99.8527 4.1208 99.3966 4.32848 99.1123 4.74467C98.833 5.16004 98.6929 5.75624 98.6929 6.53242ZM111.73 10.0639H110.229V5.7375C110.229 5.19425 110.118 4.78866 109.897 4.52152C109.682 4.25437 109.335 4.1208 108.861 4.1208C108.229 4.1208 107.766 4.3073 107.474 4.68114C107.181 5.05416 107.035 5.67968 107.035 6.55768V10.0639H105.539V3.02616H106.71L106.92 3.94894H106.996C107.208 3.6142 107.509 3.3552 107.9 3.17276C108.29 2.99032 108.723 2.8991 109.198 2.8991C110.886 2.8991 111.73 3.75836 111.73 5.47607V10.0639Z" fill="#5C5C5C"/>
</svg>
