<svg width="184" height="14" viewBox="0 0 184 14" fill="none" xmlns="http://www.w3.org/2000/svg">
<path d="M7.73998 10.7148L6.81069 8.13134H3.25392L2.34415 10.7148H0.740479L4.22069 1.37373H5.87567L9.35589 10.7148H7.73998ZM6.40997 6.82086L5.53848 4.28789C5.47414 4.11848 5.38538 3.85133 5.27054 3.48645C5.16059 3.12157 5.08402 2.85442 5.04167 2.68501C4.92765 3.20626 4.75986 3.77721 4.53914 4.39621L3.69943 6.82086H6.40997ZM13.2629 10.8419C12.1984 10.8419 11.388 10.5324 10.8325 9.91338C10.2811 9.2895 10.005 8.39685 10.005 7.2346C10.005 6.05037 10.2933 5.14062 10.8708 4.50453C11.4515 3.86843 12.2896 3.54998 13.3834 3.54998C14.1262 3.54998 14.7941 3.68762 15.3878 3.96372L14.9366 5.16668C14.3046 4.9199 13.7825 4.79693 13.3712 4.79693C12.1536 4.79693 11.5452 5.60568 11.5452 7.22158C11.5452 8.0108 11.6958 8.60455 11.9964 9.00282C12.3018 9.39784 12.7473 9.59493 13.3329 9.59493C13.9991 9.59493 14.6287 9.42959 15.2225 9.09892V10.4029C14.9553 10.5601 14.6694 10.6725 14.364 10.7401C14.0627 10.8085 13.6954 10.8419 13.2629 10.8419ZM19.7151 10.8419C18.6506 10.8419 17.8402 10.5324 17.2839 9.91338C16.7325 9.2895 16.4572 8.39685 16.4572 7.2346C16.4572 6.05037 16.7455 5.14062 17.3222 4.50453C17.9037 3.86843 18.7418 3.54998 19.8356 3.54998C20.5784 3.54998 21.2463 3.68762 21.84 3.96372L21.3888 5.16668C20.7568 4.9199 20.2347 4.79693 19.8234 4.79693C18.6058 4.79693 17.9973 5.60568 17.9973 7.22158C17.9973 8.0108 18.1472 8.60455 18.4486 9.00282C18.754 9.39784 19.1995 9.59493 19.7851 9.59493C20.4513 9.59493 21.0809 9.42959 21.6747 9.09892V10.4029C21.4075 10.5601 21.1208 10.6725 20.8154 10.7401C20.5149 10.8085 20.1475 10.8419 19.7151 10.8419ZM26.8986 3.54998C27.2 3.54998 27.4484 3.57116 27.6431 3.61351L27.4973 5.00706C27.2847 4.95656 27.064 4.9305 26.8351 4.9305C26.2373 4.9305 25.7511 5.12597 25.378 5.5161C25.0091 5.90622 24.8242 6.41364 24.8242 7.03671V10.7148H23.3288V3.67704H24.5L24.6971 4.91827H24.7737C25.0066 4.49801 25.3104 4.1649 25.6835 3.91893C26.0614 3.67296 26.4662 3.54998 26.8986 3.54998ZM32.0273 10.8419C30.9327 10.8419 30.0759 10.5242 29.4569 9.88733C28.842 9.24716 28.5341 8.36672 28.5341 7.24683C28.5341 6.09762 28.8208 5.19357 29.3933 4.53629C29.9659 3.87902 30.7527 3.54998 31.7537 3.54998C32.683 3.54998 33.4168 3.83178 33.9552 4.39621C34.4943 4.96063 34.7631 5.7368 34.7631 6.72556V7.53352H30.0742C30.0954 8.21604 30.2795 8.74219 30.6273 9.11114C30.975 9.47602 31.4653 9.65846 32.0974 9.65846C32.5127 9.65846 32.8988 9.62019 33.2555 9.54363C33.6163 9.46381 34.0024 9.33186 34.4137 9.14942V10.3646C34.0488 10.5389 33.6799 10.6619 33.306 10.7336C32.933 10.806 32.507 10.8419 32.0273 10.8419ZM31.7537 4.68289C31.2788 4.68289 30.8968 4.83358 30.6085 5.13412C30.3243 5.43547 30.1549 5.87445 30.0995 6.45191H33.2938C33.2849 5.87038 33.1448 5.4314 32.8736 5.13412C32.6023 4.83358 32.2285 4.68289 31.7537 4.68289ZM38.8354 10.8419C37.9575 10.8419 37.2725 10.5242 36.7805 9.88733C36.2886 9.25124 36.0426 8.35858 36.0426 7.20856C36.0426 6.05527 36.2902 5.15772 36.7871 4.51755C37.2871 3.8725 37.9786 3.54998 38.8615 3.54998C39.7859 3.54998 40.4904 3.89123 40.9734 4.57457H41.05C40.9783 4.0696 40.9416 3.67133 40.9416 3.37813V0.814183H42.4435V10.7148H41.2731L41.0117 9.79204H40.9416C40.4627 10.4925 39.7607 10.8419 38.8354 10.8419ZM39.237 9.63321C39.8519 9.63321 40.299 9.46136 40.5792 9.11766C40.8594 8.76988 41.0035 8.20789 41.0117 7.43171V7.22158C41.0117 6.33463 40.8675 5.70504 40.5792 5.33202C40.2909 4.95818 39.8389 4.77167 39.2239 4.77167C38.6978 4.77167 38.293 4.98588 38.0088 5.41429C37.7245 5.83862 37.582 6.44539 37.582 7.2346C37.582 8.01486 37.7204 8.61106 37.9957 9.02236C38.2718 9.42959 38.6856 9.63321 39.237 9.63321ZM46.0768 10.7148H44.5815V3.67704H46.0768V10.7148ZM44.4927 1.81273C44.4927 1.54558 44.5644 1.34034 44.7085 1.19537C44.8576 1.05121 45.0669 0.979522 45.3389 0.979522C45.602 0.979522 45.8056 1.05121 45.9498 1.19537C46.098 1.34034 46.1721 1.54558 46.1721 1.81273C46.1721 2.06766 46.098 2.26883 45.9498 2.41706C45.8056 2.56204 45.602 2.6337 45.3389 2.6337C45.0669 2.6337 44.8576 2.56204 44.7085 2.41706C44.5644 2.26883 44.4927 2.06766 44.4927 1.81273ZM50.8431 9.63321C51.208 9.63321 51.572 9.5762 51.9369 9.46136V10.5878C51.7716 10.6594 51.5574 10.7189 51.2943 10.7653C51.0361 10.8166 50.7665 10.8419 50.4864 10.8419C49.07 10.8419 48.3614 10.0958 48.3614 8.6021V4.80995H47.4003V4.1486L48.4315 3.60128L48.9405 2.11244H49.8625V3.67704H51.8669V4.80995H49.8625V8.57685C49.8625 8.93766 49.9521 9.20481 50.1304 9.37829C50.3129 9.54851 50.5499 9.63321 50.8431 9.63321ZM56.423 10.8419C55.3283 10.8419 54.4715 10.5242 53.8525 9.88733C53.2376 9.24716 52.9297 8.36672 52.9297 7.24683C52.9297 6.09762 53.2164 5.19357 53.789 4.53629C54.3616 3.87902 55.1484 3.54998 56.1493 3.54998C57.0786 3.54998 57.8125 3.83178 58.3508 4.39621C58.89 4.96063 59.1596 5.7368 59.1596 6.72556V7.53352H54.4699C54.4911 8.21604 54.6752 8.74219 55.0229 9.11114C55.3715 9.47602 55.861 9.65846 56.493 9.65846C56.9092 9.65846 57.2953 9.62019 57.6512 9.54363C58.012 9.46381 58.3981 9.33186 58.8094 9.14942V10.3646C58.4445 10.5389 58.0755 10.6619 57.7025 10.7336C57.3287 10.806 56.9027 10.8419 56.423 10.8419ZM56.1493 4.68289C55.6745 4.68289 55.2925 4.83358 55.0042 5.13412C54.7199 5.43547 54.5505 5.87445 54.4951 6.45191H57.6895C57.6805 5.87038 57.5413 5.4314 57.2692 5.13412C56.998 4.83358 56.625 4.68289 56.1493 4.68289ZM63.2319 10.8419C62.3531 10.8419 61.6681 10.5242 61.1762 9.88733C60.6843 9.25124 60.4383 8.35858 60.4383 7.20856C60.4383 6.05527 60.6867 5.15772 61.1827 4.51755C61.6836 3.8725 62.3743 3.54998 63.2572 3.54998C64.1816 3.54998 64.8861 3.89123 65.3699 4.57457H65.4456C65.374 4.0696 65.3373 3.67133 65.3373 3.37813V0.814183H66.8392V10.7148H65.6688L65.4074 9.79204H65.3373C64.8584 10.4925 64.1563 10.8419 63.2319 10.8419ZM63.6326 9.63321C64.2475 9.63321 64.6947 9.46136 64.9749 9.11766C65.255 8.76988 65.3992 8.20789 65.4074 7.43171V7.22158C65.4074 6.33463 65.2632 5.70504 64.9749 5.33202C64.6865 4.95818 64.2345 4.77167 63.6196 4.77167C63.0935 4.77167 62.6887 4.98588 62.4044 5.41429C62.1202 5.83862 61.9784 6.44539 61.9784 7.2346C61.9784 8.01486 62.1161 8.61106 62.3914 9.02236C62.6675 9.42959 63.0812 9.63321 63.6326 9.63321ZM76.4792 2.5832C75.6053 2.5832 74.9187 2.89271 74.4178 3.5117C73.9169 4.13151 73.6668 4.98587 73.6668 6.07644C73.6668 7.2175 73.9063 8.08085 74.386 8.66563C74.8698 9.25124 75.567 9.54363 76.4792 9.54363C76.8742 9.54363 77.2554 9.50615 77.6243 9.42959C77.9941 9.34896 78.3777 9.24715 78.776 9.12417V10.4281C78.047 10.7042 77.2195 10.8419 76.2951 10.8419C74.9333 10.8419 73.8876 10.4306 73.1578 9.60796C72.428 8.78046 72.0632 7.59868 72.0632 6.06341C72.0632 5.09664 72.2391 4.2496 72.5917 3.52472C72.9477 2.79904 73.4608 2.24357 74.1311 1.85752C74.8014 1.47146 75.5882 1.27843 76.4922 1.27843C77.4419 1.27843 78.3207 1.47799 79.1262 1.87626L78.5789 3.14275C78.2653 2.99451 77.9322 2.865 77.5803 2.75505C77.2326 2.64021 76.8652 2.5832 76.4792 2.5832ZM83.6953 10.8419C82.6007 10.8419 81.7439 10.5242 81.1241 9.88733C80.5092 9.24716 80.2013 8.36672 80.2013 7.24683C80.2013 6.09762 80.488 5.19357 81.0605 4.53629C81.6331 3.87902 82.4199 3.54998 83.4217 3.54998C84.3502 3.54998 85.084 3.83178 85.6232 4.39621C86.1615 4.96063 86.4311 5.7368 86.4311 6.72556V7.53352H81.7414C81.7626 8.21604 81.9475 8.74219 82.2953 9.11114C82.643 9.47602 83.1325 9.65846 83.7654 9.65846C84.1807 9.65846 84.5668 9.62019 84.9227 9.54363C85.2835 9.46381 85.6696 9.33186 86.0809 9.14942V10.3646C85.716 10.5389 85.3471 10.6619 84.974 10.7336C84.601 10.806 84.1742 10.8419 83.6953 10.8419ZM83.4217 4.68289C82.946 4.68289 82.5649 4.83358 82.2757 5.13412C81.9915 5.43547 81.8221 5.87445 81.7667 6.45191H84.961C84.9529 5.87038 84.8128 5.4314 84.5416 5.13412C84.2695 4.83358 83.8965 4.68289 83.4217 4.68289ZM91.6999 3.54998C92.0004 3.54998 92.2488 3.57116 92.4443 3.61351L92.2977 5.00706C92.086 4.95656 91.8652 4.9305 91.6364 4.9305C91.0377 4.9305 90.5523 5.12597 90.1785 5.5161C89.8095 5.90622 89.6254 6.41364 89.6254 7.03671V10.7148H88.1301V3.67704H89.3005L89.4984 4.91827H89.5741C89.8079 4.49801 90.1109 4.1649 90.4847 3.91893C90.8618 3.67296 91.2666 3.54998 91.6999 3.54998ZM96.3765 9.63321C96.7414 9.63321 97.1063 9.5762 97.4712 9.46136V10.5878C97.305 10.6594 97.0908 10.7189 96.8286 10.7653C96.5696 10.8166 96.3 10.8419 96.0198 10.8419C94.6035 10.8419 93.8949 10.0958 93.8949 8.6021V4.80995H92.9338V4.1486L93.9649 3.60128L94.474 2.11244H95.3967V3.67704H97.4011V4.80995H95.3967V8.57685C95.3967 8.93766 95.4855 9.20481 95.6639 9.37829C95.8463 9.54851 96.0833 9.63321 96.3765 9.63321ZM100.379 10.7148H98.8835V3.67704H100.379V10.7148ZM98.7947 1.81273C98.7947 1.54558 98.8664 1.34034 99.0105 1.19537C99.1596 1.05121 99.3689 0.979522 99.6409 0.979522C99.904 0.979522 100.108 1.05121 100.252 1.19537C100.4 1.34034 100.474 1.54558 100.474 1.81273C100.474 2.06766 100.4 2.26883 100.252 2.41706C100.108 2.56204 99.904 2.6337 99.6409 2.6337C99.3689 2.6337 99.1596 2.56204 99.0105 2.41706C98.8664 2.26883 98.7947 2.06766 98.7947 1.81273ZM106.055 4.80995H104.336V10.7148H102.835V4.80995H101.677V4.11032L102.835 3.65179V3.19405C102.835 2.36248 103.03 1.74756 103.42 1.34848C103.81 0.945317 104.406 0.744141 105.209 0.744141C105.734 0.744141 106.252 0.831294 106.761 1.00478L106.367 2.13769C105.997 2.01878 105.645 1.95933 105.31 1.95933C104.971 1.95933 104.722 2.0652 104.566 2.27777C104.413 2.48546 104.336 2.79904 104.336 3.2193V3.67704H106.055V4.80995ZM108.746 10.7148H107.25V3.67704H108.746V10.7148ZM107.162 1.81273C107.162 1.54558 107.234 1.34034 107.378 1.19537C107.527 1.05121 107.737 0.979522 108.008 0.979522C108.271 0.979522 108.475 1.05121 108.619 1.19537C108.767 1.34034 108.842 1.54558 108.842 1.81273C108.842 2.06766 108.767 2.26883 108.619 2.41706C108.475 2.56204 108.271 2.6337 108.008 2.6337C107.737 2.6337 107.527 2.56204 107.378 2.41706C107.234 2.26883 107.162 2.06766 107.162 1.81273ZM113.734 10.8419C112.67 10.8419 111.86 10.5324 111.304 9.91338C110.753 9.2895 110.477 8.39685 110.477 7.2346C110.477 6.05037 110.766 5.14062 111.342 4.50453C111.923 3.86843 112.761 3.54998 113.856 3.54998C114.598 3.54998 115.266 3.68762 115.86 3.96372L115.408 5.16668C114.776 4.9199 114.254 4.79693 113.843 4.79693C112.625 4.79693 112.017 5.60568 112.017 7.22158C112.017 8.0108 112.167 8.60455 112.469 9.00282C112.774 9.39784 113.22 9.59493 113.804 9.59493C114.471 9.59493 115.1 9.42959 115.695 9.09892V10.4029C115.427 10.5601 115.141 10.6725 114.836 10.7401C114.534 10.8085 114.168 10.8419 113.734 10.8419ZM121.752 10.7148L121.453 9.73502H121.402C121.063 10.1634 120.721 10.4558 120.378 10.613C120.034 10.7653 119.593 10.8419 119.054 10.8419C118.363 10.8419 117.822 10.6554 117.431 10.2823C117.045 9.9085 116.852 9.38074 116.852 8.6974C116.852 7.97253 117.122 7.42519 117.661 7.05624C118.199 6.68729 119.02 6.4853 120.123 6.45191L121.338 6.41363V6.03816C121.338 5.58858 121.232 5.25303 121.021 5.03231C120.812 4.80752 120.488 4.69512 120.047 4.69512C119.687 4.69512 119.34 4.74805 119.01 4.85474C118.679 4.96062 118.361 5.08605 118.055 5.23021L117.571 4.16083C117.953 3.96128 118.371 3.81061 118.825 3.7088C119.279 3.60292 119.708 3.54998 120.11 3.54998C121.005 3.54998 121.68 3.74544 122.134 4.13557C122.592 4.5257 122.821 5.13899 122.821 5.97463V10.7148H121.752ZM119.525 9.69674C120.068 9.69674 120.503 9.54607 120.829 9.24472C121.161 8.93929 121.326 8.51332 121.326 7.966V7.35515L120.422 7.39343C119.718 7.41868 119.205 7.5376 118.883 7.74936C118.564 7.95787 118.405 8.27794 118.405 8.71042C118.405 9.02399 118.498 9.26832 118.685 9.44262C118.872 9.61203 119.151 9.69674 119.525 9.69674ZM127.53 9.63321C127.895 9.63321 128.26 9.5762 128.624 9.46136V10.5878C128.458 10.6594 128.244 10.7189 127.982 10.7653C127.723 10.8166 127.453 10.8419 127.173 10.8419C125.757 10.8419 125.048 10.0958 125.048 8.6021V4.80995H124.087V4.1486L125.118 3.60128L125.627 2.11244H126.55V3.67704H128.554V4.80995H126.55V8.57685C126.55 8.93766 126.639 9.20481 126.817 9.37829C127 9.54851 127.237 9.63321 127.53 9.63321ZM131.532 10.7148H130.037V3.67704H131.532V10.7148ZM129.948 1.81273C129.948 1.54558 130.02 1.34034 130.164 1.19537C130.313 1.05121 130.522 0.979522 130.794 0.979522C131.057 0.979522 131.261 1.05121 131.405 1.19537C131.553 1.34034 131.627 1.54558 131.627 1.81273C131.627 2.06766 131.553 2.26883 131.405 2.41706C131.261 2.56204 131.057 2.6337 130.794 2.6337C130.522 2.6337 130.313 2.56204 130.164 2.41706C130.02 2.26883 129.948 2.06766 129.948 1.81273ZM139.919 7.1833C139.919 8.33333 139.624 9.23005 139.034 9.8751C138.444 10.5193 137.623 10.8419 136.571 10.8419C135.914 10.8419 135.333 10.6937 134.828 10.3964C134.323 10.0999 133.935 9.67312 133.664 9.11766C133.392 8.56219 133.256 7.91714 133.256 7.1833C133.256 6.04224 133.549 5.15121 134.134 4.51104C134.72 3.87006 135.545 3.54998 136.609 3.54998C137.628 3.54998 138.434 3.87902 139.028 4.53629C139.621 5.18949 139.919 6.07156 139.919 7.1833ZM134.796 7.1833C134.796 8.80816 135.397 9.62019 136.597 9.62019C137.785 9.62019 138.378 8.80816 138.378 7.1833C138.378 5.57555 137.781 4.77167 136.584 4.77167C135.956 4.77167 135.5 4.97936 135.216 5.39555C134.937 5.81092 134.796 6.40712 134.796 7.1833ZM147.834 10.7148H146.333V6.38837C146.333 5.84513 146.222 5.43954 146.002 5.17239C145.785 4.90525 145.439 4.77167 144.964 4.77167C144.332 4.77167 143.87 4.95818 143.577 5.33202C143.285 5.70504 143.138 6.33056 143.138 7.20856V10.7148H141.643V3.67704H142.814L143.023 4.59982H143.1C143.312 4.26508 143.613 4.00608 144.003 3.82364C144.394 3.6412 144.827 3.54998 145.301 3.54998C146.99 3.54998 147.834 4.40924 147.834 6.12694V10.7148ZM153.459 1.41201H156.22C157.501 1.41201 158.427 1.59851 158.995 1.97235C159.568 2.34537 159.853 2.93504 159.853 3.74136C159.853 4.2838 159.714 4.73583 159.434 5.09664C159.154 5.45663 158.751 5.68386 158.225 5.77753V5.84106C158.878 5.96404 159.357 6.20757 159.663 6.57245C159.972 6.93326 160.127 7.42275 160.127 8.04256C160.127 8.8782 159.835 9.53303 159.249 10.0087C158.668 10.4794 157.858 10.7148 156.819 10.7148H153.459V1.41201ZM154.98 5.25546H156.443C157.079 5.25546 157.544 5.15528 157.837 4.95655C158.129 4.75293 158.276 4.40924 158.276 3.92544C158.276 3.48889 158.117 3.17288 157.799 2.97741C157.485 2.78193 156.984 2.68501 156.297 2.68501H154.98V5.25546ZM154.98 6.48939V9.43611H156.596C157.233 9.43611 157.711 9.31476 158.034 9.07287C158.361 8.8269 158.524 8.44085 158.524 7.9147C158.524 7.43172 158.358 7.07335 158.027 6.8396C157.697 6.60666 157.194 6.48939 156.52 6.48939H154.98ZM168.145 7.1833C168.145 8.33333 167.85 9.23005 167.26 9.8751C166.671 10.5193 165.85 10.8419 164.798 10.8419C164.14 10.8419 163.559 10.6937 163.054 10.3964C162.549 10.0999 162.162 9.67312 161.89 9.11766C161.618 8.56219 161.482 7.91714 161.482 7.1833C161.482 6.04224 161.776 5.15121 162.361 4.51104C162.946 3.87006 163.771 3.54998 164.836 3.54998C165.854 3.54998 166.66 3.87902 167.254 4.53629C167.847 5.18949 168.145 6.07156 168.145 7.1833ZM163.023 7.1833C163.023 8.80816 163.623 9.62019 164.823 9.62019C166.011 9.62019 166.605 8.80816 166.605 7.1833C166.605 5.57555 166.007 4.77167 164.81 4.77167C164.182 4.77167 163.727 4.97936 163.443 5.39555C163.163 5.81092 163.023 6.40712 163.023 7.1833ZM172.242 10.8419C171.364 10.8419 170.679 10.5242 170.187 9.88733C169.695 9.25124 169.45 8.35858 169.45 7.20856C169.45 6.05527 169.697 5.15772 170.194 4.51755C170.694 3.8725 171.385 3.54998 172.268 3.54998C173.193 3.54998 173.897 3.89123 174.38 4.57457H174.457C174.385 4.0696 174.349 3.67133 174.349 3.37813V0.814183H175.85V10.7148H174.679L174.419 9.79204H174.349C173.87 10.4925 173.168 10.8419 172.242 10.8419ZM172.643 9.63321C173.259 9.63321 173.706 9.46136 173.986 9.11766C174.266 8.76988 174.41 8.20789 174.419 7.43171V7.22158C174.419 6.33463 174.274 5.70504 173.986 5.33202C173.698 4.95818 173.246 4.77167 172.631 4.77167C172.105 4.77167 171.7 4.98588 171.416 5.41429C171.131 5.83862 170.989 6.44539 170.989 7.2346C170.989 8.01486 171.127 8.61106 171.403 9.02236C171.679 9.42959 172.092 9.63321 172.643 9.63321ZM176.919 3.67704H178.548L179.98 7.66709C180.196 8.23559 180.341 8.76987 180.413 9.27077H180.464C180.502 9.03702 180.572 8.75521 180.674 8.42454C180.775 8.08898 181.314 6.50649 182.29 3.67704H183.906L180.896 11.6498C180.349 13.1134 179.437 13.8456 178.16 13.8456C177.83 13.8456 177.507 13.809 177.193 13.7373V12.5539C177.417 12.6044 177.675 12.6304 177.963 12.6304C178.684 12.6304 179.191 12.2126 179.484 11.3762L179.744 10.7148L176.919 3.67704Z" fill="#5C5C5C"/>
</svg>
