<svg width="535" height="447" viewBox="0 0 535 447" fill="none" xmlns="http://www.w3.org/2000/svg">
<path d="M192.075 178.924H239.86" stroke="#4AC3ED" stroke-dasharray="2 2"/>
<path d="M192.075 178.924H239.86" stroke="#4AC3ED" stroke-dasharray="2 2"/>
<path d="M525 28.4238H10C4.47715 28.4238 0 32.901 0 38.4238V409.424C0 414.947 4.47715 419.424 10 419.424H525C530.523 419.424 535 414.947 535 409.424V38.4238C535 32.901 530.523 28.4238 525 28.4238Z" fill="white"/>
<path d="M529.5 28.4238H5.5V407.424H529.5V28.4238Z" fill="white"/>
<path d="M45.5 223.424C45.5 212.378 36.5457 203.424 25.5 203.424C14.4543 203.424 5.5 212.378 5.5 223.424C5.5 234.47 14.4543 243.424 25.5 243.424C36.5457 243.424 45.5 234.47 45.5 223.424Z" fill="#00A3FF"/>
<path fill-rule="evenodd" clip-rule="evenodd" d="M33.9537 213.519C34.0443 213.575 34.119 213.654 34.1709 213.747C34.2227 213.84 34.2499 213.944 34.25 214.051V232.801C34.25 232.966 34.1842 233.125 34.0669 233.243C33.9497 233.36 33.7908 233.426 33.625 233.426H29.875C29.7092 233.426 29.5503 233.36 29.4331 233.243C29.3158 233.125 29.25 232.966 29.25 232.801V230.926H28V232.801C28 232.966 27.9342 233.125 27.8169 233.243C27.6997 233.36 27.5408 233.426 27.375 233.426H16.125C15.9592 233.426 15.8003 233.36 15.6831 233.243C15.5658 233.125 15.5 232.966 15.5 232.801V225.926C15.5001 225.795 15.5414 225.667 15.6182 225.56C15.6949 225.454 15.8031 225.375 15.9275 225.333L23 222.976V219.051C23 218.935 23.0323 218.821 23.0932 218.722C23.1541 218.624 23.2413 218.544 23.345 218.492L33.345 213.492C33.4404 213.444 33.5464 213.422 33.653 213.426C33.7595 213.431 33.8631 213.463 33.9537 213.519ZM23 224.293L16.75 226.376V232.176H23V224.293ZM24.25 232.176H26.75V230.301C26.75 230.135 26.8158 229.976 26.9331 229.859C27.0503 229.741 27.2092 229.676 27.375 229.676H29.875C30.0408 229.676 30.1997 229.741 30.3169 229.859C30.4342 229.976 30.5 230.135 30.5 230.301V232.176H33V215.062L24.25 219.437V232.176Z" fill="white"/>
<path d="M18 227.174H19.25V228.424H18V227.174ZM20.5 227.174H21.75V228.424H20.5V227.174ZM18 229.674H19.25V230.924H18V229.674ZM20.5 229.674H21.75V230.924H20.5V229.674ZM25.5 224.674H26.75V225.924H25.5V224.674ZM28 224.674H29.25V225.924H28V224.674ZM25.5 227.174H26.75V228.424H25.5V227.174ZM28 227.174H29.25V228.424H28V227.174ZM30.5 224.674H31.75V225.924H30.5V224.674ZM30.5 227.174H31.75V228.424H30.5V227.174ZM25.5 222.174H26.75V223.424H25.5V222.174ZM28 222.174H29.25V223.424H28V222.174ZM30.5 222.174H31.75V223.424H30.5V222.174ZM25.5 219.674H26.75V220.924H25.5V219.674ZM28 219.674H29.25V220.924H28V219.674ZM30.5 219.674H31.75V220.924H30.5V219.674ZM30.5 217.174H31.75V218.424H30.5V217.174Z" fill="white"/>
<path d="M54.166 216.142C54.166 214.918 54.448 213.82 55.012 212.848C55.588 211.876 56.362 211.12 57.334 210.58C58.318 210.028 59.392 209.752 60.556 209.752C61.888 209.752 63.07 210.082 64.102 210.742C65.146 211.39 65.902 212.314 66.37 213.514H63.904C63.58 212.854 63.13 212.362 62.554 212.038C61.978 211.714 61.312 211.552 60.556 211.552C59.728 211.552 58.99 211.738 58.342 212.11C57.694 212.482 57.184 213.016 56.812 213.712C56.452 214.408 56.272 215.218 56.272 216.142C56.272 217.066 56.452 217.876 56.812 218.572C57.184 219.268 57.694 219.808 58.342 220.192C58.99 220.564 59.728 220.75 60.556 220.75C61.312 220.75 61.978 220.588 62.554 220.264C63.13 219.94 63.58 219.448 63.904 218.788H66.37C65.902 219.988 65.146 220.912 64.102 221.56C63.07 222.208 61.888 222.532 60.556 222.532C59.38 222.532 58.306 222.262 57.334 221.722C56.362 221.17 55.588 220.408 55.012 219.436C54.448 218.464 54.166 217.366 54.166 216.142ZM73.0739 222.586C72.1379 222.586 71.2919 222.376 70.5359 221.956C69.7799 221.524 69.1859 220.924 68.7539 220.156C68.3219 219.376 68.1059 218.476 68.1059 217.456C68.1059 216.448 68.3279 215.554 68.7719 214.774C69.2159 213.994 69.8219 213.394 70.5899 212.974C71.3579 212.554 72.2159 212.344 73.1639 212.344C74.1119 212.344 74.9699 212.554 75.7379 212.974C76.5059 213.394 77.1119 213.994 77.5559 214.774C77.9999 215.554 78.2219 216.448 78.2219 217.456C78.2219 218.464 77.9939 219.358 77.5379 220.138C77.0819 220.918 76.4579 221.524 75.6659 221.956C74.8859 222.376 74.0219 222.586 73.0739 222.586ZM73.0739 220.804C73.6019 220.804 74.0939 220.678 74.5499 220.426C75.0179 220.174 75.3959 219.796 75.6839 219.292C75.9719 218.788 76.1159 218.176 76.1159 217.456C76.1159 216.736 75.9779 216.13 75.7019 215.638C75.4259 215.134 75.0599 214.756 74.6039 214.504C74.1479 214.252 73.6559 214.126 73.1279 214.126C72.5999 214.126 72.1079 214.252 71.6519 214.504C71.2079 214.756 70.8539 215.134 70.5899 215.638C70.3259 216.13 70.1939 216.736 70.1939 217.456C70.1939 218.524 70.4639 219.352 71.0039 219.94C71.5559 220.516 72.2459 220.804 73.0739 220.804ZM92.2564 212.344C93.0364 212.344 93.7324 212.506 94.3444 212.83C94.9684 213.154 95.4544 213.634 95.8024 214.27C96.1624 214.906 96.3424 215.674 96.3424 216.574V222.424H94.3084V216.88C94.3084 215.992 94.0864 215.314 93.6424 214.846C93.1984 214.366 92.5924 214.126 91.8244 214.126C91.0564 214.126 90.4444 214.366 89.9884 214.846C89.5444 215.314 89.3224 215.992 89.3224 216.88V222.424H87.2884V216.88C87.2884 215.992 87.0664 215.314 86.6224 214.846C86.1784 214.366 85.5724 214.126 84.8044 214.126C84.0364 214.126 83.4244 214.366 82.9684 214.846C82.5244 215.314 82.3024 215.992 82.3024 216.88V222.424H80.2504V212.506H82.3024V213.64C82.6384 213.232 83.0644 212.914 83.5804 212.686C84.0964 212.458 84.6484 212.344 85.2364 212.344C86.0284 212.344 86.7364 212.512 87.3604 212.848C87.9844 213.184 88.4644 213.67 88.8004 214.306C89.1004 213.706 89.5684 213.232 90.2044 212.884C90.8404 212.524 91.5244 212.344 92.2564 212.344ZM101.006 213.964C101.354 213.508 101.828 213.124 102.428 212.812C103.028 212.5 103.706 212.344 104.462 212.344C105.326 212.344 106.112 212.56 106.82 212.992C107.54 213.412 108.104 214.006 108.512 214.774C108.92 215.542 109.124 216.424 109.124 217.42C109.124 218.416 108.92 219.31 108.512 220.102C108.104 220.882 107.54 221.494 106.82 221.938C106.112 222.37 105.326 222.586 104.462 222.586C103.706 222.586 103.034 222.436 102.446 222.136C101.858 221.824 101.378 221.44 101.006 220.984V227.14H98.9535V212.506H101.006V213.964ZM107.036 217.42C107.036 216.736 106.892 216.148 106.604 215.656C106.328 215.152 105.956 214.774 105.488 214.522C105.032 214.258 104.54 214.126 104.012 214.126C103.496 214.126 103.004 214.258 102.536 214.522C102.08 214.786 101.708 215.17 101.42 215.674C101.144 216.178 101.006 216.772 101.006 217.456C101.006 218.14 101.144 218.74 101.42 219.256C101.708 219.76 102.08 220.144 102.536 220.408C103.004 220.672 103.496 220.804 104.012 220.804C104.54 220.804 105.032 220.672 105.488 220.408C105.956 220.132 106.328 219.736 106.604 219.22C106.892 218.704 107.036 218.104 107.036 217.42ZM110.469 217.42C110.469 216.424 110.673 215.542 111.081 214.774C111.501 214.006 112.065 213.412 112.773 212.992C113.493 212.56 114.285 212.344 115.149 212.344C115.929 212.344 116.607 212.5 117.183 212.812C117.771 213.112 118.239 213.49 118.587 213.946V212.506H120.657V222.424H118.587V220.948C118.239 221.416 117.765 221.806 117.165 222.118C116.565 222.43 115.881 222.586 115.113 222.586C114.261 222.586 113.481 222.37 112.773 221.938C112.065 221.494 111.501 220.882 111.081 220.102C110.673 219.31 110.469 218.416 110.469 217.42ZM118.587 217.456C118.587 216.772 118.443 216.178 118.155 215.674C117.879 215.17 117.513 214.786 117.057 214.522C116.601 214.258 116.109 214.126 115.581 214.126C115.053 214.126 114.561 214.258 114.105 214.522C113.649 214.774 113.277 215.152 112.989 215.656C112.713 216.148 112.575 216.736 112.575 217.42C112.575 218.104 112.713 218.704 112.989 219.22C113.277 219.736 113.649 220.132 114.105 220.408C114.573 220.672 115.065 220.804 115.581 220.804C116.109 220.804 116.601 220.672 117.057 220.408C117.513 220.144 117.879 219.76 118.155 219.256C118.443 218.74 118.587 218.14 118.587 217.456ZM128.356 212.344C129.136 212.344 129.832 212.506 130.444 212.83C131.068 213.154 131.554 213.634 131.902 214.27C132.25 214.906 132.424 215.674 132.424 216.574V222.424H130.39V216.88C130.39 215.992 130.168 215.314 129.724 214.846C129.28 214.366 128.674 214.126 127.906 214.126C127.138 214.126 126.526 214.366 126.07 214.846C125.626 215.314 125.404 215.992 125.404 216.88V222.424H123.352V212.506H125.404V213.64C125.74 213.232 126.166 212.914 126.682 212.686C127.21 212.458 127.768 212.344 128.356 212.344ZM143.969 212.506L137.885 227.086H135.761L137.777 222.262L133.871 212.506H136.157L138.947 220.066L141.845 212.506H143.969ZM157.736 219.868H152.498L151.598 222.424H149.456L153.938 209.896H156.314L160.796 222.424H158.636L157.736 219.868ZM157.16 218.194L155.126 212.38L153.074 218.194H157.16ZM169.441 215.998C170.113 216.118 170.683 216.472 171.151 217.06C171.619 217.648 171.853 218.314 171.853 219.058C171.853 219.694 171.685 220.27 171.349 220.786C171.025 221.29 170.551 221.692 169.927 221.992C169.303 222.28 168.577 222.424 167.749 222.424H162.745V209.914H167.515C168.367 209.914 169.099 210.058 169.711 210.346C170.323 210.634 170.785 211.024 171.097 211.516C171.409 211.996 171.565 212.536 171.565 213.136C171.565 213.856 171.373 214.456 170.989 214.936C170.605 215.416 170.089 215.77 169.441 215.998ZM164.797 215.17H167.335C168.007 215.17 168.529 215.02 168.901 214.72C169.285 214.408 169.477 213.964 169.477 213.388C169.477 212.824 169.285 212.386 168.901 212.074C168.529 211.75 168.007 211.588 167.335 211.588H164.797V215.17ZM167.569 220.75C168.265 220.75 168.811 220.582 169.207 220.246C169.603 219.91 169.801 219.442 169.801 218.842C169.801 218.23 169.591 217.744 169.171 217.384C168.751 217.024 168.193 216.844 167.497 216.844H164.797V220.75H167.569ZM173.398 216.142C173.398 214.918 173.68 213.82 174.244 212.848C174.82 211.876 175.594 211.12 176.566 210.58C177.55 210.028 178.624 209.752 179.788 209.752C181.12 209.752 182.302 210.082 183.334 210.742C184.378 211.39 185.134 212.314 185.602 213.514H183.136C182.812 212.854 182.362 212.362 181.786 212.038C181.21 211.714 180.544 211.552 179.788 211.552C178.96 211.552 178.222 211.738 177.574 212.11C176.926 212.482 176.416 213.016 176.044 213.712C175.684 214.408 175.504 215.218 175.504 216.142C175.504 217.066 175.684 217.876 176.044 218.572C176.416 219.268 176.926 219.808 177.574 220.192C178.222 220.564 178.96 220.75 179.788 220.75C180.544 220.75 181.21 220.588 181.786 220.264C182.362 219.94 182.812 219.448 183.136 218.788H185.602C185.134 219.988 184.378 220.912 183.334 221.56C182.302 222.208 181.12 222.532 179.788 222.532C178.612 222.532 177.538 222.262 176.566 221.722C175.594 221.17 174.82 220.408 174.244 219.436C173.68 218.464 173.398 217.366 173.398 216.142Z" fill="#4C4C4C"/>
<path opacity="0.5" d="M55.16 233.454V237.864C55.16 238.484 55.31 238.944 55.61 239.244C55.9167 239.544 56.34 239.694 56.88 239.694C57.4133 239.694 57.83 239.544 58.13 239.244C58.4367 238.944 58.59 238.484 58.59 237.864V233.454H59.5V237.854C59.5 238.434 59.3833 238.924 59.15 239.324C58.9167 239.717 58.6 240.01 58.2 240.204C57.8067 240.397 57.3633 240.494 56.87 240.494C56.3767 240.494 55.93 240.397 55.53 240.204C55.1367 240.01 54.8233 239.717 54.59 239.324C54.3633 238.924 54.25 238.434 54.25 237.854V233.454H55.16ZM63.688 234.844C64.3547 234.844 64.8947 235.047 65.308 235.454C65.7214 235.854 65.928 236.434 65.928 237.194V240.424H65.028V237.324C65.028 236.777 64.8914 236.36 64.618 236.074C64.3447 235.78 63.9714 235.634 63.498 235.634C63.018 235.634 62.6347 235.784 62.348 236.084C62.068 236.384 61.928 236.82 61.928 237.394V240.424H61.018V234.944H61.928V235.724C62.108 235.444 62.3514 235.227 62.658 235.074C62.9714 234.92 63.3147 234.844 63.688 234.844ZM67.8845 234.054C67.7112 234.054 67.5645 233.994 67.4445 233.874C67.3245 233.754 67.2645 233.607 67.2645 233.434C67.2645 233.26 67.3245 233.114 67.4445 232.994C67.5645 232.874 67.7112 232.814 67.8845 232.814C68.0512 232.814 68.1912 232.874 68.3045 232.994C68.4245 233.114 68.4845 233.26 68.4845 233.434C68.4845 233.607 68.4245 233.754 68.3045 233.874C68.1912 233.994 68.0512 234.054 67.8845 234.054ZM68.3245 234.944V240.424H67.4145V234.944H68.3245ZM70.9855 235.694V238.924C70.9855 239.19 71.0421 239.38 71.1555 239.494C71.2688 239.6 71.4655 239.654 71.7455 239.654H72.4155V240.424H71.5955C71.0888 240.424 70.7088 240.307 70.4555 240.074C70.2021 239.84 70.0755 239.457 70.0755 238.924V235.694H69.3655V234.944H70.0755V233.564H70.9855V234.944H72.4155V235.694H70.9855ZM78.518 237.474C78.518 237.647 78.508 237.83 78.488 238.024H74.108C74.1414 238.564 74.3247 238.987 74.658 239.294C74.998 239.594 75.408 239.744 75.888 239.744C76.2814 239.744 76.608 239.654 76.868 239.474C77.1347 239.287 77.3214 239.04 77.428 238.734H78.408C78.2614 239.26 77.968 239.69 77.528 240.024C77.088 240.35 76.5414 240.514 75.888 240.514C75.368 240.514 74.9014 240.397 74.488 240.164C74.0814 239.93 73.7614 239.6 73.528 239.174C73.2947 238.74 73.178 238.24 73.178 237.674C73.178 237.107 73.2914 236.61 73.518 236.184C73.7447 235.757 74.0614 235.43 74.468 235.204C74.8814 234.97 75.3547 234.854 75.888 234.854C76.408 234.854 76.868 234.967 77.268 235.194C77.668 235.42 77.9747 235.734 78.188 236.134C78.408 236.527 78.518 236.974 78.518 237.474ZM77.578 237.284C77.578 236.937 77.5014 236.64 77.348 236.394C77.1947 236.14 76.9847 235.95 76.718 235.824C76.458 235.69 76.168 235.624 75.848 235.624C75.388 235.624 74.9947 235.77 74.668 236.064C74.348 236.357 74.1647 236.764 74.118 237.284H77.578ZM79.3792 237.664C79.3792 237.104 79.4926 236.614 79.7192 236.194C79.9459 235.767 80.2559 235.437 80.6492 235.204C81.0492 234.97 81.4959 234.854 81.9892 234.854C82.4159 234.854 82.8126 234.954 83.1792 235.154C83.5459 235.347 83.8259 235.604 84.0192 235.924V233.024H84.9392V240.424H84.0192V239.394C83.8392 239.72 83.5726 239.99 83.2192 240.204C82.8659 240.41 82.4526 240.514 81.9792 240.514C81.4926 240.514 81.0492 240.394 80.6492 240.154C80.2559 239.914 79.9459 239.577 79.7192 239.144C79.4926 238.71 79.3792 238.217 79.3792 237.664ZM84.0192 237.674C84.0192 237.26 83.9359 236.9 83.7692 236.594C83.6026 236.287 83.3759 236.054 83.0892 235.894C82.8092 235.727 82.4992 235.644 82.1592 235.644C81.8192 235.644 81.5092 235.724 81.2292 235.884C80.9492 236.044 80.7259 236.277 80.5592 236.584C80.3926 236.89 80.3092 237.25 80.3092 237.664C80.3092 238.084 80.3926 238.45 80.5592 238.764C80.7259 239.07 80.9492 239.307 81.2292 239.474C81.5092 239.634 81.8192 239.714 82.1592 239.714C82.4992 239.714 82.8092 239.634 83.0892 239.474C83.3759 239.307 83.6026 239.07 83.7692 238.764C83.9359 238.45 84.0192 238.087 84.0192 237.674ZM92.923 240.424L90.053 237.244V240.424H89.143V233.454H90.053V236.684L92.933 233.454H94.083L90.923 236.944L94.113 240.424H92.923ZM95.5994 234.054C95.426 234.054 95.2794 233.994 95.1594 233.874C95.0394 233.754 94.9794 233.607 94.9794 233.434C94.9794 233.26 95.0394 233.114 95.1594 232.994C95.2794 232.874 95.426 232.814 95.5994 232.814C95.766 232.814 95.906 232.874 96.0194 232.994C96.1394 233.114 96.1994 233.26 96.1994 233.434C96.1994 233.607 96.1394 233.754 96.0194 233.874C95.906 233.994 95.766 234.054 95.5994 234.054ZM96.0394 234.944V240.424H95.1294V234.944H96.0394ZM100.26 234.844C100.927 234.844 101.467 235.047 101.88 235.454C102.294 235.854 102.5 236.434 102.5 237.194V240.424H101.6V237.324C101.6 236.777 101.464 236.36 101.19 236.074C100.917 235.78 100.544 235.634 100.07 235.634C99.5903 235.634 99.207 235.784 98.9203 236.084C98.6403 236.384 98.5003 236.82 98.5003 237.394V240.424H97.5903V234.944H98.5003V235.724C98.6803 235.444 98.9236 235.227 99.2303 235.074C99.5436 234.92 99.887 234.844 100.26 234.844ZM106.247 234.854C106.72 234.854 107.133 234.957 107.487 235.164C107.847 235.37 108.113 235.63 108.287 235.944V234.944H109.207V240.544C109.207 241.044 109.1 241.487 108.887 241.874C108.673 242.267 108.367 242.574 107.967 242.794C107.573 243.014 107.113 243.124 106.587 243.124C105.867 243.124 105.267 242.954 104.787 242.614C104.307 242.274 104.023 241.81 103.937 241.224H104.837C104.937 241.557 105.143 241.824 105.457 242.024C105.77 242.23 106.147 242.334 106.587 242.334C107.087 242.334 107.493 242.177 107.807 241.864C108.127 241.55 108.287 241.11 108.287 240.544V239.394C108.107 239.714 107.84 239.98 107.487 240.194C107.133 240.407 106.72 240.514 106.247 240.514C105.76 240.514 105.317 240.394 104.917 240.154C104.523 239.914 104.213 239.577 103.987 239.144C103.76 238.71 103.647 238.217 103.647 237.664C103.647 237.104 103.76 236.614 103.987 236.194C104.213 235.767 104.523 235.437 104.917 235.204C105.317 234.97 105.76 234.854 106.247 234.854ZM108.287 237.674C108.287 237.26 108.203 236.9 108.037 236.594C107.87 236.287 107.643 236.054 107.357 235.894C107.077 235.727 106.767 235.644 106.427 235.644C106.087 235.644 105.777 235.724 105.497 235.884C105.217 236.044 104.993 236.277 104.827 236.584C104.66 236.89 104.577 237.25 104.577 237.664C104.577 238.084 104.66 238.45 104.827 238.764C104.993 239.07 105.217 239.307 105.497 239.474C105.777 239.634 106.087 239.714 106.427 239.714C106.767 239.714 107.077 239.634 107.357 239.474C107.643 239.307 107.87 239.07 108.037 238.764C108.203 238.45 108.287 238.087 108.287 237.674ZM110.405 237.664C110.405 237.104 110.518 236.614 110.745 236.194C110.971 235.767 111.281 235.437 111.675 235.204C112.075 234.97 112.521 234.854 113.015 234.854C113.441 234.854 113.838 234.954 114.205 235.154C114.571 235.347 114.851 235.604 115.045 235.924V233.024H115.965V240.424H115.045V239.394C114.865 239.72 114.598 239.99 114.245 240.204C113.891 240.41 113.478 240.514 113.005 240.514C112.518 240.514 112.075 240.394 111.675 240.154C111.281 239.914 110.971 239.577 110.745 239.144C110.518 238.71 110.405 238.217 110.405 237.664ZM115.045 237.674C115.045 237.26 114.961 236.9 114.795 236.594C114.628 236.287 114.401 236.054 114.115 235.894C113.835 235.727 113.525 235.644 113.185 235.644C112.845 235.644 112.535 235.724 112.255 235.884C111.975 236.044 111.751 236.277 111.585 236.584C111.418 236.89 111.335 237.25 111.335 237.664C111.335 238.084 111.418 238.45 111.585 238.764C111.751 239.07 111.975 239.307 112.255 239.474C112.535 239.634 112.845 239.714 113.185 239.714C113.525 239.714 113.835 239.634 114.115 239.474C114.401 239.307 114.628 239.07 114.795 238.764C114.961 238.45 115.045 238.087 115.045 237.674ZM119.892 240.514C119.379 240.514 118.912 240.397 118.492 240.164C118.079 239.93 117.752 239.6 117.512 239.174C117.279 238.74 117.162 238.24 117.162 237.674C117.162 237.114 117.282 236.62 117.522 236.194C117.769 235.76 118.102 235.43 118.522 235.204C118.942 234.97 119.412 234.854 119.932 234.854C120.452 234.854 120.922 234.97 121.342 235.204C121.762 235.43 122.092 235.757 122.332 236.184C122.579 236.61 122.702 237.107 122.702 237.674C122.702 238.24 122.576 238.74 122.322 239.174C122.076 239.6 121.739 239.93 121.312 240.164C120.886 240.397 120.412 240.514 119.892 240.514ZM119.892 239.714C120.219 239.714 120.526 239.637 120.812 239.484C121.099 239.33 121.329 239.1 121.502 238.794C121.682 238.487 121.772 238.114 121.772 237.674C121.772 237.234 121.686 236.86 121.512 236.554C121.339 236.247 121.112 236.02 120.832 235.874C120.552 235.72 120.249 235.644 119.922 235.644C119.589 235.644 119.282 235.72 119.002 235.874C118.729 236.02 118.509 236.247 118.342 236.554C118.176 236.86 118.092 237.234 118.092 237.674C118.092 238.12 118.172 238.497 118.332 238.804C118.499 239.11 118.719 239.34 118.992 239.494C119.266 239.64 119.566 239.714 119.892 239.714ZM130.489 234.844C130.916 234.844 131.296 234.934 131.629 235.114C131.962 235.287 132.226 235.55 132.419 235.904C132.612 236.257 132.709 236.687 132.709 237.194V240.424H131.809V237.324C131.809 236.777 131.672 236.36 131.399 236.074C131.132 235.78 130.769 235.634 130.309 235.634C129.836 235.634 129.459 235.787 129.179 236.094C128.899 236.394 128.759 236.83 128.759 237.404V240.424H127.859V237.324C127.859 236.777 127.722 236.36 127.449 236.074C127.182 235.78 126.819 235.634 126.359 235.634C125.886 235.634 125.509 235.787 125.229 236.094C124.949 236.394 124.809 236.83 124.809 237.404V240.424H123.899V234.944H124.809V235.734C124.989 235.447 125.229 235.227 125.529 235.074C125.836 234.92 126.172 234.844 126.539 234.844C126.999 234.844 127.406 234.947 127.759 235.154C128.112 235.36 128.376 235.664 128.549 236.064C128.702 235.677 128.956 235.377 129.309 235.164C129.662 234.95 130.056 234.844 130.489 234.844Z" fill="#7E8299"/>
<g filter="url(#filter0_i_2_2619)">
<path d="M513.5 52.4238H297.5C288.663 52.4238 281.5 59.5873 281.5 68.4238V125.424C281.5 134.26 288.663 141.424 297.5 141.424H513.5C522.337 141.424 529.5 134.26 529.5 125.424V68.4238C529.5 59.5873 522.337 52.4238 513.5 52.4238Z" fill="#F5FAFF"/>
<path d="M328.5 96.9238C328.5 90.5726 323.351 85.4238 317 85.4238C310.649 85.4238 305.5 90.5726 305.5 96.9238C305.5 103.275 310.649 108.424 317 108.424C323.351 108.424 328.5 103.275 328.5 96.9238Z" fill="url(#paint0_linear_2_2619)"/>
<path d="M324.557 93.3916L322.889 90.7284C322.739 90.4893 322.475 90.3428 322.192 90.3428H311.806C311.524 90.3428 311.259 90.4893 311.11 90.7284L309.441 93.3916C308.58 94.7669 309.344 96.6794 310.953 96.8979C311.069 96.9134 311.187 96.9211 311.305 96.9211C312.066 96.9211 312.74 96.5869 313.202 96.0702C313.665 96.5869 314.341 96.9211 315.099 96.9211C315.86 96.9211 316.534 96.5869 316.997 96.0702C317.459 96.5869 318.135 96.9211 318.894 96.9211C319.655 96.9211 320.328 96.5869 320.791 96.0702C321.256 96.5869 321.93 96.9211 322.688 96.9211C322.809 96.9211 322.925 96.9134 323.04 96.8979C324.655 96.682 325.421 94.7694 324.557 93.3916ZM322.693 97.7463C322.436 97.7463 322.182 97.7077 321.935 97.6486V100.214H312.064V97.6486C311.817 97.7051 311.562 97.7463 311.305 97.7463C311.151 97.7463 310.994 97.736 310.842 97.7154C310.699 97.6948 310.557 97.6614 310.421 97.6229V102.682C310.421 103.137 310.788 103.505 311.243 103.505H322.76C323.215 103.505 323.583 103.137 323.583 102.682V97.6229C323.444 97.664 323.305 97.6974 323.161 97.7154C323.004 97.736 322.85 97.7463 322.693 97.7463Z" fill="#E6F7FF"/>
<path d="M339.672 101.522C339.028 101.522 338.449 101.41 337.936 101.186C337.432 100.952 337.035 100.635 336.746 100.234C336.457 99.8229 336.307 99.3515 336.298 98.8195H337.656C337.703 99.2769 337.889 99.6642 338.216 99.9815C338.552 100.29 339.037 100.444 339.672 100.444C340.279 100.444 340.755 100.294 341.1 99.9955C341.455 99.6875 341.632 99.2955 341.632 98.8195C341.632 98.4462 341.529 98.1429 341.324 97.9095C341.119 97.6762 340.862 97.4989 340.554 97.3775C340.246 97.2562 339.831 97.1255 339.308 96.9855C338.664 96.8175 338.146 96.6495 337.754 96.4815C337.371 96.3135 337.04 96.0522 336.76 95.6975C336.489 95.3335 336.354 94.8482 336.354 94.2415C336.354 93.7095 336.489 93.2382 336.76 92.8275C337.031 92.4169 337.409 92.0995 337.894 91.8755C338.389 91.6515 338.953 91.5395 339.588 91.5395C340.503 91.5395 341.249 91.7682 341.828 92.2255C342.416 92.6829 342.747 93.2895 342.822 94.0455H341.422C341.375 93.6722 341.179 93.3455 340.834 93.0655C340.489 92.7762 340.031 92.6315 339.462 92.6315C338.93 92.6315 338.496 92.7715 338.16 93.0515C337.824 93.3222 337.656 93.7049 337.656 94.1995C337.656 94.5542 337.754 94.8435 337.95 95.0675C338.155 95.2915 338.403 95.4642 338.692 95.5855C338.991 95.6975 339.406 95.8282 339.938 95.9775C340.582 96.1549 341.1 96.3322 341.492 96.5095C341.884 96.6775 342.22 96.9435 342.5 97.3075C342.78 97.6622 342.92 98.1475 342.92 98.7635C342.92 99.2395 342.794 99.6875 342.542 100.108C342.29 100.528 341.917 100.868 341.422 101.13C340.927 101.391 340.344 101.522 339.672 101.522ZM351.599 93.7515V101.424H350.325V100.29C350.082 100.682 349.741 100.99 349.303 101.214C348.873 101.428 348.397 101.536 347.875 101.536C347.277 101.536 346.741 101.414 346.265 101.172C345.789 100.92 345.411 100.546 345.131 100.052C344.86 99.5569 344.725 98.9549 344.725 98.2455V93.7515H345.985V98.0775C345.985 98.8335 346.176 99.4169 346.559 99.8275C346.941 100.229 347.464 100.43 348.127 100.43C348.808 100.43 349.345 100.22 349.737 99.7995C350.129 99.3795 350.325 98.7682 350.325 97.9655V93.7515H351.599ZM355.024 95.1655C355.276 94.7269 355.649 94.3629 356.144 94.0735C356.648 93.7749 357.231 93.6255 357.894 93.6255C358.575 93.6255 359.191 93.7889 359.742 94.1155C360.302 94.4422 360.741 94.9042 361.058 95.5015C361.375 96.0895 361.534 96.7755 361.534 97.5595C361.534 98.3342 361.375 99.0249 361.058 99.6315C360.741 100.238 360.302 100.71 359.742 101.046C359.191 101.382 358.575 101.55 357.894 101.55C357.241 101.55 356.662 101.405 356.158 101.116C355.663 100.817 355.285 100.448 355.024 100.01V105.064H353.75V93.7515H355.024V95.1655ZM360.232 97.5595C360.232 96.9809 360.115 96.4769 359.882 96.0475C359.649 95.6182 359.331 95.2915 358.93 95.0675C358.538 94.8435 358.104 94.7315 357.628 94.7315C357.161 94.7315 356.727 94.8482 356.326 95.0815C355.934 95.3055 355.617 95.6369 355.374 96.0755C355.141 96.5049 355.024 97.0042 355.024 97.5735C355.024 98.1522 355.141 98.6609 355.374 99.0995C355.617 99.5289 355.934 99.8602 356.326 100.094C356.727 100.318 357.161 100.43 357.628 100.43C358.104 100.43 358.538 100.318 358.93 100.094C359.331 99.8602 359.649 99.5289 359.882 99.0995C360.115 98.6609 360.232 98.1475 360.232 97.5595ZM364.485 95.1655C364.737 94.7269 365.11 94.3629 365.605 94.0735C366.109 93.7749 366.692 93.6255 367.355 93.6255C368.036 93.6255 368.652 93.7889 369.203 94.1155C369.763 94.4422 370.201 94.9042 370.519 95.5015C370.836 96.0895 370.995 96.7755 370.995 97.5595C370.995 98.3342 370.836 99.0249 370.519 99.6315C370.201 100.238 369.763 100.71 369.203 101.046C368.652 101.382 368.036 101.55 367.355 101.55C366.701 101.55 366.123 101.405 365.619 101.116C365.124 100.817 364.746 100.448 364.485 100.01V105.064H363.211V93.7515H364.485V95.1655ZM369.693 97.5595C369.693 96.9809 369.576 96.4769 369.343 96.0475C369.109 95.6182 368.792 95.2915 368.391 95.0675C367.999 94.8435 367.565 94.7315 367.089 94.7315C366.622 94.7315 366.188 94.8482 365.787 95.0815C365.395 95.3055 365.077 95.6369 364.835 96.0755C364.601 96.5049 364.485 97.0042 364.485 97.5735C364.485 98.1522 364.601 98.6609 364.835 99.0995C365.077 99.5289 365.395 99.8602 365.787 100.094C366.188 100.318 366.622 100.43 367.089 100.43C367.565 100.43 367.999 100.318 368.391 100.094C368.792 99.8602 369.109 99.5289 369.343 99.0995C369.576 98.6609 369.693 98.1475 369.693 97.5595ZM373.946 91.0635V101.424H372.672V91.0635H373.946ZM376.775 92.5055C376.532 92.5055 376.327 92.4215 376.159 92.2535C375.991 92.0855 375.907 91.8802 375.907 91.6375C375.907 91.3949 375.991 91.1895 376.159 91.0215C376.327 90.8535 376.532 90.7695 376.775 90.7695C377.008 90.7695 377.204 90.8535 377.363 91.0215C377.531 91.1895 377.615 91.3949 377.615 91.6375C377.615 91.8802 377.531 92.0855 377.363 92.2535C377.204 92.4215 377.008 92.5055 376.775 92.5055ZM377.391 93.7515V101.424H376.117V93.7515H377.391ZM386.562 97.2935C386.562 97.5362 386.548 97.7929 386.52 98.0635H380.388C380.435 98.8195 380.692 99.4122 381.158 99.8415C381.634 100.262 382.208 100.472 382.88 100.472C383.431 100.472 383.888 100.346 384.252 100.094C384.626 99.8322 384.887 99.4869 385.036 99.0575H386.408C386.203 99.7949 385.792 100.397 385.176 100.864C384.56 101.321 383.795 101.55 382.88 101.55C382.152 101.55 381.499 101.386 380.92 101.06C380.351 100.733 379.903 100.271 379.576 99.6735C379.25 99.0669 379.086 98.3669 379.086 97.5735C379.086 96.7802 379.245 96.0849 379.562 95.4875C379.88 94.8902 380.323 94.4329 380.892 94.1155C381.471 93.7889 382.134 93.6255 382.88 93.6255C383.608 93.6255 384.252 93.7842 384.812 94.1015C385.372 94.4189 385.802 94.8575 386.1 95.4175C386.408 95.9682 386.562 96.5935 386.562 97.2935ZM385.246 97.0275C385.246 96.5422 385.139 96.1269 384.924 95.7815C384.71 95.4269 384.416 95.1609 384.042 94.9835C383.678 94.7969 383.272 94.7035 382.824 94.7035C382.18 94.7035 381.63 94.9089 381.172 95.3195C380.724 95.7302 380.468 96.2995 380.402 97.0275H385.246ZM389.518 94.9975C389.742 94.5589 390.059 94.2182 390.47 93.9755C390.89 93.7329 391.399 93.6115 391.996 93.6115V94.9275H391.66C390.232 94.9275 389.518 95.7022 389.518 97.2515V101.424H388.244V93.7515H389.518V94.9975ZM396.653 92.4635V91.3015H399.285V101.424H397.997V92.4635H396.653Z" fill="#858585"/>
<path d="M499.5 84.9238H422.5C419.462 84.9238 417 87.3863 417 90.4238V103.424C417 106.461 419.462 108.924 422.5 108.924H499.5C502.538 108.924 505 106.461 505 103.424V90.4238C505 87.3863 502.538 84.9238 499.5 84.9238Z" fill="#437FEC"/>
<path d="M434.506 93.1553L433.4 95.3971L430.925 95.7568L432.715 97.5029L432.292 99.9674L434.506 98.8037L436.72 99.9662L436.297 97.5018L438.087 95.7568L435.612 95.3971L434.506 93.1553Z" fill="white"/>
<path d="M439.147 95.0582L436.172 94.6258L434.842 91.9293C434.806 91.8555 434.746 91.7957 434.672 91.7594C434.487 91.668 434.262 91.7441 434.169 91.9293L432.839 94.6258L429.864 95.0582C429.782 95.0699 429.707 95.1086 429.649 95.1672C429.58 95.2385 429.542 95.3345 429.543 95.4341C429.544 95.5336 429.585 95.6286 429.656 95.6981L431.809 97.7969L431.301 100.761C431.289 100.829 431.296 100.9 431.323 100.965C431.349 101.03 431.393 101.086 431.449 101.127C431.506 101.168 431.573 101.193 431.643 101.198C431.713 101.203 431.782 101.188 431.844 101.155L434.506 99.7563L437.167 101.155C437.24 101.194 437.324 101.207 437.405 101.193C437.609 101.158 437.746 100.964 437.711 100.761L437.202 97.7969L439.355 95.6981C439.413 95.6406 439.452 95.5656 439.464 95.4836C439.495 95.2785 439.352 95.0887 439.147 95.0582ZM436.296 97.5016L436.719 99.966L434.506 98.8035L432.292 99.9672L432.715 97.5027L430.924 95.7566L433.399 95.3969L434.506 93.1551L435.612 95.3969L438.087 95.7566L436.296 97.5016Z" fill="white"/>
<path d="M454.03 93.4535L452.01 100.424H450.99L449.37 94.8135L447.69 100.424L446.68 100.434L444.73 93.4535H445.7L447.22 99.3635L448.9 93.4535H449.92L451.52 99.3435L453.05 93.4535H454.03ZM454.686 97.6635C454.686 97.1035 454.799 96.6135 455.026 96.1935C455.253 95.7669 455.563 95.4369 455.956 95.2035C456.356 94.9702 456.799 94.8535 457.286 94.8535C457.766 94.8535 458.183 94.9569 458.536 95.1635C458.889 95.3702 459.153 95.6302 459.326 95.9435V94.9435H460.246V100.424H459.326V99.4035C459.146 99.7235 458.876 99.9902 458.516 100.204C458.163 100.41 457.749 100.514 457.276 100.514C456.789 100.514 456.349 100.394 455.956 100.154C455.563 99.9135 455.253 99.5769 455.026 99.1435C454.799 98.7102 454.686 98.2169 454.686 97.6635ZM459.326 97.6735C459.326 97.2602 459.243 96.9002 459.076 96.5935C458.909 96.2869 458.683 96.0535 458.396 95.8935C458.116 95.7269 457.806 95.6435 457.466 95.6435C457.126 95.6435 456.816 95.7235 456.536 95.8835C456.256 96.0435 456.033 96.2769 455.866 96.5835C455.699 96.8902 455.616 97.2502 455.616 97.6635C455.616 98.0835 455.699 98.4502 455.866 98.7635C456.033 99.0702 456.256 99.3069 456.536 99.4735C456.816 99.6335 457.126 99.7135 457.466 99.7135C457.806 99.7135 458.116 99.6335 458.396 99.4735C458.683 99.3069 458.909 99.0702 459.076 98.7635C459.243 98.4502 459.326 98.0869 459.326 97.6735ZM462.894 95.6935V98.9235C462.894 99.1902 462.95 99.3802 463.064 99.4935C463.177 99.6002 463.374 99.6535 463.654 99.6535H464.324V100.424H463.504C462.997 100.424 462.617 100.307 462.364 100.074C462.11 99.8402 461.984 99.4569 461.984 98.9235V95.6935H461.274V94.9435H461.984V93.5635H462.894V94.9435H464.324V95.6935H462.894ZM465.086 97.6735C465.086 97.1069 465.2 96.6135 465.426 96.1935C465.653 95.7669 465.966 95.4369 466.366 95.2035C466.773 94.9702 467.236 94.8535 467.756 94.8535C468.43 94.8535 468.983 95.0169 469.416 95.3435C469.856 95.6702 470.146 96.1235 470.286 96.7035H469.306C469.213 96.3702 469.03 96.1069 468.756 95.9135C468.49 95.7202 468.156 95.6235 467.756 95.6235C467.236 95.6235 466.816 95.8035 466.496 96.1635C466.176 96.5169 466.016 97.0202 466.016 97.6735C466.016 98.3335 466.176 98.8435 466.496 99.2035C466.816 99.5635 467.236 99.7435 467.756 99.7435C468.156 99.7435 468.49 99.6502 468.756 99.4635C469.023 99.2769 469.206 99.0102 469.306 98.6635H470.286C470.14 99.2235 469.846 99.6735 469.406 100.014C468.966 100.347 468.416 100.514 467.756 100.514C467.236 100.514 466.773 100.397 466.366 100.164C465.966 99.9302 465.653 99.6002 465.426 99.1735C465.2 98.7469 465.086 98.2469 465.086 97.6735ZM474.22 94.8435C474.634 94.8435 475.007 94.9335 475.34 95.1135C475.674 95.2869 475.934 95.5502 476.12 95.9035C476.314 96.2569 476.41 96.6869 476.41 97.1935V100.424H475.51V97.3235C475.51 96.7769 475.374 96.3602 475.1 96.0735C474.827 95.7802 474.454 95.6335 473.98 95.6335C473.5 95.6335 473.117 95.7835 472.83 96.0835C472.55 96.3835 472.41 96.8202 472.41 97.3935V100.424H471.5V93.0235H472.41V95.7235C472.59 95.4435 472.837 95.2269 473.15 95.0735C473.47 94.9202 473.827 94.8435 474.22 94.8435ZM478.367 94.0535C478.194 94.0535 478.047 93.9935 477.927 93.8735C477.807 93.7535 477.747 93.6069 477.747 93.4335C477.747 93.2602 477.807 93.1135 477.927 92.9935C478.047 92.8735 478.194 92.8135 478.367 92.8135C478.534 92.8135 478.674 92.8735 478.787 92.9935C478.907 93.1135 478.967 93.2602 478.967 93.4335C478.967 93.6069 478.907 93.7535 478.787 93.8735C478.674 93.9935 478.534 94.0535 478.367 94.0535ZM478.807 94.9435V100.424H477.897V94.9435H478.807ZM483.028 94.8435C483.695 94.8435 484.235 95.0469 484.648 95.4535C485.061 95.8535 485.268 96.4335 485.268 97.1935V100.424H484.368V97.3235C484.368 96.7769 484.231 96.3602 483.958 96.0735C483.685 95.7802 483.311 95.6335 482.838 95.6335C482.358 95.6335 481.975 95.7835 481.688 96.0835C481.408 96.3835 481.268 96.8202 481.268 97.3935V100.424H480.358V94.9435H481.268V95.7235C481.448 95.4435 481.691 95.2269 481.998 95.0735C482.311 94.9202 482.655 94.8435 483.028 94.8435ZM489.014 94.8535C489.488 94.8535 489.901 94.9569 490.254 95.1635C490.614 95.3702 490.881 95.6302 491.054 95.9435V94.9435H491.974V100.544C491.974 101.044 491.868 101.487 491.654 101.874C491.441 102.267 491.134 102.574 490.734 102.794C490.341 103.014 489.881 103.124 489.354 103.124C488.634 103.124 488.034 102.954 487.554 102.614C487.074 102.274 486.791 101.81 486.704 101.224H487.604C487.704 101.557 487.911 101.824 488.224 102.024C488.538 102.23 488.914 102.334 489.354 102.334C489.854 102.334 490.261 102.177 490.574 101.864C490.894 101.55 491.054 101.11 491.054 100.544V99.3935C490.874 99.7135 490.608 99.9802 490.254 100.194C489.901 100.407 489.488 100.514 489.014 100.514C488.528 100.514 488.084 100.394 487.684 100.154C487.291 99.9135 486.981 99.5769 486.754 99.1435C486.528 98.7102 486.414 98.2169 486.414 97.6635C486.414 97.1035 486.528 96.6135 486.754 96.1935C486.981 95.7669 487.291 95.4369 487.684 95.2035C488.084 94.9702 488.528 94.8535 489.014 94.8535ZM491.054 97.6735C491.054 97.2602 490.971 96.9002 490.804 96.5935C490.638 96.2869 490.411 96.0535 490.124 95.8935C489.844 95.7269 489.534 95.6435 489.194 95.6435C488.854 95.6435 488.544 95.7235 488.264 95.8835C487.984 96.0435 487.761 96.2769 487.594 96.5835C487.428 96.8902 487.344 97.2502 487.344 97.6635C487.344 98.0835 487.428 98.4502 487.594 98.7635C487.761 99.0702 487.984 99.3069 488.264 99.4735C488.544 99.6335 488.854 99.7135 489.194 99.7135C489.534 99.7135 489.844 99.6335 490.124 99.4735C490.411 99.3069 490.638 99.0702 490.804 98.7635C490.971 98.4502 491.054 98.0869 491.054 97.6735Z" fill="white"/>
<path d="M499.5 84.9238H422.5C419.462 84.9238 417 87.3863 417 90.4238V103.424C417 106.461 419.462 108.924 422.5 108.924H499.5C502.538 108.924 505 106.461 505 103.424V90.4238C505 87.3863 502.538 84.9238 499.5 84.9238Z" stroke="#227AEB"/>
</g>
<g filter="url(#filter1_i_2_2619)">
<path d="M513.5 173.424H297.5C288.663 173.424 281.5 180.587 281.5 189.424V246.424C281.5 255.26 288.663 262.424 297.5 262.424H513.5C522.337 262.424 529.5 255.26 529.5 246.424V189.424C529.5 180.587 522.337 173.424 513.5 173.424Z" fill="#F5FAFF"/>
<path d="M328.5 217.924C328.5 211.573 323.351 206.424 317 206.424C310.649 206.424 305.5 211.573 305.5 217.924C305.5 224.275 310.649 229.424 317 229.424C323.351 229.424 328.5 224.275 328.5 217.924Z" fill="url(#paint1_linear_2_2619)"/>
<path d="M324.557 214.392L322.889 211.728C322.739 211.489 322.475 211.343 322.192 211.343H311.806C311.524 211.343 311.259 211.489 311.11 211.728L309.441 214.392C308.58 215.767 309.344 217.679 310.953 217.898C311.069 217.913 311.187 217.921 311.305 217.921C312.066 217.921 312.74 217.587 313.202 217.07C313.665 217.587 314.341 217.921 315.099 217.921C315.86 217.921 316.534 217.587 316.997 217.07C317.459 217.587 318.135 217.921 318.894 217.921C319.655 217.921 320.328 217.587 320.791 217.07C321.256 217.587 321.93 217.921 322.688 217.921C322.809 217.921 322.925 217.913 323.04 217.898C324.655 217.682 325.421 215.769 324.557 214.392ZM322.693 218.746C322.436 218.746 322.182 218.708 321.935 218.649V221.214H312.064V218.649C311.817 218.705 311.562 218.746 311.305 218.746C311.151 218.746 310.994 218.736 310.842 218.715C310.699 218.695 310.557 218.661 310.421 218.623V223.682C310.421 224.137 310.788 224.505 311.243 224.505H322.76C323.215 224.505 323.583 224.137 323.583 223.682V218.623C323.444 218.664 323.305 218.697 323.161 218.715C323.004 218.736 322.85 218.746 322.693 218.746Z" fill="#E6F7FF"/>
<path d="M339.672 222.522C339.028 222.522 338.449 222.41 337.936 222.186C337.432 221.952 337.035 221.635 336.746 221.234C336.457 220.823 336.307 220.352 336.298 219.82H337.656C337.703 220.277 337.889 220.664 338.216 220.982C338.552 221.29 339.037 221.444 339.672 221.444C340.279 221.444 340.755 221.294 341.1 220.996C341.455 220.688 341.632 220.296 341.632 219.82C341.632 219.446 341.529 219.143 341.324 218.91C341.119 218.676 340.862 218.499 340.554 218.378C340.246 218.256 339.831 218.126 339.308 217.986C338.664 217.818 338.146 217.65 337.754 217.482C337.371 217.314 337.04 217.052 336.76 216.698C336.489 216.334 336.354 215.848 336.354 215.242C336.354 214.71 336.489 214.238 336.76 213.828C337.031 213.417 337.409 213.1 337.894 212.876C338.389 212.652 338.953 212.54 339.588 212.54C340.503 212.54 341.249 212.768 341.828 213.226C342.416 213.683 342.747 214.29 342.822 215.046H341.422C341.375 214.672 341.179 214.346 340.834 214.066C340.489 213.776 340.031 213.632 339.462 213.632C338.93 213.632 338.496 213.772 338.16 214.052C337.824 214.322 337.656 214.705 337.656 215.2C337.656 215.554 337.754 215.844 337.95 216.068C338.155 216.292 338.403 216.464 338.692 216.586C338.991 216.698 339.406 216.828 339.938 216.978C340.582 217.155 341.1 217.332 341.492 217.51C341.884 217.678 342.22 217.944 342.5 218.308C342.78 218.662 342.92 219.148 342.92 219.764C342.92 220.24 342.794 220.688 342.542 221.108C342.29 221.528 341.917 221.868 341.422 222.13C340.927 222.391 340.344 222.522 339.672 222.522ZM351.599 214.752V222.424H350.325V221.29C350.082 221.682 349.741 221.99 349.303 222.214C348.873 222.428 348.397 222.536 347.875 222.536C347.277 222.536 346.741 222.414 346.265 222.172C345.789 221.92 345.411 221.546 345.131 221.052C344.86 220.557 344.725 219.955 344.725 219.246V214.752H345.985V219.078C345.985 219.834 346.176 220.417 346.559 220.828C346.941 221.229 347.464 221.43 348.127 221.43C348.808 221.43 349.345 221.22 349.737 220.8C350.129 220.38 350.325 219.768 350.325 218.966V214.752H351.599ZM355.024 216.166C355.276 215.727 355.649 215.363 356.144 215.074C356.648 214.775 357.231 214.626 357.894 214.626C358.575 214.626 359.191 214.789 359.742 215.116C360.302 215.442 360.741 215.904 361.058 216.502C361.375 217.09 361.534 217.776 361.534 218.56C361.534 219.334 361.375 220.025 361.058 220.632C360.741 221.238 360.302 221.71 359.742 222.046C359.191 222.382 358.575 222.55 357.894 222.55C357.241 222.55 356.662 222.405 356.158 222.116C355.663 221.817 355.285 221.448 355.024 221.01V226.064H353.75V214.752H355.024V216.166ZM360.232 218.56C360.232 217.981 360.115 217.477 359.882 217.048C359.649 216.618 359.331 216.292 358.93 216.068C358.538 215.844 358.104 215.732 357.628 215.732C357.161 215.732 356.727 215.848 356.326 216.082C355.934 216.306 355.617 216.637 355.374 217.076C355.141 217.505 355.024 218.004 355.024 218.574C355.024 219.152 355.141 219.661 355.374 220.1C355.617 220.529 355.934 220.86 356.326 221.094C356.727 221.318 357.161 221.43 357.628 221.43C358.104 221.43 358.538 221.318 358.93 221.094C359.331 220.86 359.649 220.529 359.882 220.1C360.115 219.661 360.232 219.148 360.232 218.56ZM364.485 216.166C364.737 215.727 365.11 215.363 365.605 215.074C366.109 214.775 366.692 214.626 367.355 214.626C368.036 214.626 368.652 214.789 369.203 215.116C369.763 215.442 370.201 215.904 370.519 216.502C370.836 217.09 370.995 217.776 370.995 218.56C370.995 219.334 370.836 220.025 370.519 220.632C370.201 221.238 369.763 221.71 369.203 222.046C368.652 222.382 368.036 222.55 367.355 222.55C366.701 222.55 366.123 222.405 365.619 222.116C365.124 221.817 364.746 221.448 364.485 221.01V226.064H363.211V214.752H364.485V216.166ZM369.693 218.56C369.693 217.981 369.576 217.477 369.343 217.048C369.109 216.618 368.792 216.292 368.391 216.068C367.999 215.844 367.565 215.732 367.089 215.732C366.622 215.732 366.188 215.848 365.787 216.082C365.395 216.306 365.077 216.637 364.835 217.076C364.601 217.505 364.485 218.004 364.485 218.574C364.485 219.152 364.601 219.661 364.835 220.1C365.077 220.529 365.395 220.86 365.787 221.094C366.188 221.318 366.622 221.43 367.089 221.43C367.565 221.43 367.999 221.318 368.391 221.094C368.792 220.86 369.109 220.529 369.343 220.1C369.576 219.661 369.693 219.148 369.693 218.56ZM373.946 212.064V222.424H372.672V212.064H373.946ZM376.775 213.506C376.532 213.506 376.327 213.422 376.159 213.254C375.991 213.086 375.907 212.88 375.907 212.638C375.907 212.395 375.991 212.19 376.159 212.022C376.327 211.854 376.532 211.77 376.775 211.77C377.008 211.77 377.204 211.854 377.363 212.022C377.531 212.19 377.615 212.395 377.615 212.638C377.615 212.88 377.531 213.086 377.363 213.254C377.204 213.422 377.008 213.506 376.775 213.506ZM377.391 214.752V222.424H376.117V214.752H377.391ZM386.562 218.294C386.562 218.536 386.548 218.793 386.52 219.064H380.388C380.435 219.82 380.692 220.412 381.158 220.842C381.634 221.262 382.208 221.472 382.88 221.472C383.431 221.472 383.888 221.346 384.252 221.094C384.626 220.832 384.887 220.487 385.036 220.058H386.408C386.203 220.795 385.792 221.397 385.176 221.864C384.56 222.321 383.795 222.55 382.88 222.55C382.152 222.55 381.499 222.386 380.92 222.06C380.351 221.733 379.903 221.271 379.576 220.674C379.25 220.067 379.086 219.367 379.086 218.574C379.086 217.78 379.245 217.085 379.562 216.488C379.88 215.89 380.323 215.433 380.892 215.116C381.471 214.789 382.134 214.626 382.88 214.626C383.608 214.626 384.252 214.784 384.812 215.102C385.372 215.419 385.802 215.858 386.1 216.418C386.408 216.968 386.562 217.594 386.562 218.294ZM385.246 218.028C385.246 217.542 385.139 217.127 384.924 216.782C384.71 216.427 384.416 216.161 384.042 215.984C383.678 215.797 383.272 215.704 382.824 215.704C382.18 215.704 381.63 215.909 381.172 216.32C380.724 216.73 380.468 217.3 380.402 218.028H385.246ZM389.518 215.998C389.742 215.559 390.059 215.218 390.47 214.976C390.89 214.733 391.399 214.612 391.996 214.612V215.928H391.66C390.232 215.928 389.518 216.702 389.518 218.252V222.424H388.244V214.752H389.518V215.998ZM396.653 213.464V212.302H399.285V222.424H397.997V213.464H396.653Z" fill="#858585"/>
<path d="M499.5 205.924H422.5C419.462 205.924 417 208.386 417 211.424V224.424C417 227.461 419.462 229.924 422.5 229.924H499.5C502.538 229.924 505 227.461 505 224.424V211.424C505 208.386 502.538 205.924 499.5 205.924Z" fill="#437FEC"/>
<path d="M434.506 214.155L433.4 216.397L430.925 216.757L432.715 218.503L432.292 220.967L434.506 219.804L436.72 220.966L436.297 218.502L438.087 216.757L435.612 216.397L434.506 214.155Z" fill="white"/>
<path d="M439.147 216.058L436.172 215.626L434.842 212.929C434.806 212.855 434.746 212.796 434.672 212.759C434.487 212.668 434.262 212.744 434.169 212.929L432.839 215.626L429.864 216.058C429.782 216.07 429.707 216.109 429.649 216.167C429.58 216.239 429.542 216.335 429.543 216.434C429.544 216.534 429.585 216.629 429.656 216.698L431.809 218.797L431.301 221.761C431.289 221.829 431.296 221.9 431.323 221.965C431.349 222.03 431.393 222.086 431.449 222.127C431.506 222.168 431.573 222.193 431.643 222.198C431.713 222.203 431.782 222.188 431.844 222.155L434.506 220.756L437.167 222.155C437.24 222.194 437.324 222.207 437.405 222.193C437.609 222.158 437.746 221.964 437.711 221.761L437.202 218.797L439.355 216.698C439.413 216.641 439.452 216.566 439.464 216.484C439.495 216.279 439.352 216.089 439.147 216.058ZM436.296 218.502L436.719 220.966L434.506 219.804L432.292 220.967L432.715 218.503L430.924 216.757L433.399 216.397L434.506 214.155L435.612 216.397L438.087 216.757L436.296 218.502Z" fill="white"/>
<path d="M454.03 214.453L452.01 221.423H450.99L449.37 215.813L447.69 221.423L446.68 221.433L444.73 214.453H445.7L447.22 220.363L448.9 214.453H449.92L451.52 220.343L453.05 214.453H454.03ZM454.686 218.663C454.686 218.103 454.799 217.613 455.026 217.193C455.253 216.766 455.563 216.436 455.956 216.203C456.356 215.969 456.799 215.853 457.286 215.853C457.766 215.853 458.183 215.956 458.536 216.163C458.889 216.369 459.153 216.629 459.326 216.943V215.943H460.246V221.423H459.326V220.403C459.146 220.723 458.876 220.989 458.516 221.203C458.163 221.409 457.749 221.513 457.276 221.513C456.789 221.513 456.349 221.393 455.956 221.153C455.563 220.913 455.253 220.576 455.026 220.143C454.799 219.709 454.686 219.216 454.686 218.663ZM459.326 218.673C459.326 218.259 459.243 217.899 459.076 217.593C458.909 217.286 458.683 217.053 458.396 216.893C458.116 216.726 457.806 216.643 457.466 216.643C457.126 216.643 456.816 216.723 456.536 216.883C456.256 217.043 456.033 217.276 455.866 217.583C455.699 217.889 455.616 218.249 455.616 218.663C455.616 219.083 455.699 219.449 455.866 219.763C456.033 220.069 456.256 220.306 456.536 220.473C456.816 220.633 457.126 220.713 457.466 220.713C457.806 220.713 458.116 220.633 458.396 220.473C458.683 220.306 458.909 220.069 459.076 219.763C459.243 219.449 459.326 219.086 459.326 218.673ZM462.894 216.693V219.923C462.894 220.189 462.95 220.379 463.064 220.493C463.177 220.599 463.374 220.653 463.654 220.653H464.324V221.423H463.504C462.997 221.423 462.617 221.306 462.364 221.073C462.11 220.839 461.984 220.456 461.984 219.923V216.693H461.274V215.943H461.984V214.563H462.894V215.943H464.324V216.693H462.894ZM465.086 218.673C465.086 218.106 465.2 217.613 465.426 217.193C465.653 216.766 465.966 216.436 466.366 216.203C466.773 215.969 467.236 215.853 467.756 215.853C468.43 215.853 468.983 216.016 469.416 216.343C469.856 216.669 470.146 217.123 470.286 217.703H469.306C469.213 217.369 469.03 217.106 468.756 216.913C468.49 216.719 468.156 216.623 467.756 216.623C467.236 216.623 466.816 216.803 466.496 217.163C466.176 217.516 466.016 218.019 466.016 218.673C466.016 219.333 466.176 219.843 466.496 220.203C466.816 220.563 467.236 220.743 467.756 220.743C468.156 220.743 468.49 220.649 468.756 220.463C469.023 220.276 469.206 220.009 469.306 219.663H470.286C470.14 220.223 469.846 220.673 469.406 221.013C468.966 221.346 468.416 221.513 467.756 221.513C467.236 221.513 466.773 221.396 466.366 221.163C465.966 220.929 465.653 220.599 465.426 220.173C465.2 219.746 465.086 219.246 465.086 218.673ZM474.22 215.843C474.634 215.843 475.007 215.933 475.34 216.113C475.674 216.286 475.934 216.549 476.12 216.903C476.314 217.256 476.41 217.686 476.41 218.193V221.423H475.51V218.323C475.51 217.776 475.374 217.359 475.1 217.073C474.827 216.779 474.454 216.633 473.98 216.633C473.5 216.633 473.117 216.783 472.83 217.083C472.55 217.383 472.41 217.819 472.41 218.393V221.423H471.5V214.023H472.41V216.723C472.59 216.443 472.837 216.226 473.15 216.073C473.47 215.919 473.827 215.843 474.22 215.843ZM478.367 215.053C478.194 215.053 478.047 214.993 477.927 214.873C477.807 214.753 477.747 214.606 477.747 214.433C477.747 214.259 477.807 214.113 477.927 213.993C478.047 213.873 478.194 213.813 478.367 213.813C478.534 213.813 478.674 213.873 478.787 213.993C478.907 214.113 478.967 214.259 478.967 214.433C478.967 214.606 478.907 214.753 478.787 214.873C478.674 214.993 478.534 215.053 478.367 215.053ZM478.807 215.943V221.423H477.897V215.943H478.807ZM483.028 215.843C483.695 215.843 484.235 216.046 484.648 216.453C485.061 216.853 485.268 217.433 485.268 218.193V221.423H484.368V218.323C484.368 217.776 484.231 217.359 483.958 217.073C483.685 216.779 483.311 216.633 482.838 216.633C482.358 216.633 481.975 216.783 481.688 217.083C481.408 217.383 481.268 217.819 481.268 218.393V221.423H480.358V215.943H481.268V216.723C481.448 216.443 481.691 216.226 481.998 216.073C482.311 215.919 482.655 215.843 483.028 215.843ZM489.014 215.853C489.488 215.853 489.901 215.956 490.254 216.163C490.614 216.369 490.881 216.629 491.054 216.943V215.943H491.974V221.543C491.974 222.043 491.868 222.486 491.654 222.873C491.441 223.266 491.134 223.573 490.734 223.793C490.341 224.013 489.881 224.123 489.354 224.123C488.634 224.123 488.034 223.953 487.554 223.613C487.074 223.273 486.791 222.809 486.704 222.223H487.604C487.704 222.556 487.911 222.823 488.224 223.023C488.538 223.229 488.914 223.333 489.354 223.333C489.854 223.333 490.261 223.176 490.574 222.863C490.894 222.549 491.054 222.109 491.054 221.543V220.393C490.874 220.713 490.608 220.979 490.254 221.193C489.901 221.406 489.488 221.513 489.014 221.513C488.528 221.513 488.084 221.393 487.684 221.153C487.291 220.913 486.981 220.576 486.754 220.143C486.528 219.709 486.414 219.216 486.414 218.663C486.414 218.103 486.528 217.613 486.754 217.193C486.981 216.766 487.291 216.436 487.684 216.203C488.084 215.969 488.528 215.853 489.014 215.853ZM491.054 218.673C491.054 218.259 490.971 217.899 490.804 217.593C490.638 217.286 490.411 217.053 490.124 216.893C489.844 216.726 489.534 216.643 489.194 216.643C488.854 216.643 488.544 216.723 488.264 216.883C487.984 217.043 487.761 217.276 487.594 217.583C487.428 217.889 487.344 218.249 487.344 218.663C487.344 219.083 487.428 219.449 487.594 219.763C487.761 220.069 487.984 220.306 488.264 220.473C488.544 220.633 488.854 220.713 489.194 220.713C489.534 220.713 489.844 220.633 490.124 220.473C490.411 220.306 490.638 220.069 490.804 219.763C490.971 219.449 491.054 219.086 491.054 218.673Z" fill="white"/>
<path d="M499.5 205.924H422.5C419.462 205.924 417 208.386 417 211.424V224.424C417 227.461 419.462 229.924 422.5 229.924H499.5C502.538 229.924 505 227.461 505 224.424V211.424C505 208.386 502.538 205.924 499.5 205.924Z" stroke="#227AEB"/>
</g>
<g filter="url(#filter2_i_2_2619)">
<path d="M513.5 294.424H297.5C288.663 294.424 281.5 301.587 281.5 310.424V367.424C281.5 376.26 288.663 383.424 297.5 383.424H513.5C522.337 383.424 529.5 376.26 529.5 367.424V310.424C529.5 301.587 522.337 294.424 513.5 294.424Z" fill="#F5FAFF"/>
<path d="M328.5 338.924C328.5 332.573 323.351 327.424 317 327.424C310.649 327.424 305.5 332.573 305.5 338.924C305.5 345.275 310.649 350.424 317 350.424C323.351 350.424 328.5 345.275 328.5 338.924Z" fill="url(#paint2_linear_2_2619)"/>
<path d="M324.557 335.392L322.889 332.728C322.739 332.489 322.475 332.343 322.192 332.343H311.806C311.524 332.343 311.259 332.489 311.11 332.728L309.441 335.392C308.58 336.767 309.344 338.679 310.953 338.898C311.069 338.913 311.187 338.921 311.305 338.921C312.066 338.921 312.74 338.587 313.202 338.07C313.665 338.587 314.341 338.921 315.099 338.921C315.86 338.921 316.534 338.587 316.997 338.07C317.459 338.587 318.135 338.921 318.894 338.921C319.655 338.921 320.328 338.587 320.791 338.07C321.256 338.587 321.93 338.921 322.688 338.921C322.809 338.921 322.925 338.913 323.04 338.898C324.655 338.682 325.421 336.769 324.557 335.392ZM322.693 339.746C322.436 339.746 322.182 339.708 321.935 339.649V342.214H312.064V339.649C311.817 339.705 311.562 339.746 311.305 339.746C311.151 339.746 310.994 339.736 310.842 339.715C310.699 339.695 310.557 339.661 310.421 339.623V344.682C310.421 345.137 310.788 345.505 311.243 345.505H322.76C323.215 345.505 323.583 345.137 323.583 344.682V339.623C323.444 339.664 323.305 339.697 323.161 339.715C323.004 339.736 322.85 339.746 322.693 339.746Z" fill="#E6F7FF"/>
<path d="M339.672 343.522C339.028 343.522 338.449 343.41 337.936 343.186C337.432 342.952 337.035 342.635 336.746 342.234C336.457 341.823 336.307 341.352 336.298 340.82H337.656C337.703 341.277 337.889 341.664 338.216 341.982C338.552 342.29 339.037 342.444 339.672 342.444C340.279 342.444 340.755 342.294 341.1 341.996C341.455 341.688 341.632 341.296 341.632 340.82C341.632 340.446 341.529 340.143 341.324 339.91C341.119 339.676 340.862 339.499 340.554 339.378C340.246 339.256 339.831 339.126 339.308 338.986C338.664 338.818 338.146 338.65 337.754 338.482C337.371 338.314 337.04 338.052 336.76 337.698C336.489 337.334 336.354 336.848 336.354 336.242C336.354 335.71 336.489 335.238 336.76 334.828C337.031 334.417 337.409 334.1 337.894 333.876C338.389 333.652 338.953 333.54 339.588 333.54C340.503 333.54 341.249 333.768 341.828 334.226C342.416 334.683 342.747 335.29 342.822 336.046H341.422C341.375 335.672 341.179 335.346 340.834 335.066C340.489 334.776 340.031 334.632 339.462 334.632C338.93 334.632 338.496 334.772 338.16 335.052C337.824 335.322 337.656 335.705 337.656 336.2C337.656 336.554 337.754 336.844 337.95 337.068C338.155 337.292 338.403 337.464 338.692 337.586C338.991 337.698 339.406 337.828 339.938 337.978C340.582 338.155 341.1 338.332 341.492 338.51C341.884 338.678 342.22 338.944 342.5 339.308C342.78 339.662 342.92 340.148 342.92 340.764C342.92 341.24 342.794 341.688 342.542 342.108C342.29 342.528 341.917 342.868 341.422 343.13C340.927 343.391 340.344 343.522 339.672 343.522ZM351.599 335.752V343.424H350.325V342.29C350.082 342.682 349.741 342.99 349.303 343.214C348.873 343.428 348.397 343.536 347.875 343.536C347.277 343.536 346.741 343.414 346.265 343.172C345.789 342.92 345.411 342.546 345.131 342.052C344.86 341.557 344.725 340.955 344.725 340.246V335.752H345.985V340.078C345.985 340.834 346.176 341.417 346.559 341.828C346.941 342.229 347.464 342.43 348.127 342.43C348.808 342.43 349.345 342.22 349.737 341.8C350.129 341.38 350.325 340.768 350.325 339.966V335.752H351.599ZM355.024 337.166C355.276 336.727 355.649 336.363 356.144 336.074C356.648 335.775 357.231 335.626 357.894 335.626C358.575 335.626 359.191 335.789 359.742 336.116C360.302 336.442 360.741 336.904 361.058 337.502C361.375 338.09 361.534 338.776 361.534 339.56C361.534 340.334 361.375 341.025 361.058 341.632C360.741 342.238 360.302 342.71 359.742 343.046C359.191 343.382 358.575 343.55 357.894 343.55C357.241 343.55 356.662 343.405 356.158 343.116C355.663 342.817 355.285 342.448 355.024 342.01V347.064H353.75V335.752H355.024V337.166ZM360.232 339.56C360.232 338.981 360.115 338.477 359.882 338.048C359.649 337.618 359.331 337.292 358.93 337.068C358.538 336.844 358.104 336.732 357.628 336.732C357.161 336.732 356.727 336.848 356.326 337.082C355.934 337.306 355.617 337.637 355.374 338.076C355.141 338.505 355.024 339.004 355.024 339.574C355.024 340.152 355.141 340.661 355.374 341.1C355.617 341.529 355.934 341.86 356.326 342.094C356.727 342.318 357.161 342.43 357.628 342.43C358.104 342.43 358.538 342.318 358.93 342.094C359.331 341.86 359.649 341.529 359.882 341.1C360.115 340.661 360.232 340.148 360.232 339.56ZM364.485 337.166C364.737 336.727 365.11 336.363 365.605 336.074C366.109 335.775 366.692 335.626 367.355 335.626C368.036 335.626 368.652 335.789 369.203 336.116C369.763 336.442 370.201 336.904 370.519 337.502C370.836 338.09 370.995 338.776 370.995 339.56C370.995 340.334 370.836 341.025 370.519 341.632C370.201 342.238 369.763 342.71 369.203 343.046C368.652 343.382 368.036 343.55 367.355 343.55C366.701 343.55 366.123 343.405 365.619 343.116C365.124 342.817 364.746 342.448 364.485 342.01V347.064H363.211V335.752H364.485V337.166ZM369.693 339.56C369.693 338.981 369.576 338.477 369.343 338.048C369.109 337.618 368.792 337.292 368.391 337.068C367.999 336.844 367.565 336.732 367.089 336.732C366.622 336.732 366.188 336.848 365.787 337.082C365.395 337.306 365.077 337.637 364.835 338.076C364.601 338.505 364.485 339.004 364.485 339.574C364.485 340.152 364.601 340.661 364.835 341.1C365.077 341.529 365.395 341.86 365.787 342.094C366.188 342.318 366.622 342.43 367.089 342.43C367.565 342.43 367.999 342.318 368.391 342.094C368.792 341.86 369.109 341.529 369.343 341.1C369.576 340.661 369.693 340.148 369.693 339.56ZM373.946 333.064V343.424H372.672V333.064H373.946ZM376.775 334.506C376.532 334.506 376.327 334.422 376.159 334.254C375.991 334.086 375.907 333.88 375.907 333.638C375.907 333.395 375.991 333.19 376.159 333.022C376.327 332.854 376.532 332.77 376.775 332.77C377.008 332.77 377.204 332.854 377.363 333.022C377.531 333.19 377.615 333.395 377.615 333.638C377.615 333.88 377.531 334.086 377.363 334.254C377.204 334.422 377.008 334.506 376.775 334.506ZM377.391 335.752V343.424H376.117V335.752H377.391ZM386.562 339.294C386.562 339.536 386.548 339.793 386.52 340.064H380.388C380.435 340.82 380.692 341.412 381.158 341.842C381.634 342.262 382.208 342.472 382.88 342.472C383.431 342.472 383.888 342.346 384.252 342.094C384.626 341.832 384.887 341.487 385.036 341.058H386.408C386.203 341.795 385.792 342.397 385.176 342.864C384.56 343.321 383.795 343.55 382.88 343.55C382.152 343.55 381.499 343.386 380.92 343.06C380.351 342.733 379.903 342.271 379.576 341.674C379.25 341.067 379.086 340.367 379.086 339.574C379.086 338.78 379.245 338.085 379.562 337.488C379.88 336.89 380.323 336.433 380.892 336.116C381.471 335.789 382.134 335.626 382.88 335.626C383.608 335.626 384.252 335.784 384.812 336.102C385.372 336.419 385.802 336.858 386.1 337.418C386.408 337.968 386.562 338.594 386.562 339.294ZM385.246 339.028C385.246 338.542 385.139 338.127 384.924 337.782C384.71 337.427 384.416 337.161 384.042 336.984C383.678 336.797 383.272 336.704 382.824 336.704C382.18 336.704 381.63 336.909 381.172 337.32C380.724 337.73 380.468 338.3 380.402 339.028H385.246ZM389.518 336.998C389.742 336.559 390.059 336.218 390.47 335.976C390.89 335.733 391.399 335.612 391.996 335.612V336.928H391.66C390.232 336.928 389.518 337.702 389.518 339.252V343.424H388.244V335.752H389.518V336.998ZM396.653 334.464V333.302H399.285V343.424H397.997V334.464H396.653Z" fill="#858585"/>
<path d="M499.5 326.924H422.5C419.462 326.924 417 329.386 417 332.424V345.424C417 348.461 419.462 350.924 422.5 350.924H499.5C502.538 350.924 505 348.461 505 345.424V332.424C505 329.386 502.538 326.924 499.5 326.924Z" fill="#437FEC"/>
<path d="M434.506 335.155L433.4 337.397L430.925 337.757L432.715 339.503L432.292 341.967L434.506 340.804L436.72 341.966L436.297 339.502L438.087 337.757L435.612 337.397L434.506 335.155Z" fill="white"/>
<path d="M439.147 337.058L436.172 336.626L434.842 333.929C434.806 333.855 434.746 333.796 434.672 333.759C434.487 333.668 434.262 333.744 434.169 333.929L432.839 336.626L429.864 337.058C429.782 337.07 429.707 337.109 429.649 337.167C429.58 337.239 429.542 337.335 429.543 337.434C429.544 337.534 429.585 337.629 429.656 337.698L431.809 339.797L431.301 342.761C431.289 342.829 431.296 342.9 431.323 342.965C431.349 343.03 431.393 343.086 431.449 343.127C431.506 343.168 431.573 343.193 431.643 343.198C431.713 343.203 431.782 343.188 431.844 343.155L434.506 341.756L437.167 343.155C437.24 343.194 437.324 343.207 437.405 343.193C437.609 343.158 437.746 342.964 437.711 342.761L437.202 339.797L439.355 337.698C439.413 337.641 439.452 337.566 439.464 337.484C439.495 337.279 439.352 337.089 439.147 337.058ZM436.296 339.502L436.719 341.966L434.506 340.804L432.292 341.967L432.715 339.503L430.924 337.757L433.399 337.397L434.506 335.155L435.612 337.397L438.087 337.757L436.296 339.502Z" fill="white"/>
<path d="M454.03 335.453L452.01 342.423H450.99L449.37 336.813L447.69 342.423L446.68 342.433L444.73 335.453H445.7L447.22 341.363L448.9 335.453H449.92L451.52 341.343L453.05 335.453H454.03ZM454.686 339.663C454.686 339.103 454.799 338.613 455.026 338.193C455.253 337.766 455.563 337.436 455.956 337.203C456.356 336.969 456.799 336.853 457.286 336.853C457.766 336.853 458.183 336.956 458.536 337.163C458.889 337.369 459.153 337.629 459.326 337.943V336.943H460.246V342.423H459.326V341.403C459.146 341.723 458.876 341.989 458.516 342.203C458.163 342.409 457.749 342.513 457.276 342.513C456.789 342.513 456.349 342.393 455.956 342.153C455.563 341.913 455.253 341.576 455.026 341.143C454.799 340.709 454.686 340.216 454.686 339.663ZM459.326 339.673C459.326 339.259 459.243 338.899 459.076 338.593C458.909 338.286 458.683 338.053 458.396 337.893C458.116 337.726 457.806 337.643 457.466 337.643C457.126 337.643 456.816 337.723 456.536 337.883C456.256 338.043 456.033 338.276 455.866 338.583C455.699 338.889 455.616 339.249 455.616 339.663C455.616 340.083 455.699 340.449 455.866 340.763C456.033 341.069 456.256 341.306 456.536 341.473C456.816 341.633 457.126 341.713 457.466 341.713C457.806 341.713 458.116 341.633 458.396 341.473C458.683 341.306 458.909 341.069 459.076 340.763C459.243 340.449 459.326 340.086 459.326 339.673ZM462.894 337.693V340.923C462.894 341.189 462.95 341.379 463.064 341.493C463.177 341.599 463.374 341.653 463.654 341.653H464.324V342.423H463.504C462.997 342.423 462.617 342.306 462.364 342.073C462.11 341.839 461.984 341.456 461.984 340.923V337.693H461.274V336.943H461.984V335.563H462.894V336.943H464.324V337.693H462.894ZM465.086 339.673C465.086 339.106 465.2 338.613 465.426 338.193C465.653 337.766 465.966 337.436 466.366 337.203C466.773 336.969 467.236 336.853 467.756 336.853C468.43 336.853 468.983 337.016 469.416 337.343C469.856 337.669 470.146 338.123 470.286 338.703H469.306C469.213 338.369 469.03 338.106 468.756 337.913C468.49 337.719 468.156 337.623 467.756 337.623C467.236 337.623 466.816 337.803 466.496 338.163C466.176 338.516 466.016 339.019 466.016 339.673C466.016 340.333 466.176 340.843 466.496 341.203C466.816 341.563 467.236 341.743 467.756 341.743C468.156 341.743 468.49 341.649 468.756 341.463C469.023 341.276 469.206 341.009 469.306 340.663H470.286C470.14 341.223 469.846 341.673 469.406 342.013C468.966 342.346 468.416 342.513 467.756 342.513C467.236 342.513 466.773 342.396 466.366 342.163C465.966 341.929 465.653 341.599 465.426 341.173C465.2 340.746 465.086 340.246 465.086 339.673ZM474.22 336.843C474.634 336.843 475.007 336.933 475.34 337.113C475.674 337.286 475.934 337.549 476.12 337.903C476.314 338.256 476.41 338.686 476.41 339.193V342.423H475.51V339.323C475.51 338.776 475.374 338.359 475.1 338.073C474.827 337.779 474.454 337.633 473.98 337.633C473.5 337.633 473.117 337.783 472.83 338.083C472.55 338.383 472.41 338.819 472.41 339.393V342.423H471.5V335.023H472.41V337.723C472.59 337.443 472.837 337.226 473.15 337.073C473.47 336.919 473.827 336.843 474.22 336.843ZM478.367 336.053C478.194 336.053 478.047 335.993 477.927 335.873C477.807 335.753 477.747 335.606 477.747 335.433C477.747 335.259 477.807 335.113 477.927 334.993C478.047 334.873 478.194 334.813 478.367 334.813C478.534 334.813 478.674 334.873 478.787 334.993C478.907 335.113 478.967 335.259 478.967 335.433C478.967 335.606 478.907 335.753 478.787 335.873C478.674 335.993 478.534 336.053 478.367 336.053ZM478.807 336.943V342.423H477.897V336.943H478.807ZM483.028 336.843C483.695 336.843 484.235 337.046 484.648 337.453C485.061 337.853 485.268 338.433 485.268 339.193V342.423H484.368V339.323C484.368 338.776 484.231 338.359 483.958 338.073C483.685 337.779 483.311 337.633 482.838 337.633C482.358 337.633 481.975 337.783 481.688 338.083C481.408 338.383 481.268 338.819 481.268 339.393V342.423H480.358V336.943H481.268V337.723C481.448 337.443 481.691 337.226 481.998 337.073C482.311 336.919 482.655 336.843 483.028 336.843ZM489.014 336.853C489.488 336.853 489.901 336.956 490.254 337.163C490.614 337.369 490.881 337.629 491.054 337.943V336.943H491.974V342.543C491.974 343.043 491.868 343.486 491.654 343.873C491.441 344.266 491.134 344.573 490.734 344.793C490.341 345.013 489.881 345.123 489.354 345.123C488.634 345.123 488.034 344.953 487.554 344.613C487.074 344.273 486.791 343.809 486.704 343.223H487.604C487.704 343.556 487.911 343.823 488.224 344.023C488.538 344.229 488.914 344.333 489.354 344.333C489.854 344.333 490.261 344.176 490.574 343.863C490.894 343.549 491.054 343.109 491.054 342.543V341.393C490.874 341.713 490.608 341.979 490.254 342.193C489.901 342.406 489.488 342.513 489.014 342.513C488.528 342.513 488.084 342.393 487.684 342.153C487.291 341.913 486.981 341.576 486.754 341.143C486.528 340.709 486.414 340.216 486.414 339.663C486.414 339.103 486.528 338.613 486.754 338.193C486.981 337.766 487.291 337.436 487.684 337.203C488.084 336.969 488.528 336.853 489.014 336.853ZM491.054 339.673C491.054 339.259 490.971 338.899 490.804 338.593C490.638 338.286 490.411 338.053 490.124 337.893C489.844 337.726 489.534 337.643 489.194 337.643C488.854 337.643 488.544 337.723 488.264 337.883C487.984 338.043 487.761 338.276 487.594 338.583C487.428 338.889 487.344 339.249 487.344 339.663C487.344 340.083 487.428 340.449 487.594 340.763C487.761 341.069 487.984 341.306 488.264 341.473C488.544 341.633 488.854 341.713 489.194 341.713C489.534 341.713 489.844 341.633 490.124 341.473C490.411 341.306 490.638 341.069 490.804 340.763C490.971 340.449 491.054 340.086 491.054 339.673Z" fill="white"/>
<path d="M499.5 326.924H422.5C419.462 326.924 417 329.386 417 332.424V345.424C417 348.461 419.462 350.924 422.5 350.924H499.5C502.538 350.924 505 348.461 505 345.424V332.424C505 329.386 502.538 326.924 499.5 326.924Z" stroke="#227AEB"/>
</g>
<path d="M282.5 99.4238L277.5 96.5371V102.311L282.5 99.4238ZM278 98.9238H241.413V99.9238H278V98.9238ZM225.913 114.424V191.424H226.913V114.424H225.913ZM211.413 205.924H196.5V206.924H211.413V205.924ZM225.913 191.424C225.913 199.432 219.421 205.924 211.413 205.924V206.924C219.974 206.924 226.913 199.984 226.913 191.424H225.913ZM241.413 98.9238C232.853 98.9238 225.913 105.863 225.913 114.424H226.913C226.913 106.416 233.405 99.9238 241.413 99.9238V98.9238Z" fill="#4AC3ED"/>
<path d="M282.5 99.4238L277.5 96.5371V102.311L282.5 99.4238ZM278 98.9238H241.413V99.9238H278V98.9238ZM225.913 114.424V191.424H226.913V114.424H225.913ZM211.413 205.924H196.5V206.924H211.413V205.924ZM225.913 191.424C225.913 199.432 219.421 205.924 211.413 205.924V206.924C219.974 206.924 226.913 199.984 226.913 191.424H225.913ZM241.413 98.9238C232.853 98.9238 225.913 105.863 225.913 114.424H226.913C226.913 106.416 233.405 99.9238 241.413 99.9238V98.9238Z" fill="#B7B7B7"/>
<path d="M282.5 221.424L277.5 224.311V218.537L282.5 221.424ZM278 221.924H226.413V220.924H278V221.924ZM226.413 221.924H196.5V220.924H226.413V221.924Z" fill="#4AC3ED"/>
<path d="M282.5 221.424L277.5 224.311V218.537L282.5 221.424ZM278 221.924H226.413V220.924H278V221.924ZM226.413 221.924H196.5V220.924H226.413V221.924Z" fill="#B7B7B7"/>
<path d="M282.5 342.424L277.5 345.311V339.537L282.5 342.424ZM278 342.924H241.413V341.924H278V342.924ZM225.913 327.424V250.424H226.913V327.424H225.913ZM211.413 235.924H196.5V234.924H211.413V235.924ZM225.913 250.424C225.913 242.416 219.421 235.924 211.413 235.924V234.924C219.974 234.924 226.913 241.863 226.913 250.424H225.913ZM241.413 342.924C232.853 342.924 225.913 335.984 225.913 327.424H226.913C226.913 335.432 233.405 341.924 241.413 341.924V342.924Z" fill="#4AC3ED"/>
<path d="M282.5 342.424L277.5 345.311V339.537L282.5 342.424ZM278 342.924H241.413V341.924H278V342.924ZM225.913 327.424V250.424H226.913V327.424H225.913ZM211.413 235.924H196.5V234.924H211.413V235.924ZM225.913 250.424C225.913 242.416 219.421 235.924 211.413 235.924V234.924C219.974 234.924 226.913 241.863 226.913 250.424H225.913ZM241.413 342.924C232.853 342.924 225.913 335.984 225.913 327.424H226.913C226.913 335.432 233.405 341.924 241.413 341.924V342.924Z" fill="#B7B7B7"/>
<defs>
<filter id="filter0_i_2_2619" x="281.5" y="51.9238" width="248" height="89.5" filterUnits="userSpaceOnUse" color-interpolation-filters="sRGB">
<feFlood flood-opacity="0" result="BackgroundImageFix"/>
<feBlend mode="normal" in="SourceGraphic" in2="BackgroundImageFix" result="shape"/>
<feColorMatrix in="SourceAlpha" type="matrix" values="0 0 0 0 0 0 0 0 0 0 0 0 0 0 0 0 0 0 127 0" result="hardAlpha"/>
<feOffset dy="-0.5"/>
<feGaussianBlur stdDeviation="2"/>
<feComposite in2="hardAlpha" operator="arithmetic" k2="-1" k3="1"/>
<feColorMatrix type="matrix" values="0 0 0 0 0.55 0 0 0 0 0.55 0 0 0 0 0.55 0 0 0 0.25 0"/>
<feBlend mode="normal" in2="shape" result="effect1_innerShadow_2_2619"/>
</filter>
<filter id="filter1_i_2_2619" x="281.5" y="172.924" width="248" height="89.5" filterUnits="userSpaceOnUse" color-interpolation-filters="sRGB">
<feFlood flood-opacity="0" result="BackgroundImageFix"/>
<feBlend mode="normal" in="SourceGraphic" in2="BackgroundImageFix" result="shape"/>
<feColorMatrix in="SourceAlpha" type="matrix" values="0 0 0 0 0 0 0 0 0 0 0 0 0 0 0 0 0 0 127 0" result="hardAlpha"/>
<feOffset dy="-0.5"/>
<feGaussianBlur stdDeviation="2"/>
<feComposite in2="hardAlpha" operator="arithmetic" k2="-1" k3="1"/>
<feColorMatrix type="matrix" values="0 0 0 0 0.55 0 0 0 0 0.55 0 0 0 0 0.55 0 0 0 0.25 0"/>
<feBlend mode="normal" in2="shape" result="effect1_innerShadow_2_2619"/>
</filter>
<filter id="filter2_i_2_2619" x="281.5" y="293.924" width="248" height="89.5" filterUnits="userSpaceOnUse" color-interpolation-filters="sRGB">
<feFlood flood-opacity="0" result="BackgroundImageFix"/>
<feBlend mode="normal" in="SourceGraphic" in2="BackgroundImageFix" result="shape"/>
<feColorMatrix in="SourceAlpha" type="matrix" values="0 0 0 0 0 0 0 0 0 0 0 0 0 0 0 0 0 0 127 0" result="hardAlpha"/>
<feOffset dy="-0.5"/>
<feGaussianBlur stdDeviation="2"/>
<feComposite in2="hardAlpha" operator="arithmetic" k2="-1" k3="1"/>
<feColorMatrix type="matrix" values="0 0 0 0 0.55 0 0 0 0 0.55 0 0 0 0 0.55 0 0 0 0.25 0"/>
<feBlend mode="normal" in2="shape" result="effect1_innerShadow_2_2619"/>
</filter>
<linearGradient id="paint0_linear_2_2619" x1="317" y1="85.4238" x2="317" y2="108.424" gradientUnits="userSpaceOnUse">
<stop stop-color="#ADD3E9"/>
<stop offset="1" stop-color="#4CB4D5"/>
</linearGradient>
<linearGradient id="paint1_linear_2_2619" x1="317" y1="206.424" x2="317" y2="229.424" gradientUnits="userSpaceOnUse">
<stop stop-color="#ADD3E9"/>
<stop offset="1" stop-color="#4CB4D5"/>
</linearGradient>
<linearGradient id="paint2_linear_2_2619" x1="317" y1="327.424" x2="317" y2="350.424" gradientUnits="userSpaceOnUse">
<stop stop-color="#ADD3E9"/>
<stop offset="1" stop-color="#4CB4D5"/>
</linearGradient>
</defs>
</svg>
